<svg width="330" height="90" viewBox="0 0 330 90" fill="none" xmlns="http://www.w3.org/2000/svg">
<path fill-rule="evenodd" clip-rule="evenodd" d="M137.735 46.4141V20.198H170.939C187.288 20.198 189.677 46.4141 167.71 46.4141H137.735ZM166.839 59.6928C166.839 59.6928 190.233 64.4853 201.805 48.2912C213.046 32.5569 204.245 0 174.539 0H115.989V88.0753H137.735V59.6928C137.735 59.6928 162.397 83.7344 196.181 86.8413C197.151 86.9298 198.11 87.0197 199.057 87.1084C204.406 87.6096 209.375 88.0753 214.011 88.0753V64.7559L214.002 64.7589C213.536 64.9308 193.425 72.3502 166.839 59.6928ZM0 4.77617e-06V22.1978H38.1359V88.0732H59.881V22.1978H98.019V4.77617e-06H0ZM309.582 66.0045V0H330V88.0732H309.582V75.219C282.283 101.735 242.663 90.175 233.92 59.5784C232.628 55.0523 231.981 49.8748 231.981 44.0377V0H253.434V41.5634C253.434 50.2806 255.435 56.5402 259.423 60.3192C266.428 66.9575 279.527 65.9982 279.527 65.9982C287.238 65.5029 299.473 56.6068 299.473 56.6068C299.473 56.6068 305.737 62.7186 309.582 66.0045Z" fill="#2B3497"/>
</svg>
