<svg xmlns="http://www.w3.org/2000/svg" width="64" height="34" viewBox="0 0 63 34"><path style="stroke:none;fill-rule:evenodd;fill:#f9fafa;fill-opacity:1" d="M0 17.016v17.02h63V0H0v17.016M58.707.715c1.402.137 2.637 1.086 2.953 2.262.074.277.13.53.164.718.063.371.047 26.09-.015 26.524-.2 1.336-1.215 2.535-2.387 2.808-.055.012-.168.043-.25.063-.23.058-55.02.082-55.395.023-1.457-.226-2.593-1.386-2.804-2.875C.922 29.863.945 3.711 1 3.438 1.29 1.964 2.41.93 3.93.733 4.375.676 58.129.656 58.707.714m-3.246 3.493c-1.336.191-2.203 1.512-1.867 2.84.023.082.05.195.058.246l.02.094h-.746v1.328h4.699V7.39l-1.047-.012c-1.137-.016-1.168-.02-1.426-.219-.406-.308-.41-1.047-.007-1.39.406-.344 1.156-.282 1.535.132.18.192.129.227.578-.414l.37-.531-.108-.113c-.454-.473-1.325-.742-2.06-.637m-20.335 8.746c0 3.777.012 5.61.04 5.762.28 1.765 1.312 2.683 3.26 2.894.376.043 7.04.051 7.102.012.032-.02.043-.605.051-2.375.016-2.605.004-2.46.246-2.969.61-1.261 2.75-1.105 3.133.227.438 1.512-.187 2.625-1.465 2.625-.258 0-.312.008-.398.074-.098.078-1.23 1.05-1.32 1.137-.044.043-.032.066.117.191.09.082.3.266.468.414.168.145.34.297.387.34l.25.215.164.145h.32c.297 0 .477-.02.895-.106.184-.039.566-.148.672-.2.719-.323 1.09-.585 1.492-1.042.379-.426.715-1.043.848-1.543.832-3.145-1.028-5.817-4.055-5.82-2.059 0-3.473 1.097-3.988 3.101-.078.3-.106.438-.188.985-.02.125-.035.648-.035 1.168v.94h-2.184c-2.726 0-2.87-.026-3.156-.6-.191-.38-.18-.04-.199-5.782l-.02-5.309-1.218-.007-1.219-.012v5.535m18.957-3.176c-.008.024-.012 2.7-.008 5.946l.008 5.906h2.52V9.75l-1.25-.008c-.985-.008-1.258 0-1.27.035m-24.187 3.301c-.024.027-.04.692-.047 2-.012 1.442-.028 1.992-.059 2.094a6.998 6.998 0 0 0-.078.27c-.29 1.062-1.137 1.64-2.457 1.675-.59.02-.723.004-1.16-.133-1.489-.46-2.094-2.355-1.301-4.09l.14-.3-.101-.086a13.76 13.76 0 0 0-.332-.25c-.133-.09-.344-.242-.473-.336-.129-.094-.34-.25-.468-.34l-.38-.277c-.116-.082-.156-.098-.19-.067-.098.082-.489.825-.657 1.242-.113.274-.25.817-.332 1.297-.129.727.008 2.032.285 2.762.524 1.383 1.672 2.461 3.02 2.836 1.062.297 1.87.34 2.972.168a6.073 6.073 0 0 0 1.34-.414c1.34-.649 2.281-1.942 2.559-3.516.12-.691.129-.925.12-2.746l-.007-1.816-1.18-.008c-.925-.008-1.187 0-1.214.035m-18.68 3.34c0 .398.004.402.539.387l.387-.008.007-.14c.016-.169-.097-.302-.277-.337-.137-.023-.168-.062-.117-.152.02-.043.023-.07.004-.07-.043 0-.145.203-.117.242.007.02.05.023.093.012.168-.043.403.187.344.34-.015.042-.078.054-.355.054-.461 0-.438.016-.438-.344 0-.18-.015-.304-.035-.304-.02 0-.035.129-.035.32m5.152.02c0 .199.004.277.012.18a2.698 2.698 0 0 0 0-.356c-.008-.102-.012-.02-.012.175m-2.004-.109c-.105.121-.09.23.035.235.16.003.192.05.13.18-.15.292-.56.214-.56-.106 0-.051-.015-.102-.03-.114-.02-.011-.036.024-.036.082 0 .43.547.52.703.114.06-.145.032-.203-.101-.219-.137-.012-.156-.066-.059-.16.055-.055.063-.07.024-.07-.028 0-.078.027-.106.058m.516-.031c0 .012.05.058.113.098.235.156.2.351-.066.351-.102 0-.184.016-.184.031 0 .051 1.399.047 1.43 0 .035-.058-.05-.328-.125-.394-.078-.07-.406-.086-.469-.02-.066.067-.008.09.102.043.172-.07.34 0 .383.164.039.164.011.176-.415.176h-.394l-.04-.113c-.073-.2-.124-.27-.234-.317-.054-.023-.101-.035-.101-.02m-3.93.188c0 .235-.035.262-.304.262-.278 0-.36-.055-.399-.273l-.031-.153v.153c-.008.293.457.476.726.289.079-.059.114-.457.04-.457-.016 0-.032.078-.032.18m1.477.093c0 .227-.012.29-.059.324-.047.035-.05.047-.008.047.028 0 .07-.031.09-.066.04-.063.082-.07.516-.07.594 0 .601-.004.601-.297 0-.16-.011-.215-.03-.18a.436.436 0 0 0-.036.191c0 .317-.21.301-.238-.02-.02-.218-.02-.218-.024-.046-.011.355-.277.418-.277.062 0-.125-.012-.218-.031-.218-.02 0-.035.078-.035.18 0 .21-.07.273-.27.253l-.117-.011-.008-.211c-.016-.313-.074-.262-.074.062m-2.297 1.008c-.012.012-.02.418-.02.898v.88l.075.019c.043.012.191.015.328.012l.25-.012.02-.254c.019-.328.03-.34.253-.34.317 0 .418.098.418.41 0 .192.043.203.73.192l.626-.008.129-.375c.07-.207.156-.453.187-.551.082-.266.094-.25.309.348.183.52.214.578.304.578.067 0 .078-.016.07-.086l-.015-.188-.008-.101.227-.008c.261-.012.265-.02.148-.29-.074-.167-.12-.269-.285-.648a19.234 19.234 0 0 1-.14-.324l-.075-.18-.387.012-.39.008-.055.102c-.027.058-.098.203-.148.324-.434.996-.489 1.09-.52.887a.7.7 0 0 0-.183-.313c-.016-.012.015-.082.074-.152.203-.254.101-.645-.211-.793-.152-.07-1.645-.113-1.711-.047m3.976.016c0 .054.293.664.332.691.028.016.372-.633.372-.703 0-.016-.157-.027-.352-.027-.254 0-.352.011-.352.039m1.184.003c-.016.024-.113.25-.21.5-.142.364-.372.875-.563 1.27-.008.012.144.023.34.023h.355l.055-.125c.027-.07.086-.234.132-.367.176-.523.215-.613.266-.625.027-.004.05.012.05.035 0 .047.25.707.306.82.02.032.03.079.03.106 0 .133.712.25.786.133.016-.023-.348-.809-.742-1.61L16 17.579l-.34-.008c-.242-.008-.348 0-.37.035m-3.946.485c.199.144.039.297-.301.281l-.246-.008-.012-.113c-.015-.195.004-.21.254-.21.152 0 .254.015.305.05M36.016 24c-.008.027-.012.863-.008 1.867l.008 1.82.312.008.309.012-.008-1.863-.008-1.867-.293-.008c-.219-.008-.3 0-.312.031m20.074-.012c-.031.024-.04.418-.035 1.864l.011 1.835.309.008.313.012-.008-1.863-.012-1.867-.266-.008c-.148-.004-.289.004-.312.02m-33.363.46c-.243.23-.106.602.222.598.156 0 .219-.035.305-.188.176-.308-.27-.652-.527-.41m11.554-.012c-.273.215-.148.614.192.614.261 0 .418-.235.32-.477-.082-.199-.348-.27-.512-.137m16.59 0c-.277.22-.148.614.195.614.325 0 .461-.375.223-.598a.325.325 0 0 0-.418-.015m3.043 1.21c-.129.086-.25.172-.273.196-.032.031.039.156.293.543.496.75.496.75-.336.773l-.59.016v.512l.75.007c.82.012.918-.008 1.078-.215.246-.316.176-.613-.363-1.496-.332-.55-.282-.52-.559-.336m-23.96-.109a.85.85 0 0 1-.2.055c-.254.05-.27.07-.27.367v.254l.196-.027c.664-.098 1.03.023 1.215.394.074.152.152.492.12.54-.023.042-5.105.05-6.699.015-1.101-.028-1.02.027-1.043-.715l-.02-.54h-.6l-.02.973c-.02 1.184-.067 1.325-.426 1.325-.18 0-.215.058-.203.343l.008.254.207.008a.973.973 0 0 0 1.02-.98c0-.2.05-.239.187-.145.09.059.332.059 5.168.05 2.789 0 5.324-.003 5.636-.003l.563-.004v-2.039h-.605v.707c0 .527-.012.723-.043.746-.06.051-2.41.047-2.47 0-.023-.02-.042-.094-.042-.168 0-.504-.332-1.078-.73-1.273-.212-.102-.887-.2-.95-.137m13.25.125c-.289.117-.469.277-.586.52-.129.277-.144.226.168.601.317.387.309.34.078.461-.515.27-.75.637-.754 1.176-.007 1.023 1.192 1.496 2.348.926.227-.114.238-.145.125-.371-.113-.23-.105-.227-.34-.145-.11.04-.281.094-.383.117-.996.246-1.48-.66-.672-1.25.266-.195.286-.199.516-.086l.207.102 2.922-.004c1.605 0 3.438-.004 4.07-.004l1.149-.004v-.66c0-.742-.031-.898-.239-1.156-.406-.5-1.34-.356-1.628.254-.149.312-.168.488-.094.89l.023.125-2.976-.008c-3.082-.003-3.059-.003-2.91-.14.796-.73.02-1.758-1.024-1.344m-4.789-.008c-.7.153-1.016 1.25-.523 1.805.148.168.394.242.78.242.376 0 .384.008.302.172-.102.2-.25.262-.739.32l-.336.035-.011.223c-.02.39-.028.383.37.356 1.09-.075 1.438-.47 1.438-1.633 0-1.188-.433-1.7-1.28-1.52m5.413.535c.192.102.055.645-.176.688-.101.02-.574-.54-.511-.606.117-.12.52-.168.687-.082m7.445.067c.145.12.235.656.141.836-.07.133-.504.066-.656-.106-.098-.11-.098-.57 0-.68.14-.156.363-.18.515-.05m-12.425.004c.199.14.265.797.09.863-.231.09-.54.016-.614-.152-.195-.43.188-.953.524-.711m-2.653 1.851a.499.499 0 0 0-.25.48c.02.122.016.137-.062.169-.078.027-.086.047-.078.175l.011.145.43.012c.461.008.527-.008.527-.149 0-.156-.035-.187-.199-.187-.27 0-.386-.153-.234-.309.05-.05.101-.066.191-.058.121.011.125.007.133-.106.016-.226-.215-.312-.469-.172m20.047 0c-.16.086-.226.223-.226.457 0 .18-.004.188-.086.188-.078 0-.082.012-.082.172v.172l.476-.008.48-.012v-.305l-.183-.02c-.379-.034-.394-.343-.02-.378.087-.008.102-.027.114-.117.02-.211-.215-.285-.473-.149m-26.078.203c-.281.176-.207.598.113.633.368.047.532-.328.262-.586-.137-.133-.219-.14-.375-.047"/><path style="stroke:none;fill-rule:evenodd;fill:#04bcc4;fill-opacity:1" d="M3.625.824c-.918.254-1.484.617-1.977 1.266-.14.183-.472.82-.472.906a.938.938 0 0 1-.055.203c-.148.434-.148.121-.148 13.758 0 9.254.011 12.961.039 13.137.047.312.16.789.215.906.023.05.07.152.101.227.442.988 1.414 1.68 2.625 1.855.34.047 54.57.047 54.879 0 1.555-.25 2.559-1.176 2.895-2.672.07-.305.07-26.605.003-26.937-.265-1.282-1.164-2.27-2.34-2.582l-.273-.07C58.934.77 3.801.772 3.625.823m52.719 3.348c.504.105.836.273 1.156.59.21.203.219.176-.227.8-.453.645-.406.614-.628.387-.508-.52-1.403-.449-1.668.13-.149.316-.082.737.152.976.238.242.351.261 1.484.261.547 0 1.016.016 1.035.028.047.031.075 1.383.032 1.43-.035.035-4.774.03-4.809-.004-.055-.055-.035-1.383.02-1.418.027-.02.207-.036.398-.036.219 0 .34-.011.324-.03-.12-.204-.18-1.126-.09-1.415.227-.707.672-1.258 1.215-1.504.246-.11.457-.18.551-.183a.52.52 0 0 0 .172-.032c.11-.047.621-.039.883.02m-38.121 6.933c-.012 2.176-.02 6.57-.02 9.77v5.813l-.234-.165a269.432 269.432 0 0 1-3.157-2.289 17.332 17.332 0 0 1-.269-.191c-.027-.027-.129-.102-.219-.168-.168-.117-.414-.297-.875-.629-.324-.238-.664-.48-.93-.672l-1.84-1.336c-1.8-1.308-1.949-1.418-2.253-1.633a2.707 2.707 0 0 1-.23-.171 2.893 2.893 0 0 0-.239-.168 4.437 4.437 0 0 1-.234-.172 2.706 2.706 0 0 0-.23-.172c-.118-.082-.313-.223-.438-.313-.121-.09-.328-.238-.457-.332-.13-.093-.336-.242-.457-.332a15.16 15.16 0 0 0-.438-.312l-.351-.258c-.075-.055-.243-.18-.375-.273-.325-.227-.34-.2.378-.704.114-.078.211-.152.22-.164.007-.011.116-.09.234-.168.12-.082.226-.16.234-.171.012-.012.117-.09.238-.172.117-.078.223-.157.235-.168.007-.012.113-.09.234-.172.121-.082.227-.156.234-.168.012-.012.118-.09.235-.172.12-.082.226-.156.238-.168.008-.012.113-.09.234-.172.118-.086.227-.16.235-.172.008-.011.113-.086.234-.172.121-.082.227-.156.235-.168.011-.007.257-.191.554-.406.594-.43.824-.598 1.176-.855.129-.094.29-.196.352-.223a.44.44 0 0 0 .132-.074c.012-.016.118-.094.239-.18.12-.082.226-.156.234-.168.008-.012.703-.515 1.543-1.12.844-.61 1.59-1.153 1.668-1.208.074-.059.254-.187.398-.293.145-.101.356-.254.473-.34l.469-.34c.144-.101.355-.254.469-.34.117-.082.328-.238.472-.34.14-.1.352-.257.469-.34.117-.085.328-.237.473-.339.14-.105.343-.254.449-.332.101-.078.207-.145.234-.145.04 0 .043.555.024 3.957m19.39-3.718c.02.031.032 2.054.032 5.297 0 5.617-.004 5.394.164 5.77.265.593.5.64 3.199.64h2.035l.02-1.032c.011-.566.039-1.12.058-1.23.02-.113.05-.289.07-.395.032-.183.047-.242.13-.542.41-1.5 1.456-2.57 2.82-2.887.77-.18 1.773-.168 2.418.023.066.02.171.047.238.067.488.125 1.18.562 1.629 1.03.414.434.922 1.24.922 1.47 0 .023.011.058.027.078.031.031.125.36.176.629.152.758.086 1.886-.153 2.601-.414 1.254-1.347 2.184-2.57 2.567-.547.168-.785.207-1.281.207h-.434l-.277-.242c-.152-.133-.473-.418-.719-.633-.246-.215-.445-.403-.445-.422 0-.016.328-.313.726-.66l.727-.63h.297c.164 0 .328-.011.371-.03.043-.016.14-.047.21-.07.72-.216 1.009-.684 1.005-1.634 0-1.082-.363-1.64-1.192-1.836-.8-.187-1.636.153-1.937.793-.242.508-.238.442-.238 2.989-.004 1.246-.012 2.293-.024 2.32-.023.066-7.027.086-7.43.02-1.949-.313-2.917-1.301-3.093-3.145-.067-.703-.043-11.105.023-11.145.106-.062 2.457-.035 2.496.032m-9.758 2.426c-.003 2.617-.02 3.597-.058 3.597-.024 0-.246-.148-.492-.324-.25-.18-.5-.348-.555-.375a3.287 3.287 0 0 1-.34-.23l-.5-.364c-.144-.105-.36-.262-.48-.347a5.474 5.474 0 0 0-.364-.254c-.171-.114-.183-.157-.054-.239.05-.035.097-.07.11-.082a4.29 4.29 0 0 1 .233-.168c.118-.086.227-.16.235-.172.008-.011.113-.085.234-.171a4.29 4.29 0 0 0 .235-.168c.011-.012.117-.086.234-.172.121-.082.227-.16.238-.168.008-.012.114-.09.235-.172A4.29 4.29 0 0 0 27 9.836c.008-.012.113-.09.234-.172.121-.082.243-.172.27-.195.348-.29.351-.285.351.344m28.782 5.878v5.973H54.05l-.008-5.941c-.008-3.266-.004-5.957.008-5.98.011-.036.289-.044 1.3-.036l1.286.012v5.972M22.5 12.27c.27.14.316.418.105.632-.19.196-.43.172-.605-.058-.238-.305.152-.758.5-.574m-.344.132c-.078.059-.129.215-.105.313.078.316.62.207.57-.117-.031-.211-.297-.325-.465-.196m.34.067c.082.101.016.406-.074.332a.299.299 0 0 0-.16-.031c-.125.011-.164-.079-.117-.266.023-.094.28-.121.351-.035m9.824.543c.07.054.067 3.875-.008 4.175a6.53 6.53 0 0 0-.074.391c-.023.133-.05.285-.066.34-.09.32-.184.617-.207.648a.126.126 0 0 0-.027.079c0 .21-.575 1.152-.958 1.566-.39.426-1.472 1.129-1.738 1.129a.124.124 0 0 0-.078.031c-.055.05-.59.18-1.125.27-.324.058-1.434.05-1.812-.008a6.727 6.727 0 0 1-1.059-.238c-1.02-.348-1.86-.98-2.438-1.836-.156-.23-.464-.832-.464-.91 0-.028-.012-.067-.028-.083a.79.79 0 0 1-.07-.187l-.074-.238c-.012-.047-.043-.164-.063-.262l-.074-.36c-.055-.238-.055-1.617 0-1.855.02-.098.055-.258.074-.355.114-.586.453-1.41.79-1.93.199-.309.074-.356 1.156.437.289.207.628.457.761.547.309.215.301.184.149.48a3.908 3.908 0 0 0-.309.829c-.062.234-.062 1.27 0 1.5.227.832.559 1.289 1.168 1.598.356.18.395.19.906.293.22.042.828.023 1.153-.032 1.078-.191 1.734-.863 1.945-2 .023-.136.04-.816.04-2.082 0-1.66.003-1.883.05-1.93.074-.07 2.383-.078 2.48-.007m4.38 12.77c.01 2.234.054 1.995-.372 1.984l-.344-.012-.011-1.871c-.004-1.028 0-1.89.007-1.914.016-.035.106-.043.364-.035l.343.011.012 1.836m20.04.067v1.906l-.333.012c-.472.011-.426.226-.426-1.914 0-2.137-.042-1.93.422-1.918l.336.011v1.903m-33.613-1.493c.43.207.133.93-.305.743-.258-.106-.351-.38-.21-.594.132-.2.304-.25.515-.149m11.535 0c.223.118.293.387.145.582-.18.239-.438.25-.625.036-.285-.328.097-.82.48-.618m16.57-.003c.329.136.313.578-.023.738-.246.117-.531-.086-.531-.38 0-.304.27-.48.554-.358m3.165 1.398c.449.738.539.902.609 1.133a.673.673 0 0 1-.211.71c-.172.157-.219.16-1.063.16h-.753v-.644l.62-.02c.34-.01.626-.023.63-.026.043-.028-.04-.184-.329-.618-.41-.625-.41-.59-.043-.832.352-.23.313-.238.54.137m-23.688-.207c.555.172.879.613.984 1.344l.028.187h2.383l.02-.73.015-.73.336-.012c.285-.008.34 0 .375.05.062.082.062 1.98.004 2.063-.047.062-11.188.113-11.32.05l-.126-.062c-.093-.047-.093-.05-.117.164-.074.64-.512 1.008-1.23 1.028-.09.003-.13-.122-.13-.387 0-.313.024-.36.192-.36a.508.508 0 0 0 .363-.171c.063-.07.067-.133.078-1.094.012-1.18-.042-1.059.458-1.043l.304.008.016.535c.012.426.027.55.07.601.074.086.863.102 4.63.094l2.905-.004-.011-.152a.746.746 0 0 0-.645-.695c-.191-.024-.621.007-.71.054-.145.074-.25-.535-.114-.652.152-.129.93-.18 1.242-.086m13.426.066c.543.23.648.84.234 1.32a.883.883 0 0 0-.105.134c0 .007 1.293.011 2.875.011h2.875l-.004-.316c-.028-1.238 1.512-1.742 2.004-.653.105.227.16 1.614.07 1.649-.074.027-7.047.043-7.668.02-.488-.02-.594-.036-.723-.098-.187-.094-.25-.094-.382 0-.496.344-.63.789-.317 1.07.258.234.79.223 1.403-.031.105-.047.414.445.335.539-.074.09-.468.262-.824.355-.5.13-1.18-.03-1.527-.359-.602-.57-.383-1.617.422-2.04.18-.093.18-.1-.086-.42-.262-.317-.274-.356-.156-.626.226-.508 1.02-.789 1.574-.555m-5.133 0c.555.172.727.536.727 1.547 0 1.211-.247 1.532-1.313 1.703-.539.086-.574.067-.559-.379l.008-.316.285-.02c.403-.03.516-.058.653-.175.21-.176.172-.211-.223-.215-.293-.004-.367-.016-.48-.082-1.098-.625-.309-2.434.902-2.063m4.332.637c-.164.047-.16.074.016.29.277.335.32.343.46.097.196-.336-.027-.52-.476-.387m-4.809.055c-.437.222-.152.922.317.789l.148-.04v-.206c0-.465-.187-.68-.465-.543m12.301.031c-.07.074-.082.121-.082.305 0 .34.121.453.48.453l.126.004v-.336c0-.29-.012-.352-.07-.426-.102-.129-.337-.129-.454 0m-14.16 1.719c.055.058.055.402 0 .406-.023 0-.09 0-.144-.004-.125-.004-.2.07-.168.168.02.059.05.07.203.07.218 0 .285.055.285.239 0 .218-.043.238-.555.238-.57 0-.555.008-.555-.242 0-.184.008-.2.086-.219.075-.02.082-.043.082-.176 0-.316.204-.52.524-.52.113 0 .219.016.242.04m20.07.012c.141.144.047.406-.14.394-.313-.016-.27.207.047.234l.195.016v.445l-.48.008c-.555.012-.575.004-.575-.226 0-.164.04-.243.133-.243.04 0 .05-.043.055-.183.004-.383.527-.688.765-.445m-26.125.273c.328.332-.082.871-.476.629-.242-.149-.278-.406-.082-.613.18-.192.379-.196.558-.016"/><path style="stroke:none;fill-rule:evenodd;fill:#f25104;fill-opacity:1" d="m17.965 7.293-.45.332c-.144.102-.355.254-.472.34-.117.082-.328.238-.469.34-.144.101-.355.258-.472.34-.114.085-.325.238-.47.34l-.468.34c-.117.085-.328.238-.473.34-.144.105-.324.233-.398.292-.078.055-.824.598-1.668 1.207-.84.606-1.535 1.11-1.543 1.121a2.762 2.762 0 0 1-.234.168 2.734 2.734 0 0 0-.239.18.44.44 0 0 1-.132.074 2.734 2.734 0 0 0-.352.223c-.352.258-.582.425-1.176.855-.297.215-.543.399-.554.406a2.762 2.762 0 0 1-.235.168c-.12.086-.226.16-.234.172-.008.012-.117.086-.235.172-.12.082-.226.16-.234.172a4.537 4.537 0 0 1-.238.168c-.117.082-.223.16-.235.172a2.763 2.763 0 0 1-.234.168c-.121.082-.227.16-.234.172-.012.011-.118.09-.235.168-.12.082-.226.16-.238.172-.008.011-.113.09-.234.171a2.535 2.535 0 0 0-.235.168 2.172 2.172 0 0 1-.219.164c-.718.504-.703.477-.378.704.132.093.3.218.375.273.078.059.234.172.351.258.121.082.317.222.438.312.12.09.328.239.457.332l.457.332.437.313c.117.082.223.16.23.172.012.011.118.09.235.172.121.078.227.156.238.168.008.011.114.09.23.171.305.215.454.325 2.255 1.633.886.645 1.715 1.246 1.84 1.336.265.192.605.434.93.672.46.332.706.512.874.629.09.066.192.14.219.168.031.023.152.11.27.191a269.432 269.432 0 0 0 3.156 2.29l.234.163v-5.812c0-3.2.008-7.594.02-9.77.02-3.402.015-3.957-.024-3.957-.027 0-.133.067-.234.145m9.707 2.05a3.15 3.15 0 0 0-.168.126 4.582 4.582 0 0 1-.27.195c-.12.082-.226.16-.234.172a4.29 4.29 0 0 1-.234.168c-.121.082-.227.16-.235.172-.011.008-.117.086-.238.168-.117.086-.223.16-.234.172a4.29 4.29 0 0 1-.235.168c-.12.086-.226.16-.234.171-.008.012-.117.086-.235.172a4.29 4.29 0 0 0-.234.168 1.248 1.248 0 0 1-.11.082c-.128.082-.116.125.055.239.082.05.247.164.364.254.12.085.336.242.48.347l.5.363c.13.098.285.204.34.23.055.028.305.196.555.376.246.176.468.324.492.324.035 0 .043-.328.05-1.531.016-2.953.036-2.684-.175-2.535M13.297 16.03c0 .02-.02.035-.047.035-.031 0-.05-.015-.05-.035 0-.02.019-.035.05-.035.027 0 .047.016.047.035m-2.012.336c0 .188.012.317.035.328.075.047.621.059.696.02.164-.09.007-.305-.239-.336-.09-.008-.156-.035-.156-.059 0-.078.106-.254.152-.254.059 0 .063.04.008.09-.058.063-.008.137.117.16.16.032.254.145.266.329l.008.152-.438.008c-.53.011-.53.015-.546-.371-.012-.278.003-.368.062-.368.02 0 .035.118.035.301m5.13.082c-.013.43-.075.45-.087.028-.012-.344.008-.446.063-.391.02.02.03.176.023.363m-1.934-.12c-.136.116-.136.136.02.151.148.012.184.122.09.297-.137.274-.473.301-.633.055-.059-.094-.074-.324-.02-.324.016 0 .032.047.032.105 0 .332.523.41.547.078.007-.09 0-.101-.118-.109-.078-.008-.125-.027-.125-.059 0-.097.07-.222.141-.253.149-.06.18-.036.066.058m-3.5.438c-.07.086-.566.066-.68-.028-.116-.097-.179-.433-.077-.433.039 0 .054.03.054.144 0 .2.078.27.32.29.278.023.352-.028.352-.25 0-.262.047-.262.059 0 .008.14-.004.245-.028.277m1.676-.063c.196.016.239-.031.239-.25 0-.265.062-.226.074.047.015.352.226.32.226-.035.004-.121.016-.16.055-.16.04 0 .047.043.047.199 0 .223.015.246.129.203.062-.023.074-.05.074-.215 0-.144.012-.187.05-.187.071 0 .071.332-.003.433-.047.07-.074.075-.535.075-.469 0-.485.003-.567.085-.086.086-.156.11-.156.051 0-.015.031-.047.07-.066.059-.031.067-.074.067-.305 0-.324.043-.394.066-.101l.016.218.148.008m2.406-.351a.47.47 0 0 1 .145.218l.043.14h.8v-.097c0-.175-.21-.281-.382-.187-.129.066-.191.008-.074-.07.246-.165.61.046.586.34l-.012.1-.688.009c-.687.011-.855-.004-.722-.063a.902.902 0 0 1 .215-.027l.144-.004-.012-.125c-.007-.11-.03-.14-.136-.2-.07-.038-.117-.081-.102-.093.04-.04.082-.027.195.059m1.36.558c0 .016-.031.055-.067.09-.066.059-.066.059-.066-.008 0-.062.035-.101.106-.11.015 0 .027.013.027.028m-4.55.73c.28.16.378.512.21.762-.043.063-.09.114-.102.114-.015 0 .016.058.07.129.055.07.106.164.114.21.024.204.082.106.473-.78l.156-.352.07-.16h.805l.07.16c.04.09.11.242.153.343.043.098.078.184.078.192 0 .015.101.25.226.52.086.19.055.23-.203.242l-.23.007.023.094c.067.277.067.277-.043.277-.078 0-.105-.02-.133-.093a9.93 9.93 0 0 1-.109-.297 7.036 7.036 0 0 0-.102-.274c-.015-.035-.054-.14-.09-.234-.085-.223-.117-.223-.183-.012-.09.29-.266.785-.3.852-.028.055-.095.058-.665.058-.726 0-.71.008-.734-.289-.02-.242-.082-.289-.383-.289h-.227l-.011.282-.008.28-.332.013c-.246.003-.34-.004-.363-.036-.032-.054-.036-1.742-.004-1.773.07-.07 1.64-.023 1.773.055m2.973-.067c0 .047-.364.719-.395.727-.027.012-.379-.653-.379-.723 0-.008.176-.015.387-.015.211 0 .387.003.387.011m1.586.875c.238.488.43.903.43.922 0 .02-.153.027-.38.024l-.375-.012-.128-.34-.168-.426a3.762 3.762 0 0 1-.106-.285c-.023-.074-.121-.02-.121.07 0 .024-.016.07-.031.106-.02.031-.055.129-.082.21a8.157 8.157 0 0 1-.227.622c-.035.07-.77.094-.77.027 0-.02.016-.035.032-.035.055 0 .387-.754.746-1.695.027-.07.047-.075.39-.075h.364l.426.887m-5.61-.351a.336.336 0 0 0-.015.172l.015.109h.227c.234 0 .336-.055.336-.18 0-.148-.492-.238-.563-.101"/><path style="stroke:none;fill-rule:evenodd;fill:#64dce2;fill-opacity:1" d="M4.098.715c-.102.012 12.175.023 27.285.023S58.762.727 58.653.715C58.397.684 4.351.684 4.097.715m-.52.066-.07.031h.07a.203.203 0 0 0 .117-.03c.067-.044-.02-.044-.117 0m55.477 0c.035.019.105.03.152.03.074 0 .078-.003.016-.03a.48.48 0 0 0-.153-.028c-.074 0-.078.004-.015.027M3.293.851c-.07.044.016.044.117 0l.067-.03H3.41c-.039 0-.09.011-.117.03m56.082 0c.027.016.07.032.098.032.047 0 .047-.004 0-.031a.198.198 0 0 0-.098-.036c-.047 0-.047.004 0 .036M3.125.91l-.133.047c-.043.02-.074.04-.062.047.007.012.082-.012.164-.047.133-.062.156-.094.031-.047m56.45.008c.027.02.073.035.1.035.044 0 .044-.004 0-.035a.255.255 0 0 0-.1-.031c-.044 0-.044.004 0 .031m.167.047c0 .008.125.078.278.156a3.387 3.387 0 0 1 1.585 1.797c.028.07.047.102.051.07.004-.175-.386-.843-.699-1.191-.332-.36-1.215-.969-1.215-.832m-57.09.164c-.484.27-1.41 1.23-1.3 1.34.007.008.066-.067.128-.164.317-.5 1.106-1.215 1.34-1.215.016 0 .04-.016.051-.035.035-.055-.023-.035-.219.074M1.16 2.859c-.015.04-.015.082-.008.09.008.008.028-.015.04-.054.011-.043.015-.083.007-.094-.012-.008-.027.02-.039.058m-.07.204c-.012.039-.016.082-.004.09.008.011.027-.016.039-.055.012-.04.016-.082.008-.09-.012-.012-.028.015-.043.054m60.566.036c0 .027.016.074.035.101.028.047.032.047.032 0a.255.255 0 0 0-.032-.101c-.03-.047-.035-.047-.035 0M1.023 3.3c-.011.058-.015.113-.003.125.007.008.027-.031.039-.09.011-.059.015-.113.004-.125-.008-.008-.028.031-.04.09m60.707.035a.48.48 0 0 0 .028.152c.027.063.027.063.027-.015a.46.46 0 0 0-.027-.153c-.028-.062-.028-.062-.028.016M.965 3.672a1.096 1.096 0 0 0-.02.223c0 .09.008.082.032-.047A.903.903 0 0 0 1 3.625c-.008-.047-.02-.031-.035.047m60.832 13.262c0 7.3.016 13.21.031 13.136.035-.175.031-26.215-.004-26.328-.015-.047-.027 5.89-.027 13.192M55.437 4.18c-.03.011.16.023.426.023s.461-.012.426-.023a2.612 2.612 0 0 0-.426-.024c-.203 0-.394.012-.425.024m-.329.066c-.027.008-.086.031-.132.047-.16.062-.047.059.132-.004.102-.035.153-.062.118-.062a.35.35 0 0 0-.118.02m1.36.007c.101.043.183.043.117 0a.239.239 0 0 0-.117-.031l-.067.004.067.027m.218.07c.028.016.07.031.102.031.043 0 .043-.003 0-.03a.226.226 0 0 0-.102-.036c-.046 0-.046.004 0 .035m-2.113.168c-.32.2-.906.832-.836.903.008.007.067-.063.13-.16.222-.352.519-.618.905-.817.063-.031.094-.059.067-.059-.028-.004-.149.059-.266.133m2.297-.101c.012.02.04.035.059.035.05 0 .422.258.578.402l.137.125-.118-.133c-.172-.191-.738-.562-.656-.43m.387 1.098c-.442.637-.399.606-.578.414-.137-.148-.41-.324-.504-.32-.024.004.031.04.125.082.094.043.242.156.336.254.207.219.203.223.402-.066.094-.133.2-.282.238-.332.13-.165.36-.52.344-.532a8.249 8.249 0 0 0-.363.5m-1.555.086c.059.004.164.004.234 0 .07-.008.024-.015-.105-.015-.133 0-.187.007-.129.015m-.375.078a.734.734 0 0 0-.328.285c-.05.075-.031.063.074-.042.078-.082.207-.18.29-.215a.666.666 0 0 0 .148-.082c0-.028-.051-.016-.184.054m-1.773.215A.365.365 0 0 0 53.53 6c.004.07.004.07.035-.008a.314.314 0 0 0 .024-.137c-.008-.043-.016-.043-.035.012m-.047.567c0 .156.008.222.012.144.007-.082.007-.21 0-.289-.004-.082-.012-.016-.012.145m1.344.03c0 .106.003.15.011.095a.753.753 0 0 0 0-.188c-.008-.05-.011-.008-.011.094m.023.273c0 .028.016.074.031.102.032.047.032.047.032 0a.205.205 0 0 0-.032-.102c-.027-.043-.031-.043-.031 0m-1.34.153c0 .039.012.101.028.136l.03.07v-.07a.459.459 0 0 0-.03-.136l-.028-.067v.067m1.473.113c.078.121.324.305.36.27.01-.012-.009-.032-.044-.047a1.032 1.032 0 0 1-.23-.176c-.145-.14-.157-.145-.086-.047m-1.395.234.024.11-.383.011-.379.008-.008.66c-.008.457 0 .676.028.707.054.063 4.695.07 4.757.008.043-.047.063-1.23.02-1.336-.016-.047-.133-.054-.996-.047l-.98.008.964.012.965.008v1.328h-4.7V7.387h.368c.395 0 .453-.035.336-.207-.027-.035-.031-.024-.016.058m1.832.078c.028.02.07.036.098.036.047 0 .047-.004 0-.036a.238.238 0 0 0-.098-.03c-.047 0-.047.003 0 .03M35.11 7.43c-.007.039-.011 2.511-.007 5.488l.007 5.41.008-5.453.008-5.457 1.219.012 1.218.008.032 10.312.011-5.18c.004-4.695 0-5.18-.046-5.199-.028-.012-.586-.02-1.243-.02H35.13l-.02.079M22.2 12.285c0 .02.059.035.133.035.145 0 .3.114.3.22 0 .03.016.054.036.054.074 0 .027-.117-.09-.227-.125-.113-.379-.168-.379-.082m-.16.121c-.3.328.215.785.54.48.12-.109.155-.19.089-.19a.035.035 0 0 0-.035.034c0 .184-.371.27-.52.122-.11-.114-.117-.356-.015-.43.066-.047.09-.102.043-.098-.016 0-.063.04-.102.082m.125.219c0 .188.004.191.102.129.054-.031.078-.031.132 0 .04.023.07.043.079.043a.98.98 0 0 0 .015-.172l.008-.168h-.336v.168m.25-.07c.023.043-.07.117-.113.09-.059-.036-.04-.122.027-.122.04 0 .074.016.086.032m24.777.37c.07.005.184.005.25 0 .07-.007.016-.015-.125-.015-.136 0-.195.008-.125.016m-.714.043c-.036.023.007.027.136.011a.969.969 0 0 0 .2-.035c.03-.03-.29-.008-.336.024m1.378-.024c.008.008.09.024.184.035.113.012.145.008.102-.011-.067-.028-.313-.051-.286-.024m-18.011.078c-.012.012-.02.86-.016 1.883l.008 1.856.012-1.817c.004-1.285.02-1.832.047-1.863.027-.039.257-.047 1.214-.039l1.18.008.016 1.738.02 1.734.007-1.707c.004-.937 0-1.73-.012-1.761-.023-.055-2.422-.086-2.476-.032m16.297.012c-.067.043.054.043.152 0 .062-.027.059-.027-.016-.031a.283.283 0 0 0-.136.031m2.199 0c.101.043.219.043.152 0a.267.267 0 0 0-.133-.031c-.078.004-.078.004-.02.031m-2.433.07c-.043.028-.043.032 0 .032a.255.255 0 0 0 .102-.032c.043-.03.043-.035 0-.035a.212.212 0 0 0-.102.035m2.703 0c.102.043.184.043.118 0a.196.196 0 0 0-.118-.03h-.066l.066.03m-3 .086c-.172.079-.105.09.082.016.09-.035.133-.066.098-.066a.608.608 0 0 0-.18.05m3.22-.02c.026.02.073.032.1.032.044 0 .044-.004 0-.031a.212.212 0 0 0-.1-.035c-.044 0-.044.004 0 .035m-25.919.101a.488.488 0 0 0-.074.118c0 .015-.043.09-.094.168-.117.171-.387.734-.367.757.008.008.07-.105.14-.25.15-.324.407-.773.473-.828.035-.031.075-.015.192.067l.379.277c.128.09.34.246.468.34.13.094.34.246.473.336.129.094.277.207.332.254l.102.082-.11.23c-.062.125-.105.235-.094.242.012.012.118-.191.247-.468.007-.012-.082-.09-.196-.172-.113-.082-.308-.227-.437-.317-.13-.093-.371-.273-.54-.394a57.04 57.04 0 0 1-.523-.383c-.254-.187-.27-.187-.37-.059m26.198.004c.07.04.137.063.145.051.016-.015-.207-.125-.254-.121-.012 0 .04.031.11.07m-4.11.239c-.355.226-.832.703-1.078 1.086-.195.308-.48.898-.457.96.004.02.039-.039.074-.128.3-.813.895-1.547 1.582-1.954.125-.074.215-.136.195-.136-.02 0-.16.078-.316.172m4.48-.063c.43.277.59.399.81.61.386.37.66.761.905 1.292.063.137.117.23.117.204 0-.063-.195-.473-.308-.641a.955.955 0 0 1-.094-.164c0-.164-.906-1.04-1.328-1.277-.125-.07-.207-.09-.102-.024m-27.23 1.149c-.016.039-.016.082-.008.09.008.007.028-.016.04-.055.011-.043.015-.082.007-.094-.012-.008-.027.02-.039.059m-.07.203c-.012.039-.016.082-.004.09.008.011.027-.016.039-.055.012-.04.015-.082.008-.09-.012-.012-.028.016-.043.055m-.067.238c-.011.059-.015.113-.004.125.008.008.024-.031.04-.09.011-.058.015-.117.003-.125-.007-.008-.027.031-.039.09m-.058.25a.35.35 0 0 0-.024.121c.004.035.016.027.035-.027.02-.047.028-.098.02-.117-.004-.02-.02-.008-.031.023m2.547.078c-.012.047-.016.098-.008.106.011.007.027-.024.043-.075.011-.05.011-.097.004-.105-.008-.012-.028.023-.04.074m22.606.07c.059.008.164.008.234 0 .07-.007.024-.011-.109-.011-.129 0-.184.004-.125.011m-.395.043-.082.028.083.004a.245.245 0 0 0 .136-.032c.063-.039-.008-.039-.136 0m.957 0c.039.02.097.032.136.032h.067l-.067-.032a.426.426 0 0 0-.136-.027h-.067l.067.027m-23.239.137c-.011.059-.015.117-.008.125.012.008.028-.031.043-.09.012-.058.016-.113.004-.125-.008-.008-.027.031-.039.09m22.02-.047c-.063.028-.106.059-.098.07.012.008.078-.015.149-.05.148-.082.113-.094-.051-.02m1.472-.02c.028.016.07.032.102.032.043 0 .043-.004 0-.031a.226.226 0 0 0-.102-.035c-.046 0-.046.003 0 .035m-26.035.101a.65.65 0 0 0-.023.172c.004.07.008.067.035-.031a.511.511 0 0 0 .023-.168c-.007-.043-.02-.031-.035.027m26.25-.023c.305.195.516.437.66.746.036.078.055.105.043.058-.07-.296-.562-.859-.742-.847-.011 0 .004.02.04.043m-4.829.012c-.012.011-.02.054-.02.093 0 .067.005.063.036-.011.031-.082.023-.122-.016-.082m7.903.011c0 .028.015.074.035.102.027.047.03.047.03 0a.255.255 0 0 0-.03-.102c-.032-.047-.035-.047-.035 0m-5.18.215c-.196.195-.348.422-.313.457.008.008.043-.043.082-.117a1.63 1.63 0 0 1 .29-.344c.12-.117.206-.21.187-.21-.016 0-.129.097-.246.214m-2.79.004a.308.308 0 0 0-.019.117c0 .035.012.028.035-.027.016-.043.028-.098.02-.117-.008-.02-.024-.008-.035.027m8.039-.016c0 .028.015.082.031.121l.027.067.004-.067a.242.242 0 0 0-.03-.12c-.028-.044-.032-.044-.032 0M24.469 16c-.028.137-.02.77.008.875.011.043.023-.16.023-.45 0-.581 0-.577-.031-.425m-13.274.11c-.008.027-.011.16-.004.296l.012.254.008-.277c.004-.188.02-.285.047-.297.035-.012.035-.016 0-.02-.024 0-.051.02-.063.043m.508-.011c-.012.02.004.023.04.011.038-.015.046-.011.027.024-.016.031-.012.035.011.02.024-.012.04-.04.04-.055 0-.043-.09-.043-.118 0m4.633.007c-.031.086 0 .692.035.684.047-.012.063-.656.02-.703-.024-.023-.04-.016-.055.02m26.941.003a.527.527 0 0 0-.023.137c.004.07.004.07.035-.008a.271.271 0 0 0 .023-.136c-.007-.043-.015-.043-.035.007m8.176-.011c0 .027.012.09.027.136l.028.086.004-.086a.283.283 0 0 0-.032-.136c-.027-.043-.03-.043-.027 0m-35.074.52c-.008.097-.012.019-.012-.18 0-.196.004-.278.012-.176.008.097.008.258 0 .355m5.562-.023c0 .222.008.308.012.191.008-.117.008-.3 0-.406-.004-.11-.012-.012-.012.215M10.18 16.43l.004.129.023-.122.023-.117.02.117.016.122.004-.13c.003-.093-.008-.124-.043-.124-.04 0-.051.03-.047.125m1.61-.098-.087.027.09.016c.05.012.086.008.078-.008-.012-.012 0-.031.024-.043.062-.023-.012-.02-.106.008m1.406.148c-.008.106-.004.18.012.165.016-.012.023-.102.016-.192l-.008-.168-.02.195m.075.016c-.004.117.007.219.02.227.015.007.023-.055.015-.141-.016-.273-.032-.305-.035-.086m.308-.008c0 .114.008.157.012.094a.882.882 0 0 0 0-.203c-.008-.05-.012 0-.012.11m29.625 0c-.016.066-.016.132-.008.14.008.008.028-.04.04-.106.011-.07.015-.132.007-.14-.012-.012-.027.035-.039.105m2.535-.035c-.047.125-.082.277-.058.258.03-.027.125-.32.11-.336-.009-.008-.032.027-.052.078m5.797.106a.838.838 0 0 0 .035.183c.028.031.004-.222-.023-.285-.02-.047-.024-.012-.012.102m-37.129-.07c0 .003.051.015.117.023.063.008.106.004.098-.012-.016-.027-.215-.04-.215-.012m.707.145c0 .062-.023.078-.16.086l-.16.015.16.004c.164.008.223-.035.18-.136-.008-.024-.016-.012-.02.03m33.852-.023c0 .028.015.082.031.118l.027.07.004-.07a.239.239 0 0 0-.03-.118c-.028-.047-.032-.047-.032 0m-36.442.114c.016.015.086.023.157.015l.133-.011-.16-.016c-.087-.008-.145-.004-.13.012m2.915.015c.117.004.304.004.421 0 .114-.008.02-.015-.21-.015-.231 0-.325.007-.211.015m30.183.11c-.012.058-.016.113-.008.125.012.007.028-.032.043-.09.012-.059.016-.117.004-.125-.008-.008-.027.031-.039.09m-2.484.078a.6.6 0 0 0-.008.199c.008.027.027-.035.039-.137.016-.097.02-.187.008-.195-.008-.012-.028.05-.04.133m-10.859-.028a3.247 3.247 0 0 1-.023.239c-.016.117-.012.125.02.05a.605.605 0 0 0 .023-.238c-.008-.094-.016-.113-.02-.05m-15.949.003c-.023.012-.039.051-.039.09 0 .067 0 .067.066.008.098-.09.086-.14-.027-.098m13.442.13c-.012.07-.016.132-.004.144.007.012.027-.035.039-.106.015-.066.015-.133.004-.144-.008-.008-.028.039-.04.105m19.274.364c0 .308.008.44.023.355.032-.168.032-.652 0-.766-.011-.047-.023.137-.023.41m-34.883-.402c.02.031.152.031.203-.004.024-.015-.011-.023-.09-.023-.07 0-.12.012-.113.027m37.434.281c0 .149.008.207.011.125a1.551 1.551 0 0 0 0-.27c-.007-.07-.011-.003-.011.145m-27.074-.12c0 .046.011.117.027.156.027.058.031.058.031-.02a.48.48 0 0 0-.031-.152c-.024-.063-.027-.063-.027.015m21.05 2.227c0 1.75-.008 2.23-.043 2.246-.023.008-.015.016.02.02.055 0 .058-.125.058-2.247 0-1.234-.007-2.246-.02-2.246a83.72 83.72 0 0 0-.015 2.227m-23.601-2.04c0 .075.011.169.027.208l.027.066.004-.066c0-.04-.015-.133-.027-.207l-.031-.137v.137m7.742-.04c-.04.106-.031.192.012.118a.199.199 0 0 0 .023-.121c-.012-.055-.012-.05-.035.004m2.477.207c-.012.07-.016.133-.004.144.007.012.027-.039.039-.105.015-.067.015-.133.004-.145-.008-.007-.028.04-.04.106m-2.648.27c-.152.32-.375.613-.602.788-.195.153-.207.192-.015.055.3-.21.812-.95.758-1.094-.004-.015-.07.098-.14.25m13.546.532c0 .59-.012.785-.043.796-.023.012-.016.02.02.02.05.004.058-.059.058-.797 0-.441-.008-.8-.02-.8-.007 0-.015.35-.015.78m-32.996-.703c-.008.024-.012.426-.008.895l.008.848.02-.891c.015-.875.015-.941-.02-.852m14.558.016c.012.383 1.07 1.387 1.446 1.367.027 0 .011-.02-.035-.039-.047-.02-.153-.07-.235-.105a2.219 2.219 0 0 1-1.027-.992c-.117-.243-.149-.29-.149-.23m-2.617.144c0 .047.016.109.032.136.042.067.042-.05 0-.152-.028-.063-.028-.063-.032.016m10.09.07c-.012.039-.016.078-.008.09.012.008.028-.016.043-.059.012-.039.016-.078.004-.09-.008-.007-.027.016-.039.059M51.54 18a.652.652 0 0 0-.012.2c.024.023.063-.208.047-.302-.008-.05-.02-.011-.035.102m-2.555-.016a.41.41 0 0 0-.02.118c0 .035.013.027.036-.028.016-.043.027-.097.02-.117-.004-.02-.02-.008-.036.027m-11.367.04c0 .035.012.097.028.132l.03.07v-.07a.41.41 0 0 0-.03-.133l-.028-.07v.07m-15.52.032c0 .039.016.093.032.12.027.044.035.04.035-.019a.242.242 0 0 0-.035-.117c-.024-.043-.031-.039-.031.016m9.957.039c-.012.047-.012.097-.004.105.008.012.027-.023.039-.074.012-.047.015-.098.008-.105-.012-.012-.028.023-.043.074m-20.711.011c.054.067.05.137-.02.22-.058.07-.058.07.02.007.09-.078.094-.168.015-.227-.05-.039-.054-.039-.015 0m10.824.196c-.004.039.012.082.031.094.04.027.04-.008 0-.102-.031-.066-.031-.066-.031.008m29.297.105c-.012.063-.016.121-.004.133.023.023.062-.148.047-.203-.008-.023-.028.008-.043.07m-2.668.055c-.07.113-.242.285-.406.402l-.082.063.101-.051c.156-.074.559-.531.473-.531a.526.526 0 0 0-.086.117m-26.563.02c0 .027.032.113.063.187.035.074.062.113.062.086a.675.675 0 0 0-.062-.188c-.031-.074-.063-.113-.063-.086m9.684.036c-.012.039-.012.082-.004.09.008.007.027-.016.04-.055.01-.043.015-.082.007-.094-.012-.008-.027.02-.043.059m5.828-.051c0 .18.594.644.75.586.02-.012-.008-.028-.062-.043-.254-.07-.496-.246-.59-.434-.059-.113-.098-.16-.098-.11m-2.613.22c-.004.066.008.144.027.171.04.063.04-.027 0-.187l-.023-.102-.004.118m16.27-.02a.432.432 0 0 0-.02.117c0 .04.012.032.035-.023.016-.047.027-.102.02-.117-.004-.02-.02-.008-.036.023m-19.636.25c-.403.89-1.332 1.883-1.993 2.133-.035.012-.054.031-.043.043.012.012.098-.027.192-.086s.18-.106.183-.106c.133 0 .836-.648 1.16-1.066.22-.285.657-1.078.63-1.148-.004-.02-.063.086-.13.23m-3.23-.102c-.09.047-.152.094-.144.102.015.016.355-.152.355-.18 0-.027-.043-.011-.21.078m-17.599 0c.063.008.16.008.22 0 .062-.007.011-.015-.11-.015-.117 0-.168.008-.11.015m11.43.028c0 .394 1.106 1.664 1.797 2.058.2.118.102.032-.203-.171-.54-.36-1.195-1.122-1.473-1.711-.086-.172-.12-.23-.12-.176m28.937.152c-.032.082-.051.153-.043.164.02.02.12-.238.11-.277-.005-.02-.036.035-.067.113m-40.524.14c-.011.145-.008.25.008.24.016-.017.024-.134.016-.267l-.008-.234-.016.262m17.426-.176c-.043.031-.043.035 0 .035a.199.199 0 0 0 .102-.035c.046-.027.046-.031 0-.031a.217.217 0 0 0-.102.031m-14.312.059c.058.007.16.007.218 0 .059-.008.012-.012-.11-.012-.12 0-.167.004-.108.012m12.316.011c.102.043.184.043.117 0a.203.203 0 0 0-.117-.03h-.066l.066.03m1.762 0c-.067.043.02.043.117 0l.07-.03h-.07a.203.203 0 0 0-.117.03m20.03 0c-.023.04.013.04.102 0 .067-.03.067-.03-.003-.035-.043 0-.086.016-.098.035m-36.578.102c0 .062.008.09.015.058a.316.316 0 0 0 0-.12c-.007-.032-.015-.005-.015.062m23.77-.05c0 .034.015.089.03.116.044.067.044-.015 0-.117l-.027-.07-.004.07m-8.683.016a.54.54 0 0 0 .168.027c.097 0 .101 0 .02-.027-.126-.04-.278-.04-.188 0m1.074 0c-.086.039.05.039.203 0l.102-.028h-.118a.614.614 0 0 0-.187.028m11.05 0a.587.587 0 0 0 .184.027c.106 0 .11-.004.035-.027-.12-.04-.308-.04-.218 0m9.133 0-.067.027.067.004c.039 0 .09-.012.117-.031.066-.043-.016-.043-.117 0m-.825.18c-.082.078-.27.242-.414.363-.14.125-.336.293-.43.375a4.725 4.725 0 0 1-.265.222c-.188.133-.188.137.48.72.106.089.329.284.496.429.165.144.313.262.329.262.015 0 0-.02-.028-.043-.05-.04-.148-.125-.765-.672a24.3 24.3 0 0 1-.457-.399c-.149-.125-.16-.148-.118-.191a91.828 91.828 0 0 1 1.32-1.137c.055-.043.079-.074.052-.074-.024 0-.114.066-.2.144m4.18.149c-.402.848-1.223 1.61-2.043 1.898-.035.012-.05.032-.043.043.074.075 1.023-.52 1.363-.851.293-.285.899-1.203.832-1.27-.007-.008-.058.074-.109.18m-15.86-.106a.236.236 0 0 0 .028.118c.047.066.047-.016 0-.118l-.027-.07v.07m.195.543c0 .157.621.899.914 1.098.207.14.473.285.488.266.008-.008-.062-.055-.16-.106a2.907 2.907 0 0 1-1.086-1.047c-.117-.207-.156-.258-.156-.21m-10.543 1.413a.255.255 0 0 0 .102.032c.043 0 .043-.004 0-.032a.212.212 0 0 0-.102-.035c-.043 0-.043.004 0 .035m11.988-.02c0 .024.235.122.282.118.019 0-.024-.031-.098-.066-.14-.067-.184-.078-.184-.051m-11.586.152c.028.02.075.035.102.035.043 0 .043-.003 0-.035a.255.255 0 0 0-.102-.031c-.043 0-.043.004 0 .031m3.543 0-.066.032h.066c.04.003.09-.012.117-.032.067-.043-.015-.043-.117 0m8.414 0c.028.02.07.035.098.035.047 0 .047-.003 0-.035a.238.238 0 0 0-.098-.031c-.047 0-.047.004 0 .031m11.586 0c-.047.032-.047.035 0 .035.028 0 .07-.015.098-.035.047-.027.047-.031 0-.031a.238.238 0 0 0-.098.031m-23.308.07c.027.02.082.032.117.032l.07-.004-.07-.027c-.098-.043-.184-.043-.117 0m3.058 0c-.066.043.016.043.117 0l.067-.032h-.067c-.039 0-.09.012-.117.032m8.883 0c.098.043.184.043.117 0a.239.239 0 0 0-.117-.032h-.07l.07.032m11.149 0-.067.027.067.004c.035 0 .09-.012.117-.031.066-.043-.02-.043-.117 0m-22.77.066a.46.46 0 0 0 .152.031l.082-.004-.082-.027a.6.6 0 0 0-.152-.027h-.066l.066.027m2.402 0-.086.027h.086a.629.629 0 0 0 .168-.027l.082-.027h-.082a.629.629 0 0 0-.168.027m9.52 0a.41.41 0 0 0 .133.031H38l-.07-.031a.403.403 0 0 0-.133-.027h-.067l.067.027m10.578 0-.066.031h.066a.203.203 0 0 0 .117-.031c.067-.043-.015-.043-.117 0m-22.098.07c.04.016.153.028.254.028l.184-.004-.152-.028c-.211-.039-.375-.035-.286.004m1.446 0c-.13.024-.13.024.05.024a.944.944 0 0 0 .266-.024c.113-.035-.117-.035-.316 0m10.476-.004c.063.032.45.051.418.024a1.657 1.657 0 0 0-.25-.031c-.152-.016-.21-.012-.168.007m9.758.004c-.082.028-.082.028.016.028a.54.54 0 0 0 .168-.028c.09-.039-.063-.039-.184 0m-11.328 4.223.012 1.875-.32-.012c-.204-.008-.317 0-.31.024.012.035.466.062.587.035l.074-.02v-1.89c0-1.04-.012-1.887-.027-1.887-.012 0-.02.844-.016 1.875m19.387-.004c0 1.813 0 1.871.062 1.906.094.047.55.043.602-.008.047-.043.062-3.77.015-3.77-.015 0-.02.845-.015 1.872l.008 1.875-.313-.008-.309-.012-.011-1.835c-.004-1.446.004-1.84.035-1.864.031-.02.027-.027-.016-.027-.054 0-.058.113-.058 1.871m-33.063-1.469c.172.032.211.059.29.188.034.058.062.086.062.054 0-.125-.149-.242-.32-.253-.153-.012-.157-.012-.032.011m11.348.004c-.074.031-.18.176-.18.246 0 .024.027-.004.063-.062.078-.133.117-.156.289-.184l.132-.023-.117-.004a.634.634 0 0 0-.187.027m16.59 0c-.075.031-.184.176-.18.246 0 .024.027-.004.062-.062.079-.133.118-.156.29-.184l.132-.023-.117-.004a.634.634 0 0 0-.187.027m-28.239.117c-.09.118-.117.336-.05.38.023.015.027-.009.015-.067a.35.35 0 0 1 .106-.344c.05-.047.074-.086.05-.086-.02 0-.074.055-.12.117m12.046-.03c.102.093.14.218.11.343-.012.058-.008.082.015.066.102-.066-.047-.496-.176-.496-.02 0 .004.04.051.086m16.59 0c.238.219.102.594-.219.598-.12 0-.133.008-.078.039.172.101.457-.137.457-.387 0-.11-.14-.336-.21-.336-.02 0 .003.04.05.086m-28.055.434a.372.372 0 0 1-.093.12c-.04.036-.043.044-.004.036.058-.02.187-.188.16-.215-.012-.012-.04.012-.063.059m10.887-.055c-.004.055.129.219.176.219.023-.004.008-.028-.031-.063a.513.513 0 0 1-.106-.125c-.023-.039-.039-.05-.039-.031m16.59 0c-.004.055.129.219.176.219.023-.004.008-.028-.032-.063a.644.644 0 0 1-.109-.125c-.02-.039-.035-.05-.035-.031m-28.078.098c0 .097.297.215.39.16.055-.031.043-.04-.074-.04a.381.381 0 0 1-.226-.07c-.047-.039-.09-.062-.09-.05m12.062.054a.373.373 0 0 1-.218.067c-.118 0-.13.008-.075.039.07.043.266-.012.348-.098.074-.074.035-.082-.055-.008m19.176.653c-.152.097-.273.191-.273.203 0 .015.12-.059.273-.16.324-.22.27-.242.547.222.125.207.234.368.242.36.012-.008-.027-.082-.082-.164a1.06 1.06 0 0 1-.11-.18c-.03-.082-.277-.461-.3-.461-.012 0-.145.082-.297.18m-24.117-.078c-.067.046.05.046.152 0 .059-.024.059-.028-.02-.032a.332.332 0 0 0-.132.032m.754 0c.039.02.105.03.152.03.078 0 .078-.003.016-.03a.437.437 0 0 0-.149-.028c-.078 0-.078.004-.02.028m13.016.003c-.093.02-.07.024.114.028.129.004.226 0 .218-.008-.035-.031-.226-.043-.332-.02m7.454 0c-.094.02-.075.024.093.028.114.004.211 0 .211-.008 0-.027-.191-.039-.304-.02m-21.485.075c-.047.047-.055.527-.008.601.024.04.047.043.106.012.078-.04.078-.04-.016-.04l-.094-.003.012-.262c.008-.242.016-.27.094-.308.074-.035.078-.043.016-.043-.04 0-.086.02-.11.043m4.684.02c-.047.05-.055.167-.063.757l-.011.695h-1.188c-.68 0-1.195-.015-1.203-.03a.65.65 0 0 1-.047-.138l-.023-.105-.004.125c0 .066.015.137.039.156.058.047 2.41.051 2.469 0 .03-.023.042-.219.042-.746v-.707h.606v2.04l-.563.003c-8.394.008-10.68.016-10.667.04.03.05 11.171.03 11.238-.02.05-.043.058-.133.058-1.043 0-1.164.024-1.086-.375-1.09-.203 0-.265.011-.308.062m4.254-.035c-.02.012.101.024.277.024.172 0 .285-.008.254-.024-.078-.031-.484-.031-.531 0m4.668.047c-.18.086-.403.281-.465.406-.082.16-.059.156.047-.008.097-.16.332-.336.558-.418.078-.027.106-.05.067-.05a.638.638 0 0 0-.207.07m1.047.012c.09.047.214.14.277.21.058.067.11.106.11.087 0-.082-.403-.383-.512-.383-.024.004.03.039.125.086m6.445-.012c-.219.113-.54.496-.477.559.012.011.047-.04.078-.106a1.01 1.01 0 0 1 .465-.445c.094-.043.149-.078.121-.078a.638.638 0 0 0-.187.07m.941.008a.79.79 0 0 1 .383.36c.078.136.098.116.023-.028-.09-.172-.39-.414-.515-.414-.031 0 .016.039.11.082m-20.536.047c.203.14.344.304.453.527.133.27.16.258.035-.02-.082-.183-.445-.57-.53-.566-.024 0-.005.027.042.059m7.117.035a.947.947 0 0 0-.328.344c-.082.144-.015.109.082-.051a.991.991 0 0 1 .281-.274c.102-.062.168-.113.149-.113a.778.778 0 0 0-.184.094m1.047-.028c.07.036.172.114.227.172.058.059.105.094.105.075 0-.07-.32-.317-.41-.313-.023 0 .012.031.078.066m-16.558.98c0 .47-.012.923-.024 1.017-.012.093-.008.152.008.136.039-.035.074-1.996.039-1.996-.012 0-.023.38-.023.844m.664-.496c.015.637.027.695.035.172.004-.285-.008-.52-.02-.52-.015 0-.023.156-.015.348m30.332-.305c0 .012.152.254.336.535.183.285.336.5.336.48 0-.027-.606-.968-.657-1.019-.008-.011-.015-.008-.015.004m-9.067.16a.616.616 0 0 0 .032.121l.03.067v-.067a.242.242 0 0 0-.03-.12c-.028-.044-.032-.044-.032 0m-14.71.1c-.048.013.07.024.269.024.195 0 .316-.011.27-.027a1.562 1.562 0 0 0-.54.004m13.555-.004c-.04.016.031.027.172.023.187 0 .25.012.308.063.04.035.07.047.07.027 0-.105-.374-.183-.55-.113m7.629.027a.303.303 0 0 0 .133 0c.031-.008 0-.015-.075-.015-.074.004-.101.008-.058.015m.984 0c.008.09.059.164.063.09 0-.039-.016-.082-.031-.094-.02-.011-.036-.011-.032.004m-21.375.121a.71.71 0 0 1 .254.301c.055.102.094.164.094.14.004-.124-.176-.382-.336-.476-.184-.113-.191-.086-.012.035m7.887-.074c-.023.04.012.04.102 0 .066-.031.066-.031-.004-.031-.043-.004-.086.012-.098.031m.258.012c.047.02.117.058.152.086.031.023.02.004-.031-.043-.055-.05-.121-.09-.152-.086-.04 0-.028.016.03.043m4.411 0c-.063.047-.063.05.023.172.125.18.399.46.446.46.074 0 .32-.32.277-.363-.012-.011-.035.016-.05.063a.704.704 0 0 1-.137.18l-.106.101-.117-.117a2.428 2.428 0 0 1-.234-.277l-.114-.157.074-.054c.04-.028.06-.051.04-.055a.279.279 0 0 0-.102.047m7.613.031c-.039.043-.07.102-.07.13 0 .03.012.023.035-.02a.662.662 0 0 1 .11-.13c.039-.03.054-.058.035-.058-.02 0-.07.035-.11.078m.504.027c.043.067.086.11.09.09.008-.02-.027-.074-.078-.12l-.09-.09.078.12m-1.222.016c-.016.016-.024.067-.024.113l.004.09.031-.082c.035-.09.028-.16-.011-.12m4.734.218c.066.133.125.234.133.226.02-.02-.18-.418-.22-.445-.015-.008.024.09.087.219m-15.164-.117c0 .035.012.113.027.168l.028.101.003-.117a.385.385 0 0 0-.03-.172c-.028-.039-.032-.039-.028.02m4.91.035c-.035.152-.11.289-.25.465a.793.793 0 0 0-.133.187c0 .016 1.336.031 2.973.031l2.972.008-.003-.074a.623.623 0 0 0-.036-.16c-.023-.07-.027-.067-.015.039.008.078 0 .133-.024.14-.035.012-5.785.008-5.832-.003-.008-.004.032-.055.086-.118.192-.203.36-.535.305-.593-.012-.008-.031.027-.043.078m-6.242.015c-.012.04-.016.079-.008.09.012.008.027-.015.039-.058.016-.04.016-.078.008-.09-.008-.008-.028.015-.04.058m.657-.035c0 .028.016.075.031.102.032.047.032.047.032 0a.205.205 0 0 0-.032-.102c-.027-.047-.031-.047-.031 0m-1.324.055c-.028.07-.024.492.008.566.011.036.023-.093.023-.28 0-.368 0-.368-.031-.286m14.422.566-.004.637-1.149.004c-.632 0-2.465.004-4.07.008-1.61.004-2.879.015-2.824.027.281.063 8 .031 8.054-.031.063-.07.083-.879.024-1.148-.016-.09-.027.07-.031.503m-9.54-.578c0 .016.098.145.22.29.265.316.277.34.195.398-.035.027-.047.05-.028.05.172 0 .16-.097-.039-.34-.324-.402-.347-.425-.347-.398m8.168.16c0 .106.007.145.015.094a.753.753 0 0 0 0-.187c-.008-.051-.015-.008-.015.093m.691.137-.012.324-.218-.007c-.153-.008-.204 0-.168.023.23.156.472.012.468-.277-.008-.364-.054-.403-.07-.063m-19.805-.238c.004.027.016.09.032.137l.027.086v-.086a.284.284 0 0 0-.027-.137c-.032-.043-.032-.043-.032 0m6.715.297c-.008.14.176.32.324.312.036 0 .02-.015-.039-.039-.136-.047-.183-.086-.234-.21-.027-.055-.047-.087-.05-.063m-7.313.093a.425.425 0 0 1-.02.145c-.023.035-.832.04-3.738.031l-3.715-.015-.102-.098c-.054-.05-.093-.074-.085-.047.058.195-.16.184 3.937.2 4.152.011 3.832.03 3.754-.208l-.04-.11.009.102m19.738-.046c-.004.058.133.203.184.199.02 0 0-.027-.04-.059a.644.644 0 0 1-.109-.125c-.027-.054-.035-.054-.035-.015m4.25.082a.642.642 0 0 1-.316.664c-.07.035-.102.066-.07.066.241.008.538-.598.398-.816-.024-.035-.028-.012-.012.086m-16.09.136c-.133.051-.133.051-.02.032a.325.325 0 0 0 .153-.051c.039-.04.035-.04-.133.02m15.23-.016a6.122 6.122 0 0 1-.628.031c-.266 0-.48.012-.48.027 0 .043 1.202-.004 1.245-.05.024-.024.035-.043.028-.04-.008.004-.082.016-.164.032m-16.422.082c0 .156.414.535.578.527.023 0-.035-.039-.13-.082-.16-.074-.382-.293-.382-.383a.08.08 0 0 0-.035-.062c-.016-.012-.031-.012-.031 0m5.004.137c-.145.093-.504.48-.504.539.004.023.02.011.043-.028.086-.14.347-.402.484-.484a.771.771 0 0 0 .145-.098c0-.031-.055-.008-.168.07m.714.25c-.152.083-.32.211-.437.344-.184.203-.121.176.105-.047.301-.293.38-.324.594-.222.09.043.172.074.18.062.055-.054-.352-.183-.442-.137m-20.136.063c-.012.012-.024.078-.02.145v.12l.043-.124c.031-.102.047-.121.09-.094.078.05.117.039.047-.016-.07-.054-.125-.066-.16-.031m16.383.176a.5.5 0 0 0-.008.164c.027.027.066-.211.05-.266-.011-.027-.027.02-.042.102m13.359-.078c.016.043 1.195.062 1.34.02.078-.02-.106-.036-.621-.044-.477-.008-.727 0-.72.024m-14.51.02c.073.015.179.015.253 0 .11-.028.094-.032-.125-.032s-.238.004-.129.031m.453.031c.02.079-.058.18-.207.278-.058.035-.082.062-.058.062.074 0 .238-.133.293-.238.062-.125.062-.172.004-.172-.032 0-.043.024-.032.07M22.488 28a.436.436 0 0 1-.16.121c-.055.02-.094.043-.082.05.035.036.219-.066.274-.151.07-.11.046-.125-.032-.02m19.64-.023c-.01.039-.015.082-.007.09.012.011.027-.016.043-.055.012-.043.012-.082.004-.09-.008-.012-.027.015-.04.055m-18.964.195a.916.916 0 0 1-.512.539c-.113.043-.175.082-.144.082.281.004.773-.5.722-.742-.003-.024-.035.031-.066.12m12.988-.081c-.117.074-.222.215-.218.305 0 .023.03-.016.07-.086a.485.485 0 0 1 .191-.196c.067-.035.102-.066.075-.066a.27.27 0 0 0-.118.043m.418-.02a.184.184 0 0 1 .075.055c.015.023.027.016.027-.02 0-.043-.024-.058-.074-.058-.051.004-.059.012-.028.023m19.563.082c-.067.055-.117.13-.117.16 0 .036.02.024.05-.039a.506.506 0 0 1 .176-.16c.07-.035.102-.066.067-.066-.032 0-.11.047-.176.105m.535-.05c.098.093.055.265-.066.277-.137.012-.25.074-.25.137 0 .039.011.039.046-.012.036-.05.09-.067.192-.067h.148l.008-.148c.012-.14-.031-.246-.101-.246-.016 0-.004.027.023.059m-18.234.046c-.059.024-.059.028.02.032a.332.332 0 0 0 .132-.032c.066-.043-.05-.043-.152 0m3.632.075c-.027.105-.023.336.012.418.016.043.027-.036.027-.211 0-.297-.007-.332-.039-.207m-20.097.289c.011.37.02.383.258.328l.12-.027-.167-.016-.168-.02-.008-.254c-.008-.21 0-.261.047-.3.054-.04.054-.043-.016-.043-.074 0-.074.011-.066.332m15.91-.305c0 .016.066.023.144.016.235-.02.254-.035.051-.04-.105 0-.195.008-.195.024m1.547.133a1.052 1.052 0 0 1-.32.273c-.235.13-.227.153.011.028a.906.906 0 0 0 .371-.317c.121-.176.067-.16-.062.016m-9.367.031c-.149.172-.145.352.011.512.192.191.625.086.625-.153 0-.035-.027-.011-.07.055a.334.334 0 0 1-.367.164c-.301-.047-.367-.465-.094-.633.066-.039.09-.066.055-.066-.032 0-.102.055-.16.121m.457-.027c.058.05.12.125.14.16.032.055.035.058.035.012.004-.063-.183-.266-.242-.266-.02 0 .008.043.067.094m5.82.11c-.078.077-.086.179-.023.233.035.028.039.012.03-.078-.015-.14.067-.199.223-.168.059.012.106.008.106-.011 0-.067-.266-.051-.336.023m19.656.067c0 .085.004.12.012.078a.498.498 0 0 0 0-.153c-.008-.043-.012-.008-.012.075m-13.207-.008c-.004.082.149.277.274.347.183.106.195.086.02-.03a.682.682 0 0 1-.224-.227c-.039-.075-.07-.114-.07-.09m-6.851.144c0 .016-.043.051-.094.078-.074.036-.094.07-.102.18-.015.211.016.223.57.211l.481-.008v-.375l-.203-.004c-.176-.004-.18 0-.031.012.18.016.215.047.218.184 0 .152-.058.168-.527.16l-.43-.012-.011-.145c-.008-.128 0-.148.074-.175.074-.028.129-.137.07-.137-.008 0-.015.012-.015.031m20.418-.008c0 .024.02.051.043.067.058.039.425.07.425.039 0-.016-.078-.027-.172-.027-.117 0-.195-.02-.238-.059-.031-.031-.058-.04-.058-.02m-.446.067c-.09.015-.093.023-.093.219v.199h.503c.278 0 .504-.012.504-.024 0-.015-.218-.023-.488-.015l-.484.011v-.175c0-.16.004-.172.082-.172.047 0 .086-.012.086-.031 0-.02-.004-.032-.008-.032a.63.63 0 0 1-.102.02m-17.203.043-.066.031h.066c.04.004.09-.012.117-.031.067-.043-.015-.043-.117 0m5.563.023c-.153.067-.114.094.043.028.152-.063.16-.059.27.156.105.207.105.246.01.316-.042.032-.062.055-.042.055.02 0 .07-.027.113-.063l.082-.062-.12-.234c-.13-.254-.173-.278-.356-.196m-6.383.02c-.004.066.367.082.535.023.05-.015-.023-.02-.195-.008-.22.016-.29.008-.313-.027-.023-.035-.027-.035-.027.012m6.058.094-.066.03h.066c.04.005.09-.01.118-.03.066-.043-.016-.043-.118 0m-1.761.058c0 .09.41.492.457.445.008-.007-.047-.058-.121-.105a.943.943 0 0 1-.223-.227c-.086-.132-.113-.16-.113-.113m1.156.012c.086.035.344.035.453 0 .059-.02-.016-.027-.215-.027-.199-.004-.281.007-.238.027m.723.543c-.043.031-.043.035 0 .035a.212.212 0 0 0 .101-.035c.047-.028.047-.031 0-.031a.255.255 0 0 0-.101.03m-.989.071a.569.569 0 0 0 .184.027l.117-.003-.101-.024c-.149-.039-.29-.039-.2 0m.672 0-.101.024.117.003a.385.385 0 0 0 .168-.027c.062-.043-.028-.043-.184 0M.95 30.02c0 .066.012.164.024.218.027.098.027.098.027-.031a.888.888 0 0 0-.027-.223c-.024-.078-.028-.074-.024.036m60.79.421c-.012.07-.016.133-.005.141.008.012.024-.039.04-.105.011-.07.015-.133.003-.141-.007-.012-.027.039-.039.105m-60.726.036c0 .117.058.226.058.12a.284.284 0 0 0-.027-.136c-.027-.043-.035-.04-.031.016m.062.257c0 .028.016.075.035.102.028.047.032.047.032 0a.255.255 0 0 0-.032-.102c-.03-.047-.035-.047-.035 0m.137.352c-.008.242.676 1.11 1.125 1.437.207.149.75.438.773.414.008-.011-.097-.07-.238-.14-.562-.27-1.46-1.106-1.46-1.36 0-.027-.2-.378-.2-.351m60.078.473c-.305.476-.375.546-1.016 1.058-.074.059-.074.059.024 0 .406-.238.894-.762 1.121-1.195.078-.149.008-.074-.129.137m-1.32 1.207c-.09.047-.157.093-.149.101.02.016.36-.152.36-.176 0-.027-.047-.011-.211.075m-.43.183c-.082.031-.117.063-.082.059a.666.666 0 0 0 .203-.063c.172-.082.078-.078-.12.004m-56.317.031a.255.255 0 0 0 .101.032c.047 0 .047-.004 0-.032a.212.212 0 0 0-.101-.035c-.043 0-.043.004 0 .035m.218.067c.04.016.098.031.137.031h.067l-.067-.031a.426.426 0 0 0-.137-.027h-.066l.066.027m55.746 0c-.062.027-.058.031.02.031a.24.24 0 0 0 .133-.031c.066-.043-.05-.043-.153 0m-55.41.07c.055.012.16.024.235.024.129 0 .129 0 .035-.024a1.044 1.044 0 0 0-.234-.027c-.13 0-.13 0-.036.027m54.957 0c-.07.024-.062.028.051.028a.855.855 0 0 0 .219-.028c.07-.023.062-.027-.05-.027a.855.855 0 0 0-.22.027"/><path style="stroke:none;fill-rule:evenodd;fill:#27d4dc;fill-opacity:1" d="M3.707.773c-.035.024 26.582.024 47.422 0C55.469.77 46.582.762 31.383.758 16.18.754 3.727.762 3.707.773m55.531.079c.274.066.325.07.184.02a.67.67 0 0 0-.215-.052c-.07.004-.062.012.031.032M3.215.91c-.09.027-.152.059-.145.067.012.015.356-.094.356-.114 0-.02-.04-.011-.211.047m-.79.402a.852.852 0 0 0-.175.137.81.81 0 0 0 .184-.11c.164-.109.21-.148.175-.148a3.58 3.58 0 0 0-.183.121m58.054.094c0 .004.051.055.11.11l.11.101-.098-.11c-.094-.105-.122-.128-.122-.1m-58.449.222c-.074.07-.172.172-.219.226-.046.055.02.004.145-.12a5.2 5.2 0 0 0 .227-.227c0-.02-.024-.004-.153.12m59.04.38c.156.187.16.191.124.12a.642.642 0 0 0-.133-.155l-.093-.082.101.117m-59.633.347c-.167.32-.23.45-.222.47.008.01.074-.106.152-.263.125-.246.18-.41.07-.207m-.32.743c-.058.191-.05.25.012.074a.498.498 0 0 0 .039-.18c-.004-.015-.027.031-.05.106m-.102.476c0 .082.007.117.015.074a.498.498 0 0 0 0-.152c-.008-.043-.015-.008-.015.078m60.734.086c.008.13.023.242.027.25.028.031.008-.355-.02-.422-.015-.039-.019.035-.007.172M.957 16.95c0 7.14.004 10.062.008 6.491.004-3.57.004-9.414 0-12.984-.004-3.57-.008-.648-.008 6.492M55.672 4.145c.098.003.254.003.351 0 .098-.008.02-.016-.175-.016-.196 0-.274.008-.176.016m-.563.074c-.03.02.004.023.102.011a.826.826 0 0 0 .164-.03c.031-.028-.219-.009-.266.019m-.254.093c-.101.024-.132.07-.035.055.047-.012.094-.031.106-.05.011-.016.015-.028.008-.024-.004 0-.04.012-.079.02m-.312.16c-.145.105-.184.152-.055.074.172-.11.235-.156.2-.156a.677.677 0 0 0-.145.082m2.613.043c.407.27.512.418.418.582l-.054.093.07-.086c.039-.046.07-.109.07-.136 0-.094-.555-.578-.66-.578-.016 0 .055.054.156.125m-3.027.308a2.988 2.988 0 0 0-.293.348l-.074.121.078-.102c.043-.058.18-.214.308-.351.13-.133.227-.246.22-.246-.009 0-.118.105-.24.23m3.298.485c-.04.058-.067.101-.055.101a.426.426 0 0 0 .09-.101c.039-.055.062-.102.055-.102-.012 0-.051.047-.09.102m-.14.195c-.06.07-.106.144-.087.144a.369.369 0 0 0 .086-.101c.082-.11.082-.137 0-.043m-1.785.101c-.008.016.094.024.223.02.41-.016.457-.031.117-.04-.18 0-.332.009-.34.02m-1.934.118a.473.473 0 0 1-.023.12c-.016.06-.016.06.02 0a.16.16 0 0 0 .023-.116c-.012-.055-.016-.055-.02-.004m3.524.062c-.04.059-.063.102-.055.102a.426.426 0 0 0 .09-.102c.04-.055.063-.101.055-.101-.012 0-.051.046-.09.101m-3.586.258c0 .074.008.102.016.059a.4.4 0 0 0 0-.137c-.008-.031-.016 0-.016.078m3.406-.02c-.05.059-.078.102-.062.102.015 0 .062-.043.101-.102.043-.054.07-.101.063-.101-.008 0-.051.047-.102.101M54.98 6c-.03.043-.097.227-.066.195.023-.027.125-.238.113-.238-.007 0-.027.02-.047.043m-1.507.434c0 .14.007.195.015.125s.008-.184 0-.254-.015-.012-.015.129m1.41.03c0 .141.008.2.015.13.008-.07.008-.184 0-.254-.007-.07-.015-.012-.015.125m-1.38.36c0 .073.009.1.017.058a.4.4 0 0 0 0-.137c-.008-.031-.016.004-.016.078m1.437.02c0 .031.04.09.09.136l.094.082-.07-.085a.569.569 0 0 1-.09-.137c-.016-.043-.02-.043-.024.004m.614.48c.023.016.5.024 1.066.02.563-.004.895-.012.738-.016-.695-.023-1.84-.023-1.804-.004m-19.817.02c.328.004.867.004 1.196 0 .328-.008.058-.012-.598-.012s-.926.004-.598.012m17.364 0c.109.004.273.004.37 0 .098-.008.008-.012-.195-.012s-.28.004-.175.012m-18.02.031c-.012.012-.02 2.473-.016 5.469l.008 5.449.02-5.461c.008-3.004.015-5.469.011-5.473 0-.004-.011.004-.023.016m2.547 5.32c0 2.91.004 4.102.008 2.645.004-1.453.004-3.836 0-5.29-.004-1.456-.008-.265-.008 2.645m15.21-4.629c0 .348.005.489.009.317a8.545 8.545 0 0 0 0-.633c-.004-.172-.008-.031-.008.316m1.27.739c.64.008 1.69.008 2.331 0 .645-.004.118-.008-1.164-.008-1.285 0-1.808.004-1.168.008m-.058.937c-.012.024-.016 2.715-.008 5.98l.008 5.942h2.586V9.72l-1.285-.012c-1.012-.008-1.29 0-1.301.035m2.57 5.95v5.953h-2.555V9.735h2.555v5.956m-34.348-3.449a.296.296 0 0 0 .118 0c.03-.008.007-.015-.059-.015s-.09.007-.059.015m-.21.106c-.067.058-.098.109-.075.109.024 0 .043.035.043.078.004.07.004.07.032.008.015-.043.011-.078-.012-.094-.067-.043.004-.066.078-.027.039.02.137.031.21.027l.145-.015-.168-.004c-.12-.004-.156-.016-.128-.043.019-.024.101-.035.175-.028.075.008.137.004.137-.011 0-.016.016-.028.04-.028.019 0 .026.024.015.051-.012.031 0 .043.03.027.04-.011.048 0 .04.063-.008.043-.008.062 0 .039s.031-.043.05-.043c.02 0 .009-.031-.027-.07-.074-.082-.203-.164-.168-.102.016.024-.027.035-.125.035-.085 0-.156-.015-.164-.039-.007-.023-.062.004-.128.067m-.125.277c0 .086.007.121.015.078a.498.498 0 0 0 0-.152c-.008-.043-.015-.008-.015.074m.203 0c0 .086.004.121.011.078a.334.334 0 0 0 0-.152c-.007-.043-.011-.008-.011.074m.355-.04a.986.986 0 0 0 0 .153c.004.063-.047.078-.078.024-.027-.043-.145-.043-.168 0-.012.015.012.02.047.011.039-.011.094 0 .121.024.027.023.062.035.074.02.028-.028.051-.325.024-.325-.008 0-.02.04-.02.094m.207-.043c0 .027-.015.05-.035.05-.05 0-.04.067.016.126.046.043.05.035.05-.09 0-.074-.007-.137-.015-.137-.012 0-.016.024-.016.051m-.437.031c0 .028.015.059.035.07.043.028.137-.046.113-.09-.031-.05-.148-.034-.148.02m-.235.172c0 .027-.02.05-.039.05-.023 0-.012.032.024.071.074.082.203.164.168.106-.016-.028.035-.04.152-.04.195 0 .191.055-.004.079l-.117.011.125.008c.172.008.394-.187.305-.265-.047-.04-.047-.04-.032.023.024.074-.066.18-.11.125-.023-.039-.339-.043-.339-.008 0 .016-.016.028-.035.028-.024 0-.031-.024-.02-.051.012-.031 0-.043-.03-.028-.044.016-.048 0-.032-.07.015-.05.015-.09.004-.09-.012 0-.02.024-.02.051m24.801.152c-.148.008.07.02.484.02.524 0 .664-.008.454-.023a5.791 5.791 0 0 0-.938.003m-.504.07-.137.024.118.004a.374.374 0 0 0 .168-.027c.054-.04.046-.04-.149 0m-15.84.023c.336.008.88.008 1.207 0 .328-.004.051-.008-.613-.008-.668 0-.934.004-.594.008m17.762 0a.378.378 0 0 0 .133 0c.031-.012 0-.015-.074-.015-.075 0-.102.007-.059.015m-15.918 1.281c.004.696.012 1.477.016 1.739.007.265.015-.297.02-1.246.003-.95-.005-1.735-.02-1.743-.012-.007-.02.555-.016 1.25m13.691-1.238c-.191.055-.3.098-.253.098.046.004.222-.047.355-.098.086-.035.031-.035-.102 0m-16.23 1.922a72.173 72.173 0 0 1-.023 1.992l-.02.086.035-.082c.024-.05.035-.726.027-1.988l-.007-1.914-.012 1.906m19-1.832.18.066c.066.028.125.04.125.032 0-.028-.239-.121-.297-.118-.047.004-.047.008-.008.02m-25.883.113c-.043.059-.07.102-.062.102.004 0 .05-.043.101-.102.047-.054.078-.101.063-.101-.016 0-.063.047-.102.101m22.469.04c-.078.034-.145.074-.145.085 0 .008.012.012.028.004.011-.008.082-.039.148-.074a.476.476 0 0 0 .13-.07c0-.024 0-.024-.161.054m3.969.082c.125.067.234.114.242.106.015-.016-.395-.227-.438-.227-.023 0 .067.055.196.121m-26.075-.039c0 .012.067.067.149.125.086.055.152.098.152.086a.79.79 0 0 0-.152-.12.561.561 0 0 0-.149-.09m-.503.132c-.024.043-.067.11-.094.152-.028.043-.043.079-.031.079.023 0 .199-.278.183-.293-.008-.008-.031.023-.058.062m22.296-.008c-.054.047-.062.059-.015.035.11-.054.168-.105.133-.101a.377.377 0 0 0-.118.066m-21.324.215c0 .016.258.211.36.274.12.07.02-.024-.157-.149a1.104 1.104 0 0 0-.203-.125m20.676.3c-.262.267-.566.642-.516.642.008 0 .094-.106.188-.239a3.96 3.96 0 0 1 .433-.476c.141-.13.247-.239.235-.239-.016 0-.168.141-.34.313m5.957.148c.172.176.324.32.332.32.012 0-.125-.144-.3-.32a4.014 4.014 0 0 0-.337-.324 5 5 0 0 0 .305.324M24.211 14c0 .008.078.07.172.14.094.07.164.11.152.09-.027-.043-.324-.253-.324-.23m.55.402c.055.043.13.106.169.137.058.047.062.066.03.102-.023.023-.042.058-.042.078 0 .02.023 0 .05-.043.067-.094.052-.117-.144-.246-.086-.059-.113-.07-.062-.028m26.015.164c.04.059.078.102.086.102.012 0-.015-.043-.054-.102a.454.454 0 0 0-.086-.101c-.012 0 .015.047.054.101m-6.941.11c-.113.199-.121.219-.063.144.067-.082.125-.183.106-.183-.008 0-.027.015-.043.039m7.074.07c0 .035.172.297.195.297.012 0-.039-.09-.148-.254-.027-.035-.047-.055-.047-.043m-7.281.316c-.102.211-.09.239.016.04.046-.094.078-.172.07-.18-.008-.008-.047.055-.086.14m-21.547 0c-.047.227-.05.27-.023.22.03-.055.078-.305.054-.305-.008 0-.023.039-.031.085m2.617.106a.528.528 0 0 0-.043.172c.004.023.035-.035.067-.13.062-.194.05-.222-.024-.042m-2.695.3c0 .075.008.102.016.06a.4.4 0 0 0 0-.137c-.008-.032-.016.004-.016.078m24.957.008c-.023.015.16.027.41.027.246 0 .422-.012.39-.024-.077-.03-.753-.035-.8-.003m1.082.113c.008.02.039.031.062.031a.46.46 0 0 1 .168.074c.067.04.118.063.118.051 0-.023-.207-.144-.293-.164-.043-.012-.067-.008-.055.008m-1.738.176c-.063.062-.086.086-.047.058.039-.031.105-.082.152-.113s.067-.055.047-.055c-.02 0-.09.051-.152.11m5.074-.008c.02.062.043.12.055.133.03.03-.024-.18-.059-.215-.016-.02-.012.02.004.082m-29.438.203c0 .14.004.2.012.129.008-.07.008-.184 0-.254s-.012-.016-.012.125m2.582-.05c0 .093.008.128.016.077a.632.632 0 0 0 0-.172c-.008-.039-.016 0-.016.094m24.036 0a.643.643 0 0 0 .132.121.49.49 0 0 0-.097-.12.702.702 0 0 0-.133-.118.442.442 0 0 0 .098.117m-2.54.13a.745.745 0 0 0-.097.128c-.027.055-.02.047.117-.113.043-.051.074-.094.063-.094a.314.314 0 0 0-.082.078m2.703.078c.02.035.058.098.09.133l.054.07-.035-.07a.849.849 0 0 0-.086-.133l-.055-.07.032.07m-24.23.305c0 .187.007.258.015.16.004-.098.004-.25 0-.34-.008-.09-.016-.008-.016.18m18.735-.152c0 .066.007.09.015.058a.296.296 0 0 0 0-.117c-.008-.035-.015-.008-.015.059m8.289.003a.744.744 0 0 0 .03.184c.02.043.024.008.013-.102-.024-.203-.043-.246-.043-.082m-29.61.32c0 .204.008.286.016.177.004-.11.004-.278 0-.375-.008-.098-.016-.008-.016.199m26.957-.239c0 .016.02.094.047.168.028.075.05.114.05.082 0-.03-.019-.109-.046-.171-.027-.063-.05-.098-.05-.079m-16.548.457c0 .18.008.25.016.165.004-.09.004-.235 0-.325-.008-.09-.016-.015-.016.16m10.844-.167c0 .082.008.117.016.074a.498.498 0 0 0 0-.153c-.008-.043-.016-.007-.016.079m8.43.082c0 .113.012.335.023.496.024.257.028.265.028.086a6.11 6.11 0 0 0-.024-.497c-.023-.257-.023-.265-.027-.085m-2.586.207c.004.093.008.125.016.074a.603.603 0 0 0 0-.168c-.008-.043-.016 0-.016.094m-24.48.015c0 .086.007.117.015.078a.524.524 0 0 0 0-.156c-.008-.039-.016-.004-.016.078m21.102.008c-.012.043-.016 1.113-.012 2.375l.008 2.297.016-2.363c.011-1.305.015-2.371.015-2.38-.004-.003-.015.028-.027.071m-2.527.281c0 .168.004.242.011.164a2.033 2.033 0 0 0 0-.308c-.004-.09-.011-.024-.011.144m-21.157-.015c0 .14.004.195.012.125s.008-.184 0-.254-.012-.012-.012.129m7.786-.07c0 .066.007.093.015.062a.316.316 0 0 0 0-.121c-.008-.032-.015-.004-.015.058m19.312.223c0 .113.008.152.016.094a.882.882 0 0 0 0-.203c-.008-.055-.016-.004-.016.109m-24.453-.102c-.004.07.07.305.105.344.012.012.008-.031-.011-.094-.02-.062-.047-.16-.063-.214-.02-.07-.027-.082-.031-.036m7.66.118c0 .086.008.12.016.078a.498.498 0 0 0 0-.153c-.008-.043-.016-.007-.016.075m-2.601.035a2.719 2.719 0 0 0-.04.172c-.015.05-.003.039.032-.035.027-.063.047-.141.039-.168-.004-.036-.016-.024-.031.03m21.949.376c0 .16.008.222.011.144.008-.078.008-.21 0-.289-.003-.082-.011-.015-.011.145m-19.407-.113c-.023.128-.05.238-.117.464-.043.145-.039.243.008.106.07-.219.168-.668.145-.688-.008-.008-.024.043-.035.117m10.878.641c0 .43.004.602.012.379.004-.219.004-.57 0-.781-.008-.211-.012-.028-.012.402m-21.062-.613c0 .074.008.101.016.058a.4.4 0 0 0 0-.136c-.008-.032-.016.004-.016.078m27 .07c.004.094.008.125.016.074a.632.632 0 0 0 0-.172c-.008-.039-.016.004-.016.098m-26.953.184c.027.148.047.176.047.066a.278.278 0 0 0-.035-.133c-.024-.035-.028-.015-.012.067m2.824.043c.078.14.395.484.527.578.055.039.004-.02-.12-.137a2.42 2.42 0 0 1-.329-.379c-.121-.191-.176-.234-.078-.062m24.059.07c-.02.297-.563.863-.84.879-.04 0-.043.008-.008.02.207.085.926-.669.867-.903-.016-.05-.016-.05-.02.004m-11.25.086c-.003.074.126.395.153.371a.436.436 0 0 0-.043-.125 1.17 1.17 0 0 1-.082-.219c-.02-.082-.027-.09-.027-.027m-8.532.164c-.062.066-.105.125-.097.133.008.008.066-.047.125-.121.133-.168.117-.176-.028-.012m22.371-.004c0 .074.008.102.016.059a.4.4 0 0 0 0-.137c-.008-.031-.016.004-.016.078m-16.418.203c0 .133.004.18.012.11.008-.07.008-.176 0-.239-.008-.058-.012 0-.012.13m-12.914-.067c.008.047.028.094.04.101.011.008.015-.023.007-.07-.008-.047-.027-.09-.039-.098-.015-.011-.02.02-.008.067m9.793-.035c-.007.027-.023.074-.03.105-.009.027-.005.043.01.035.02-.011.04-.058.048-.105.02-.094 0-.117-.028-.035m19.47.175a1.24 1.24 0 0 1-.024.137c-.02.059-.02.059.02 0a.22.22 0 0 0 .023-.133c-.016-.078-.016-.078-.02-.004m-13.582.028c.04.078.176.215.176.176a.597.597 0 0 0-.106-.133c-.058-.063-.09-.082-.07-.043m-15.605.008c0 .05.097.28.117.28.008 0-.008-.062-.04-.144-.062-.16-.077-.187-.077-.136m3.324.074c.047.039.098.07.117.07.035 0-.023-.047-.133-.101-.047-.024-.039-.012.016.03m9.562.247a.6.6 0 0 0 .032.164c.027.031.007-.223-.02-.27-.023-.03-.027.008-.012.106m-8.824.066c.047.028.297.047.266.02a.826.826 0 0 0-.164-.031c-.094-.012-.133-.008-.102.011m12.156 0a.366.366 0 0 0 .149.032c.129 0 .101-.02-.063-.043-.093-.016-.12-.012-.086.011m9.41-.004a.437.437 0 0 0-.132.051c-.032.031.207-.02.242-.054.016-.016.023-.028.016-.024-.008 0-.063.016-.125.027m-20.165.028c.043.008.11.008.153 0 .039-.008.008-.016-.078-.016-.082 0-.117.008-.075.016m23.57.027c-.07.211-.081.254-.05.235.016-.012.031-.047.031-.079 0-.03.016-.074.035-.097.02-.02.032-.059.024-.082-.008-.028-.024-.02-.04.023m-24.148.016-.402.02.383.003c.215.004.418-.008.453-.023.039-.016.047-.028.02-.024-.028 0-.235.012-.454.024m12.785.027a182.2 182.2 0 0 0 2.067 0c.566-.008.101-.012-1.035-.012-1.133 0-1.598.004-1.032.012m7.32-.004c.09.008.231.008.321 0 .086-.004.016-.012-.16-.012s-.246.008-.16.012m-.426.238c-.187.176-.191.18-.031.051.156-.129.273-.246.242-.242-.004 0-.102.086-.211.191m-24.246-.015c.074.12.289.433.3.433a1.56 1.56 0 0 0-.14-.238 2.316 2.316 0 0 0-.168-.238c-.008 0-.004.02.008.043m23.824.375c-.101.094-.14.14-.082.101.094-.066.313-.28.281-.277a1.8 1.8 0 0 0-.199.176m4.488.172a7.404 7.404 0 0 1-.191.27c-.039.05-.062.093-.055.093.016 0 .254-.313.34-.45.106-.167.031-.1-.094.087m-19.687.015c-.07.09-.219.262-.328.383-.203.219-.203.219-.028.05.168-.155.532-.593.497-.593-.008 0-.07.07-.141.16m-8.148.094c.074.094.203.23.28.305.087.082.06.039-.07-.102-.304-.336-.37-.402-.21-.203m12.464.047c.04.074.082.145.102.156.016.012-.008-.05-.055-.133-.101-.191-.136-.207-.047-.023m10.414.078c-.129.121-.144.14-.05.07.125-.097.277-.25.246-.246-.004 0-.094.078-.196.176m4.496.36-.183.195.195-.188c.18-.172.207-.203.184-.203-.004 0-.094.086-.196.195m-4.742-.14c-.043.047-.023.074.22.285l.245.21-.234-.218c-.133-.129-.219-.238-.207-.262.027-.039.011-.05-.024-.015m-9.816.191c.09.11.172.196.18.196.023 0-.258-.336-.305-.364-.024-.015.035.063.125.168m14.125.309c-.102.078-.223.172-.27.203-.082.062-.082.062.016.004.172-.094.504-.36.445-.352-.004 0-.09.067-.191.145m-13.902-.102a.82.82 0 0 0 .109.11l.11.101-.102-.11c-.09-.105-.117-.128-.117-.1m10.074.097c0 .008.11.113.242.23.137.122.207.176.16.125-.09-.101-.402-.378-.402-.355m-16.219.148c-.152.11-.102.11.059 0 .066-.047.109-.086.09-.086-.02 0-.086.04-.149.086m-5.242.239c.047.023.11.047.137.047.027 0 0-.024-.063-.051-.144-.063-.184-.063-.074.004m12.043-.008c.074.05.183.098.183.074a.854.854 0 0 0-.23-.121c-.012 0 .008.023.047.047m-7.442.062-.152.063-.148.062-.086.04.086-.02a.736.736 0 0 0 .148-.047c.04-.016.129-.05.203-.082.074-.027.113-.05.086-.05a.468.468 0 0 0-.137.034m-4.382.032a.235.235 0 0 0 .101.039c.043.007.074.004.067-.008-.008-.016-.051-.031-.098-.043-.047-.008-.078-.004-.07.012m21.98.191.184.176.488-.004.488-.008-.488-.008c-.477-.011-.488-.015-.586-.105-.203-.184-.27-.223-.086-.051m-21.644-.078a.66.66 0 0 0 .203.05c.039-.003.015-.015-.051-.035-.215-.058-.285-.066-.152-.015m11.968.004c.063.027.137.05.168.047.032 0-.004-.024-.078-.047-.176-.067-.234-.063-.09 0m-8.644.086c-.09.023-.094.023-.016.027a.268.268 0 0 0 .133-.027c.059-.04.031-.04-.117 0m8.933-.004c.082.035.383.097.59.117.102.012.13.008.082-.012a.583.583 0 0 0-.187-.031 1.22 1.22 0 0 1-.219-.035c-.14-.043-.352-.074-.266-.04m-11.902.016a1.3 1.3 0 0 0 .168.032c.098.015.125.011.082-.008-.063-.031-.277-.05-.25-.024m.336.067c.008.008.098.02.2.031.116.012.16.008.116-.008-.062-.027-.343-.047-.316-.023m2.207.012a.378.378 0 0 0 .133 0c.031-.008 0-.016-.074-.016-.075 0-.102.008-.059.016m19.973.011c-.043.02-.008.024.101.008a.705.705 0 0 0 .18-.031c.031-.024-.219-.004-.281.023m-21.352.059c.207.004.55.004.758 0 .207-.008.035-.012-.379-.012-.414 0-.586.004-.379.012m13.352 0c1.011.004 2.66.004 3.66 0s.172-.008-1.84-.008-2.832.004-1.82.008m-4.153 2.277c-.031.031-.027 3.781.004 3.801.012.008.02-.84.016-1.887L36 23.961h.672l.016 3.742v-3.758l-.336-.011c-.188-.004-.348 0-.364.015m20.387.004.344.012v1.863c0 1.442-.008 1.871-.04 1.906-.034.04-.034.043.008.032.043-.016.051-.258.051-1.918v-1.903l-.355-.004h-.352l.344.012m-.387 1.883c-.008 1.867-.004 1.937.106 1.937.02 0 .008-.02-.024-.043-.05-.039-.054-.203-.062-1.898l-.012-1.855-.008 1.859m-33.187-1.512a.461.461 0 0 0-.207.2c-.02.035.008.015.062-.044a.4.4 0 0 1 .246-.144c.114-.02.125-.027.051-.027a.73.73 0 0 0-.152.015m11.59-.012a.607.607 0 0 0 .148.036c.09.011.117.007.086-.012-.047-.031-.266-.05-.234-.023m.367.148a.726.726 0 0 0 .09.113c.027 0-.055-.129-.114-.176-.035-.027-.027-.003.024.063m16.59 0a.726.726 0 0 0 .09.113c.027 0-.06-.129-.114-.176-.035-.027-.027-.003.024.063m-17.207.027c-.055.082-.078.375-.032.403.016.007.024-.059.016-.149-.008-.11.008-.191.047-.25.031-.05.047-.09.039-.09s-.04.04-.07.086m16.59 0c-.055.082-.079.375-.032.403.016.007.02-.059.016-.149-.008-.11.004-.191.047-.25.031-.05.047-.09.039-.09s-.043.04-.07.086m-27.426.246c-.008.098-.004.164.011.149.016-.016.024-.094.016-.176l-.012-.152-.015.18m-.766-.024c0 .062.02.148.047.184.027.035.047.05.047.03a.114.114 0 0 0-.031-.066.375.375 0 0 1-.043-.148l-.016-.121-.004.12m12.324.005c-.004.07-.02.137-.039.148a.074.074 0 0 0-.031.059c0 .023.023.008.05-.035a.291.291 0 0 0 .04-.188c-.016-.11-.016-.11-.02.016m16.594-.004c0 .062.004.09.016.059a.316.316 0 0 0 0-.122c-.012-.03-.016-.003-.016.063m-28.234.273a.403.403 0 0 1-.13.082c-.081.04-.085.047-.023.032.078-.02.246-.149.196-.149-.012 0-.032.016-.043.035m10.98.02c.04.039.106.082.152.094l.083.02-.086-.044a1.12 1.12 0 0 1-.153-.09c-.054-.043-.054-.039.004.02m16.59 0c.035.039.105.082.152.094l.082.02-.086-.044a.923.923 0 0 1-.152-.09c-.055-.043-.055-.039.004.02m3.062.61c-.199.132-.292.21-.292.257 0 .059.554.942.648 1.035.055.055 0-.039-.316-.52-.165-.245-.297-.476-.297-.511 0-.066.476-.398.574-.398.031 0 .05-.012.043-.028-.031-.047-.063-.027-.36.164m-23.84-.097c.118.007.297.007.403 0 .105-.004.012-.012-.211-.012s-.309.008-.191.012m-.38.043c-.093.027-.093.027-.015.03a.278.278 0 0 0 .133-.03c.058-.036.027-.036-.117 0m14.136 0a.907.907 0 0 0 .204.027c.082 0 .078-.004-.036-.027-.168-.036-.308-.036-.168 0m7.422 0a.907.907 0 0 0 .203.027c.082 0 .079-.004-.035-.027-.168-.036-.308-.036-.168 0m3.07.02a.78.78 0 0 0 .087.136l.054.066-.031-.066a.75.75 0 0 0-.09-.137l-.055-.07.036.07m-15.688.008c.059.008.156.008.219 0 .058-.008.008-.016-.11-.016-.12 0-.171.008-.109.016m12.055.027c-.051.028-.09.059-.09.07 0 .008.031-.003.074-.027.04-.02.121-.05.176-.062.09-.024.094-.028.016-.028a.383.383 0 0 0-.176.047m-21.176.024c-.043.043-.055.527-.012.593.012.02.02-.09.012-.25-.008-.19 0-.3.027-.335.051-.06.032-.067-.027-.008m8.875-.02a.38.38 0 0 0-.098.047c-.015.02.02.016.082 0 .172-.05.188-.086.016-.047m5.898.067c.043.03.13.097.184.144.059.05.035.024-.047-.055-.078-.078-.164-.144-.183-.144-.02 0 0 .023.046.055m-1.332.078c-.18.133-.27.238-.332.386-.074.176-.035.16.043-.02.059-.136.188-.273.375-.405.047-.032.075-.059.067-.059a.68.68 0 0 0-.153.098m-8.027.922c0 .55.008.777.012.5.008-.274.008-.727 0-1.004-.004-.274-.012-.047-.012.504m16.918-.868c.07.075.148.192.18.262.027.07.058.129.066.129.055 0-.105-.277-.226-.39l-.141-.137.121.136m-20.559.059c.082.09.153.16.16.16.024 0-.003-.027-.152-.172l-.156-.148.148.16m-8.27-.02.345.012v.524c0 .457.008.527.058.57.055.039.055.039.02-.008-.028-.035-.043-.23-.051-.578l-.008-.527h-.707l.344.007m-.379.915c0 .503.004.714.012.468.004-.246.004-.66 0-.918-.008-.258-.012-.058-.012.45m31.887-.86c0 .035.172.297.195.297.016 0-.039-.094-.148-.254-.024-.039-.047-.055-.047-.043m-14.977.063c0 .03.106.234.121.234.004 0 0-.027-.011-.059-.024-.07-.11-.203-.11-.175m5.059.047c.015.039.027.171.027.293.004.125.012.21.027.187.043-.066.024-.375-.027-.465-.031-.047-.039-.055-.027-.015m-6.805.109c-.07.144-.07.144-.055.144.024 0 .125-.21.11-.226-.004-.004-.031.031-.055.082m12.34.062-.031.102c-.008.031-.004.047.011.035.016-.008.04-.055.047-.105.016-.09 0-.118-.027-.032m-20.04.004a.322.322 0 0 0 .138 0c.03-.008-.004-.015-.079-.015-.074.004-.097.008-.058.015m13.469 0c.039.008.109.008.148 0 .043-.008.008-.011-.074-.011-.082 0-.117.003-.074.011m-13.805.035c.043.008.11.008.152 0 .043-.007.008-.015-.074-.015-.086 0-.117.008-.078.015m.656.008c.07.016.2.075.281.137.082.059.141.09.13.066-.051-.082-.337-.234-.434-.23-.098.004-.094.004.023.027m13.453.024c.063.043.075.082.067.168-.008.062-.004.105.011.097.086-.054-.02-.32-.125-.32-.015 0 .004.023.047.055m7.078-.028c-.007.012.051.02.133.012.114-.008.172.004.227.05l.074.063-.066-.074c-.063-.078-.328-.113-.368-.05m-19.398.007c0 .008.023.078.05.153.024.074.048.105.048.066 0-.055-.094-.273-.098-.219m7.02.024c-.086.03-.168.12-.168.175.003.036.015.028.035-.02.015-.042.078-.097.14-.124.102-.047.098-.07-.007-.031m1.109.03c0 .036.016.087.031.114.028.04.031.024.012-.05-.027-.126-.047-.153-.043-.063m12.43.047c0 .066.007.09.015.058a.296.296 0 0 0 0-.117c-.008-.035-.015-.008-.015.059m-13.211-.016c.039.027.074.078.078.11 0 .039.008.042.02.015.019-.05-.079-.18-.137-.18-.02 0-.004.028.039.055m-1.2.02a.473.473 0 0 1-.023.12c-.016.06-.016.06.02 0a.16.16 0 0 0 .023-.116c-.012-.055-.016-.055-.02-.004m4.84.062c0 .067.008.094.016.063a.316.316 0 0 0 0-.121c-.008-.032-.016-.008-.016.058m7.524.309v.355l-.114.024-.113.02.102.003c.16.008.168-.016.148-.402l-.02-.36-.003.36m-6.7-.188c.137.196.305.34.352.293.035-.035.031-.039-.012-.023-.039.015-.109-.04-.23-.176-.098-.11-.149-.152-.11-.094m7.407.117c0 .122.008.172.015.114a1.06 1.06 0 0 0 0-.223c-.007-.062-.015-.012-.015.11m.636.109-.007.328-.11.016-.11.011.11.008c.14.008.149-.016.133-.39l-.012-.301-.004.328m-11.648.402c0 .383.008.54.012.348.008-.192.008-.504 0-.695-.004-.192-.012-.036-.012.347m-1.402-.594c-.028.075-.028.227.004.278.015.02.023-.047.023-.149 0-.203 0-.207-.027-.129m.68.22c.007.222.003.269-.044.28-.043.016-.043.016.004.012.067-.004.11-.414.055-.512-.016-.027-.023.07-.016.22m-1.394-.016c0 .128.004.18.012.109.007-.07.007-.18 0-.238-.008-.063-.012-.004-.012.129m5.07-.043c.09.109.172.195.18.195.023 0-.254-.336-.3-.363-.024-.016.03.062.12.168m-11.015.007c0 .075.003.102.011.059a.322.322 0 0 0 0-.137c-.008-.031-.015.004-.011.078m12.789.059a1.088 1.088 0 0 1-.153.195c-.125.117-.082.137.258.13l.309-.005-.293-.011c-.325-.012-.328-.02-.215-.145.094-.102.207-.273.18-.273a.489.489 0 0 0-.086.109m10.507-.008c.016.063.04.121.051.133.031.031-.023-.18-.054-.215-.016-.02-.016.02.003.082m-24.004.102c0 .066.008.093.016.062a.316.316 0 0 0 0-.12c-.008-.032-.015-.009-.015.058m7.414.066c0 .031.128.156.144.137.004-.008-.027-.05-.066-.09-.043-.043-.078-.063-.078-.047m4.546.063c.063.078.032.175-.058.18-.024 0-.078.03-.125.07-.059.047-.035.043.094-.028.195-.101.21-.14.101-.234l-.074-.067.062.079M54.234 27c0 .027-.027.059-.058.07-.055.012-.055.016 0 .02.062.004.117-.086.082-.125-.012-.012-.024.004-.024.035m.782.094c0 .082.007.117.015.074a.498.498 0 0 0 0-.152c-.008-.043-.015-.008-.015.078m-31.547-.028c.015.016.281.024.593.02l.57-.012-.593-.015c-.328-.012-.582-.008-.57.007m7.472-.007c-.015.02-.367.035-.836.043l-.804.007.808.008c.688.008.817 0 .852-.043.047-.054.035-.07-.02-.015m-5.714.023a.316.316 0 0 0 .12 0c.032-.008.005-.016-.058-.016-.066 0-.094.008-.062.016m.773 0a.296.296 0 0 0 .117 0c.035-.008.008-.016-.058-.016-.063 0-.09.008-.059.016m.773 0a.296.296 0 0 0 .118 0c.03-.008.007-.016-.059-.016s-.09.008-.059.016m.774 0a.296.296 0 0 0 .117 0c.031-.008.004-.016-.059-.016-.066 0-.093.008-.058.016m.77 0a.316.316 0 0 0 .12 0c.032-.008.004-.016-.062-.016-.063 0-.09.008-.059.016m.774 0a.296.296 0 0 0 .117 0c.035-.008.008-.016-.059-.016-.062 0-.09.008-.058.016m4.398 0a.296.296 0 0 0 .117 0c.036-.008.008-.016-.058-.016-.063 0-.09.008-.059.016m.43.012-.184.02.172.007c.098.004.184-.012.196-.027.011-.02.015-.035.011-.032-.008.004-.093.016-.195.032m11.21-.012c.153.008.395.008.536 0 .145-.004.02-.012-.277-.012-.297 0-.414.008-.258.012m1.39 0a.296.296 0 0 0 .118 0c.031-.008.008-.016-.059-.016-.062 0-.09.008-.058.016m.773 0a.296.296 0 0 0 .117 0c.031-.008.004-.016-.058-.016-.067 0-.094.008-.059.016m.77 0a.316.316 0 0 0 .12 0c.032-.008.005-.016-.058-.016-.066 0-.094.008-.063.016m.774 0a.296.296 0 0 0 .117 0c.035-.008.008-.016-.058-.016-.063 0-.09.008-.06.016m.774 0a.296.296 0 0 0 .118 0c.03-.008.007-.016-.059-.016s-.09.008-.059.016m-24.816.035c.066.008.184.008.25 0 .07-.008.012-.015-.125-.015s-.195.007-.125.015m.754 0c.058.008.164.008.234 0s.024-.015-.11-.015c-.128 0-.183.007-.124.015m.773 0c.059.008.164.008.235 0 .07-.008.02-.015-.11-.015-.129 0-.187.007-.125.015m.77 0c.062.008.168.008.238 0 .067-.008.02-.015-.11-.015-.128 0-.187.007-.128.015m.773 0c.059.008.168.008.235 0 .07-.008.023-.015-.106-.015s-.187.007-.129.015m.774 0c.058.008.164.008.234 0s.02-.015-.11-.015c-.128 0-.183.007-.124.015m3.66 0c.062.008.16.008.219 0 .058-.008.011-.015-.11-.015-.12 0-.168.007-.11.015m.759 0c.066.008.18.008.25 0s.011-.015-.125-.015c-.14 0-.196.007-.125.015m13.011 0c.059.008.164.008.235 0 .07-.008.02-.015-.11-.015-.129 0-.183.007-.125.015m.754 0c.07.008.184.008.254 0s.012-.015-.125-.015c-.14 0-.195.007-.129.015m.79 0c.058.008.167.008.234 0 .07-.008.023-.015-.106-.015s-.187.007-.129.015m.758 0c.07.008.184.008.25 0 .07-.008.016-.015-.125-.015-.137 0-.195.007-.125.015m.79 0c.058.008.163.008.234 0 .07-.008.02-.015-.11-.015-.129 0-.187.007-.125.015m3.824-.004c-.03.032-.027.617.004.637.012.008.02-.129.016-.305l-.012-.316.516-.012.512-.012-.504-.007c-.282-.004-.52.004-.532.015m-15.27.203c0 .02.067.094.145.168l.145.137-.137-.152a3.703 3.703 0 0 1-.14-.168c-.008-.008-.012 0-.012.015m4.676.23c-.114.122-.207.231-.207.247 0 .012.004.02.008.012.007-.008.109-.117.226-.246.117-.125.203-.227.195-.227-.007 0-.109.098-.222.215m12.386.027c-.086.078-.12.125-.086.106.063-.035.282-.25.25-.246a1.22 1.22 0 0 0-.164.14m-31.382.13c.011.019.047.034.082.034s.074.016.086.035c.011.02.222.032.546.028l.528-.008-.504-.012c-.277-.004-.535-.023-.57-.039-.125-.058-.192-.07-.168-.039m14.789.012c.015.015.07.023.125.015.09-.011.086-.011-.032-.027-.07-.012-.113-.008-.093.012m.707.012c.07.035.031.148-.09.25-.07.062-.098.093-.059.074.172-.09.278-.309.157-.332-.024-.004-.028 0-.008.008m-13.676.07a.4.4 0 0 0 .137 0c.03-.008-.004-.016-.078-.016-.075 0-.098.008-.06.016m.774 0a.378.378 0 0 0 .133 0c.035-.008 0-.016-.074-.016s-.102.008-.059.016m.774 0c.039.008.101.008.133 0 .03-.008 0-.016-.075-.016-.074 0-.101.008-.058.016m.77 0a.4.4 0 0 0 .136 0c.031-.008-.004-.016-.078-.016-.07 0-.098.008-.059.016m.774 0a.4.4 0 0 0 .137 0c.03-.008-.004-.016-.079-.016-.074 0-.097.008-.058.016m.773 0a.378.378 0 0 0 .133 0c.035-.008 0-.016-.074-.016s-.102.008-.059.016m2.871 0a.296.296 0 0 0 .117 0c.032-.008.008-.016-.058-.016s-.09.008-.059.016m.774 0a.296.296 0 0 0 .117 0c.031-.008.004-.016-.059-.016-.066 0-.093.008-.058.016m.77 0a.296.296 0 0 0 .116 0c.036-.008.008-.016-.058-.016-.063 0-.09.008-.059.016m9.528.101-.114.13.125-.118a.752.752 0 0 0 .125-.129c0-.023-.027 0-.136.117m2.078-.101c.152.008.398.008.554 0 .149-.004.028-.012-.277-.012-.305 0-.43.008-.277.012m1.41 0a.378.378 0 0 0 .133 0c.031-.008 0-.016-.075-.016-.074 0-.101.008-.058.016m.773 0c.04.008.102.008.133 0 .031-.008-.004-.016-.078-.016-.07 0-.098.008-.055.016m.77 0a.4.4 0 0 0 .137 0c.03-.008-.004-.016-.079-.016-.074 0-.097.008-.058.016m.773 0a.378.378 0 0 0 .133 0c.035-.008 0-.016-.074-.016s-.102.008-.059.016m.774 0c.039.008.101.008.133 0 .03-.008 0-.016-.075-.016-.074 0-.101.008-.058.016m-7.48.14c-.024.06-.036.13-.024.165.012.05.015.046.02-.016 0-.043.019-.11.038-.148.02-.04.032-.075.02-.083-.008-.011-.031.028-.055.082m-18.867.055c0 .078.008.102.016.063a.4.4 0 0 0 0-.137c-.008-.035-.016 0-.016.074m-.824.035c-.05.047-.082.086-.063.086.016 0 .063-.039.106-.086.101-.109.078-.105-.043 0m13.73.035c-.035.028-.05.051-.03.051.019 0 .046-.015.066-.031.015-.02.128-.039.25-.047l.218-.012-.218-.003c-.149-.004-.243.007-.286.043m20.317-.028c.242.016.277.043.293.227l.015.14.004-.14c.008-.207-.05-.254-.308-.246l-.207.007.203.012m-13.621.098c-.016.05-.028.097-.02.105.008.008.031-.031.05-.09.044-.125.017-.14-.03-.015m-6.164.133c0 .113.004.156.011.093a.881.881 0 0 0 0-.203c-.008-.05-.011-.004-.011.11m2.863-.047c-.04.078-.043.097-.008.066.043-.035.098-.172.07-.172-.007 0-.035.047-.062.106m-17.492-.047a.4.4 0 0 0 .136 0c.032-.012-.003-.016-.078-.016-.074 0-.101.008-.058.016m15.808.02a1.662 1.662 0 0 0-.008.351l.012.3.008-.327.004-.332.523-.024-.261-.008c-.192-.004-.266.008-.278.04m-15.922.312c0 .168.004.242.012.164a2.033 2.033 0 0 0 0-.309c-.008-.09-.012-.023-.012.145m8.391-.266c.121.012.184.04.258.117.078.075.105.137.113.262l.012.16.008-.16c.007-.234-.16-.406-.391-.394l-.16.004.16.011m12.457.13c0 .058.02.14.047.187.035.054.043.062.031.02-.015-.04-.035-.126-.05-.188-.024-.117-.024-.117-.028-.02m-19.75.113c-.062.086-.082.133-.047.102.059-.055.195-.266.172-.266a1.11 1.11 0 0 0-.125.164m18.98-.062c0 .066.008.094.016.062a.316.316 0 0 0 0-.12c-.008-.032-.015-.005-.015.058m-6.122.102c0 .148-.007.168-.082.187-.046.012-.086.035-.086.05 0 .016.047.009.102-.019.09-.047.164-.386.082-.386a.483.483 0 0 0-.016.168m20.063.027c.004.125-.004.144-.063.148-.062.004-.062.004-.007.02.093.023.113-.024.086-.176l-.024-.137.008.145M29.934 28.5a.426.426 0 0 0-.004.145c.008.082.015.07.027-.047.016-.149.012-.18-.023-.098m26.418.078c0 .086.125.149.296.149h.172v.406l-.488.012-.484.007h.988v-.445l-.191-.008c-.153-.008-.204-.027-.243-.086-.027-.039-.05-.054-.05-.035m-20.008.078c.011.04.066.055.215.055l.195.004-.184-.012c-.101-.008-.195-.035-.21-.055-.02-.03-.024-.027-.016.008m2.554.074c-.062.016-.109.04-.109.047 0 .028.176-.023.215-.054.035-.035.039-.035-.106.007m16.891.2c0 .101.008.144.016.093a.753.753 0 0 0 0-.187c-.008-.05-.016-.008-.016.094m-33.508-.102c-.043.02-.008.024.102.008a.629.629 0 0 0 .18-.031c.03-.024-.215-.004-.282.023m14.535.102c0 .086.004.117.012.078a.524.524 0 0 0 0-.156c-.008-.04-.012-.008-.012.078m1.727-.114c.043.008.11.008.152 0 .043-.007.008-.011-.074-.011-.086 0-.117.004-.078.011m4.61.059a.43.43 0 0 0 .183.05c.102-.003.102-.003-.016-.027a3.393 3.393 0 0 1-.183-.05c-.043-.016-.04-.008.015.027m-5.144.012a.849.849 0 0 0 .199 0c.05-.008.004-.016-.11-.016-.109 0-.152.008-.09.016m4.13.043a.71.71 0 0 0 .133.195l.117.129-.106-.137a.587.587 0 0 1-.101-.176.088.088 0 0 0-.032-.062c-.015-.008-.023.012-.011.05m1.578-.011a.322.322 0 0 0 .137 0c.03-.008-.004-.016-.079-.012-.074 0-.097.004-.058.012m-13.375.078-.133.027.125.004c.066.004.133-.011.145-.03.011-.017.015-.032.007-.028-.004.004-.07.015-.144.027m5.39.098c0 .062.125.078.59.066l.434-.012-.469-.007c-.316-.004-.488-.02-.512-.047-.03-.032-.043-.032-.043 0m8.993.117c-.012.027-.102.09-.207.14a.961.961 0 0 0-.188.11c0 .012.012.012.027.004.344-.168.446-.238.403-.281-.012-.012-.028.003-.035.027m-2.282.102c.055.07.454.265.532.261.043-.004.035-.012-.024-.031a1.991 1.991 0 0 1-.449-.219c-.074-.047-.09-.05-.059-.012m1.72.196a.314.314 0 0 1-.134.039c-.07.004-.074.008-.015.02a.407.407 0 0 0 .183-.04c.063-.027.094-.05.067-.05a.255.255 0 0 0-.102.03m-.847.13c.097.004.253.004.351 0 .098-.008.02-.012-.176-.012-.195 0-.273.004-.175.012m18.457.5c0 .113.003.156.011.093a.882.882 0 0 0 0-.203c-.008-.05-.011 0-.011.11m-60.758.12a.49.49 0 0 0 .027.2c.016.031.024-.016.012-.117-.024-.23-.04-.266-.04-.082m60.677.312c-.012.075-.004.117.011.098.016-.016.024-.07.02-.125-.012-.09-.016-.09-.032.027m-60.613.032c0 .043.016.105.035.132.024.036.028.016.012-.07-.027-.144-.047-.172-.047-.062m60.512.304a.535.535 0 0 0-.043.168c.023 0 .117-.254.105-.297-.003-.023-.035.035-.062.13m-60.36.155c.051.125.083.18.083.141 0-.035-.102-.265-.118-.265-.007 0 .008.058.036.125m60.187.238c-.05.101-.078.176-.066.168.039-.024.187-.324.172-.34-.008-.008-.055.07-.106.172m-60.004.125c0 .039.262.422.305.449.02.012-.016-.05-.078-.14-.063-.094-.14-.204-.172-.25-.031-.047-.055-.075-.055-.06m59.742.305c-.05.067-.058.09-.02.063.056-.047.138-.176.114-.176-.008 0-.05.051-.094.113m-.367.43c-.219.219-.226.235-.07.102.148-.125.379-.38.332-.367-.004.003-.125.12-.262.265M1.93 32.121c.11.113.265.258.351.316.133.09.137.09.035.008a9.29 9.29 0 0 1-.351-.316l-.235-.219.2.211m58.468.371c-.062.051-.074.07-.03.051.062-.031.175-.145.144-.14a.574.574 0 0 0-.114.09m-57.328.402c.055.03.121.046.153.039.03-.008.023-.016-.024-.02-.039 0-.082-.016-.094-.035-.011-.02-.046-.035-.078-.035-.035 0-.02.02.043.05m.618.176c.039.012.109.012.148 0 .043-.008.008-.011-.074-.011-.082 0-.117.004-.075.011m55.243 0c.039.012.11.012.148 0 .043-.008.008-.011-.074-.011-.082 0-.117.004-.074.011m-41.172.07c7.504.005 19.781.005 27.285 0 7.504-.003 1.363-.007-13.645-.007-15.007 0-21.144.004-13.64.008"/></svg>