<?xml version="1.0" encoding="UTF-8"?>
<svg xmlns="http://www.w3.org/2000/svg" xmlns:xlink="http://www.w3.org/1999/xlink" width="66px" height="42px" viewBox="0 0 65 42" version="1.1">
<g id="surface1">
<path style=" stroke:none;fill-rule:nonzero;fill:rgb(0%,0%,0%);fill-opacity:1;" d="M 59.007812 0 L 5.804688 0 C 5.582031 0 5.359375 0 5.140625 0 C 4.953125 0.00390625 4.765625 0.00390625 4.578125 0.0117188 C 4.171875 0.0195312 3.761719 0.046875 3.359375 0.117188 C 2.953125 0.191406 2.574219 0.3125 2.203125 0.503906 C 1.835938 0.691406 1.503906 0.9375 1.214844 1.230469 C 0.925781 1.523438 0.683594 1.859375 0.5 2.230469 C 0.308594 2.605469 0.191406 2.988281 0.117188 3.402344 C 0.0429688 3.808594 0.0195312 4.222656 0.0078125 4.632812 C 0.00390625 4.824219 0.00390625 5.011719 0 5.199219 C 0 5.425781 0 5.648438 0 5.875 L 0 36.113281 C 0 36.335938 0 36.5625 0 36.785156 C 0.00390625 36.976562 0.00390625 37.164062 0.0078125 37.351562 C 0.0195312 37.761719 0.0429688 38.179688 0.117188 38.585938 C 0.191406 39 0.308594 39.382812 0.5 39.757812 C 0.683594 40.125 0.925781 40.464844 1.214844 40.757812 C 1.503906 41.050781 1.835938 41.292969 2.203125 41.480469 C 2.574219 41.671875 2.953125 41.792969 3.359375 41.867188 C 3.761719 41.941406 4.171875 41.964844 4.578125 41.976562 C 4.765625 41.980469 4.953125 41.984375 5.140625 41.984375 C 5.359375 41.984375 5.582031 41.984375 5.804688 41.984375 L 59.007812 41.984375 C 59.230469 41.984375 59.453125 41.984375 59.671875 41.984375 C 59.859375 41.984375 60.046875 41.980469 60.234375 41.976562 C 60.640625 41.964844 61.050781 41.941406 61.453125 41.867188 C 61.859375 41.792969 62.238281 41.671875 62.609375 41.480469 C 62.976562 41.292969 63.308594 41.050781 63.597656 40.757812 C 63.886719 40.464844 64.128906 40.125 64.3125 39.757812 C 64.503906 39.382812 64.621094 39 64.695312 38.585938 C 64.769531 38.179688 64.792969 37.761719 64.800781 37.351562 C 64.808594 37.164062 64.808594 36.976562 64.8125 36.785156 C 64.8125 36.5625 64.8125 36.335938 64.8125 36.113281 L 64.8125 5.875 C 64.8125 5.648438 64.8125 5.425781 64.8125 5.199219 C 64.808594 5.011719 64.808594 4.824219 64.800781 4.632812 C 64.792969 4.222656 64.769531 3.808594 64.695312 3.402344 C 64.621094 2.988281 64.503906 2.605469 64.3125 2.230469 C 64.128906 1.859375 63.886719 1.523438 63.597656 1.230469 C 63.308594 0.9375 62.976562 0.691406 62.609375 0.503906 C 62.238281 0.3125 61.859375 0.191406 61.453125 0.117188 C 61.050781 0.046875 60.640625 0.0195312 60.234375 0.0117188 C 60.046875 0.00390625 59.859375 0.00390625 59.671875 0 C 59.453125 0 59.230469 0 59.007812 0 Z M 59.007812 0 "/>
<path style=" stroke:none;fill-rule:nonzero;fill:rgb(100%,100%,100%);fill-opacity:1;" d="M 59.007812 1.398438 L 59.664062 1.402344 C 59.839844 1.402344 60.015625 1.402344 60.195312 1.410156 C 60.503906 1.417969 60.867188 1.433594 61.207031 1.496094 C 61.5 1.550781 61.746094 1.628906 61.984375 1.753906 C 62.21875 1.871094 62.429688 2.03125 62.617188 2.21875 C 62.804688 2.410156 62.960938 2.625 63.082031 2.863281 C 63.203125 3.101562 63.28125 3.351562 63.335938 3.648438 C 63.394531 3.988281 63.410156 4.355469 63.417969 4.671875 C 63.425781 4.851562 63.425781 5.027344 63.429688 5.210938 C 63.429688 5.433594 63.429688 5.652344 63.429688 5.875 L 63.429688 36.113281 C 63.429688 36.332031 63.429688 36.554688 63.429688 36.78125 C 63.425781 36.957031 63.425781 37.136719 63.417969 37.3125 C 63.410156 37.628906 63.394531 37.996094 63.332031 38.339844 C 63.28125 38.636719 63.203125 38.882812 63.082031 39.121094 C 62.960938 39.359375 62.804688 39.578125 62.617188 39.765625 C 62.429688 39.957031 62.21875 40.113281 61.980469 40.234375 C 61.746094 40.355469 61.5 40.4375 61.210938 40.492188 C 60.863281 40.550781 60.488281 40.570312 60.203125 40.578125 C 60.023438 40.582031 59.84375 40.585938 59.660156 40.585938 C 59.445312 40.585938 59.226562 40.585938 59.007812 40.585938 L 5.804688 40.585938 C 5.800781 40.585938 5.796875 40.585938 5.796875 40.585938 C 5.582031 40.585938 5.363281 40.585938 5.144531 40.585938 C 4.96875 40.585938 4.789062 40.582031 4.617188 40.578125 C 4.324219 40.570312 3.949219 40.554688 3.605469 40.492188 C 3.3125 40.4375 3.066406 40.355469 2.828125 40.234375 C 2.59375 40.113281 2.378906 39.957031 2.191406 39.765625 C 2.007812 39.578125 1.851562 39.363281 1.730469 39.121094 C 1.609375 38.882812 1.53125 38.636719 1.476562 38.335938 C 1.417969 37.996094 1.398438 37.628906 1.390625 37.316406 C 1.386719 37.136719 1.386719 36.957031 1.382812 36.777344 L 1.382812 5.210938 C 1.386719 5.03125 1.386719 4.851562 1.390625 4.671875 C 1.398438 4.359375 1.417969 3.992188 1.476562 3.648438 C 1.53125 3.351562 1.609375 3.101562 1.730469 2.863281 C 1.851562 2.625 2.003906 2.410156 2.191406 2.21875 C 2.378906 2.03125 2.59375 1.875 2.828125 1.753906 C 3.066406 1.628906 3.3125 1.550781 3.605469 1.496094 C 3.941406 1.433594 4.304688 1.417969 4.617188 1.410156 C 4.792969 1.402344 4.972656 1.402344 5.148438 1.402344 L 5.804688 1.398438 L 59.007812 1.398438 "/>
<path style=" stroke:none;fill-rule:nonzero;fill:rgb(0%,0%,0%);fill-opacity:1;" d="M 17.695312 14.121094 C 18.25 13.417969 18.625 12.476562 18.527344 11.511719 C 17.714844 11.554688 16.722656 12.054688 16.148438 12.757812 C 15.632812 13.359375 15.175781 14.34375 15.296875 15.265625 C 16.207031 15.34375 17.117188 14.804688 17.695312 14.121094 "/>
<path style=" stroke:none;fill-rule:nonzero;fill:rgb(0%,0%,0%);fill-opacity:1;" d="M 18.515625 15.445312 C 17.191406 15.367188 16.066406 16.207031 15.433594 16.207031 C 14.800781 16.207031 13.832031 15.484375 12.785156 15.503906 C 11.421875 15.527344 10.15625 16.304688 9.464844 17.546875 C 8.039062 20.027344 9.089844 23.710938 10.472656 25.730469 C 11.144531 26.730469 11.953125 27.832031 13.019531 27.792969 C 14.027344 27.753906 14.425781 27.132812 15.648438 27.132812 C 16.875 27.132812 17.230469 27.792969 18.296875 27.773438 C 19.40625 27.753906 20.097656 26.773438 20.769531 25.769531 C 21.539062 24.632812 21.855469 23.53125 21.875 23.46875 C 21.855469 23.449219 19.742188 22.628906 19.722656 20.167969 C 19.699219 18.105469 21.382812 17.125 21.460938 17.066406 C 20.511719 15.644531 19.027344 15.484375 18.515625 15.445312 "/>
<path style=" stroke:none;fill-rule:nonzero;fill:rgb(0%,0%,0%);fill-opacity:1;" d="M 30.046875 12.65625 C 32.925781 12.65625 34.929688 14.664062 34.929688 17.585938 C 34.929688 20.519531 32.882812 22.539062 29.972656 22.539062 L 26.789062 22.539062 L 26.789062 27.667969 L 24.484375 27.667969 L 24.484375 12.65625 Z M 26.789062 20.582031 L 29.429688 20.582031 C 31.433594 20.582031 32.574219 19.492188 32.574219 17.597656 C 32.574219 15.703125 31.433594 14.625 29.441406 14.625 L 26.789062 14.625 Z M 26.789062 20.582031 "/>
<path style=" stroke:none;fill-rule:nonzero;fill:rgb(0%,0%,0%);fill-opacity:1;" d="M 35.53125 24.558594 C 35.53125 22.644531 36.980469 21.46875 39.550781 21.324219 L 42.511719 21.144531 L 42.511719 20.304688 C 42.511719 19.085938 41.699219 18.359375 40.34375 18.359375 C 39.058594 18.359375 38.253906 18.980469 38.058594 19.960938 L 35.960938 19.960938 C 36.085938 17.984375 37.75 16.527344 40.425781 16.527344 C 43.046875 16.527344 44.722656 17.929688 44.722656 20.125 L 44.722656 27.667969 L 42.59375 27.667969 L 42.59375 25.867188 L 42.542969 25.867188 C 41.914062 27.085938 40.546875 27.855469 39.128906 27.855469 C 37.011719 27.855469 35.53125 26.523438 35.53125 24.558594 Z M 42.511719 23.570312 L 42.511719 22.707031 L 39.847656 22.871094 C 38.523438 22.964844 37.773438 23.558594 37.773438 24.496094 C 37.773438 25.453125 38.554688 26.078125 39.746094 26.078125 C 41.296875 26.078125 42.511719 24.996094 42.511719 23.570312 Z M 42.511719 23.570312 "/>
<path style=" stroke:none;fill-rule:nonzero;fill:rgb(0%,0%,0%);fill-opacity:1;" d="M 46.730469 31.695312 L 46.730469 29.875 C 46.894531 29.914062 47.265625 29.914062 47.449219 29.914062 C 48.476562 29.914062 49.03125 29.476562 49.371094 28.355469 C 49.371094 28.332031 49.566406 27.6875 49.566406 27.679688 L 45.660156 16.722656 L 48.066406 16.722656 L 50.800781 25.628906 L 50.84375 25.628906 L 53.578125 16.722656 L 55.921875 16.722656 L 51.871094 28.238281 C 50.945312 30.894531 49.875 31.746094 47.636719 31.746094 C 47.449219 31.746094 46.894531 31.726562 46.730469 31.695312 Z M 46.730469 31.695312 "/>
</g>
</svg>
