<?xml version="1.0" encoding="UTF-8"?>
<svg xmlns="http://www.w3.org/2000/svg" xmlns:xlink="http://www.w3.org/1999/xlink" width="77px" height="138px" viewBox="0 0 77 138" version="1.1">
<g id="surface1">
<path style=" stroke:none;fill-rule:nonzero;fill:rgb(90.196079%,0%,0%);fill-opacity:1;" d="M 56.582031 58.082031 L 39.25 75.359375 C 37.882812 76.722656 35.667969 76.722656 34.300781 75.359375 L 16.871094 57.988281 C 15.289062 56.40625 15.289062 53.84375 16.871094 52.265625 C 18.457031 50.683594 21.027344 50.683594 22.613281 52.265625 L 34.023438 63.640625 C 35.542969 65.15625 38.007812 65.15625 39.527344 63.640625 L 50.941406 52.265625 C 52.648438 50.5625 55.5 50.695312 57.027344 52.660156 C 58.292969 54.285156 58.039062 56.628906 56.582031 58.082031 Z M 76.789062 63.492188 C 76.785156 59.960938 75.375 56.574219 72.871094 54.078125 L 68.367188 49.589844 C 68.300781 49.527344 68.234375 49.472656 68.167969 49.410156 L 56.757812 38.03125 C 55.238281 36.515625 52.773438 36.515625 51.253906 38.03125 L 39.839844 49.410156 C 38.121094 51.125 35.230469 50.976562 33.710938 48.960938 C 32.488281 47.335938 32.757812 45.027344 34.199219 43.589844 L 51.53125 26.3125 C 52.898438 24.949219 55.113281 24.949219 56.480469 26.3125 L 66.792969 36.589844 L 70.476562 32.730469 C 73 30.085938 74.410156 26.578125 74.414062 22.929688 C 74.414062 18.277344 73.351562 14.25 71.226562 10.839844 C 69.101562 7.4375 66.265625 4.777344 62.726562 2.867188 C 59.183594 0.953125 55.246094 0 50.914062 0 L 15.214844 0 C 6.902344 0 0.160156 6.71875 0.160156 15.007812 L 0.160156 75.023438 C 0.160156 81.769531 5.644531 87.238281 12.414062 87.238281 L 52.414062 87.238281 C 56.914062 87.238281 60.996094 86.261719 64.664062 84.308594 C 68.332031 82.359375 71.269531 79.59375 73.476562 76.023438 C 75.683594 72.449219 76.789062 68.296875 76.789062 63.558594 Z M 76.789062 63.492188 "/>
<path style=" stroke:none;fill-rule:nonzero;fill:rgb(90.196079%,0%,0%);fill-opacity:1;" d="M 4.304688 107.09375 C 4.527344 106.867188 4.710938 106.605469 4.84375 106.300781 C 4.976562 106 5.046875 105.675781 5.046875 105.339844 C 5.046875 105 4.976562 104.679688 4.84375 104.367188 C 4.710938 104.058594 4.527344 103.789062 4.304688 103.566406 C 4.078125 103.339844 3.808594 103.160156 3.5 103.023438 C 3.1875 102.890625 2.863281 102.824219 2.523438 102.824219 C 2.183594 102.824219 1.859375 102.890625 1.546875 103.023438 C 1.238281 103.160156 0.96875 103.339844 0.742188 103.566406 C 0.515625 103.789062 0.335938 104.058594 0.199219 104.367188 C 0.0664062 104.679688 0 105 0 105.339844 C 0 105.675781 0.0664062 106 0.199219 106.300781 C 0.335938 106.605469 0.515625 106.867188 0.742188 107.09375 C 0.96875 107.320312 1.238281 107.5 1.546875 107.632812 C 1.859375 107.765625 2.183594 107.832031 2.523438 107.832031 C 2.863281 107.832031 3.1875 107.765625 3.5 107.632812 C 3.808594 107.5 4.078125 107.320312 4.304688 107.09375 Z M 4.304688 107.09375 "/>
<path style=" stroke:none;fill-rule:nonzero;fill:rgb(90.196079%,0%,0%);fill-opacity:1;" d="M 4.304688 114.160156 C 4.527344 113.933594 4.710938 113.667969 4.84375 113.367188 C 4.976562 113.0625 5.046875 112.742188 5.046875 112.40625 C 5.046875 112.050781 4.976562 111.722656 4.84375 111.421875 C 4.710938 111.117188 4.527344 110.851562 4.304688 110.617188 C 4.078125 110.386719 3.808594 110.203125 3.5 110.070312 C 3.1875 109.9375 2.863281 109.867188 2.523438 109.867188 C 2.183594 109.867188 1.859375 109.9375 1.546875 110.070312 C 1.238281 110.203125 0.96875 110.386719 0.742188 110.617188 C 0.515625 110.851562 0.335938 111.117188 0.199219 111.421875 C 0.0664062 111.722656 0 112.050781 0 112.40625 C 0 112.742188 0.0664062 113.0625 0.199219 113.367188 C 0.335938 113.667969 0.515625 113.933594 0.742188 114.160156 C 0.96875 114.382812 1.238281 114.5625 1.546875 114.699219 C 1.859375 114.832031 2.183594 114.898438 2.523438 114.898438 C 2.863281 114.898438 3.1875 114.832031 3.5 114.699219 C 3.808594 114.5625 4.078125 114.382812 4.304688 114.160156 Z M 4.304688 114.160156 "/>
<path style=" stroke:none;fill-rule:nonzero;fill:rgb(90.196079%,0%,0%);fill-opacity:1;" d="M 48.625 109.976562 C 48.625 110.425781 48.257812 110.789062 47.808594 110.789062 L 45.375 110.808594 C 44.9375 110.8125 44.589844 110.46875 44.566406 110.039062 L 44.566406 110.941406 L 44.5625 100.652344 C 44.5625 100.652344 44.5625 100.652344 44.5625 100.65625 L 44.5625 99.816406 C 44.5625 99.804688 44.558594 99.796875 44.558594 99.785156 L 44.558594 99.777344 C 44.535156 98.75 43.699219 97.925781 42.664062 97.925781 L 42.449219 97.925781 C 41.414062 97.929688 40.578125 98.753906 40.558594 99.78125 L 40.550781 99.78125 L 40.558594 110.945312 L 40.558594 110.917969 L 40.574219 110.917969 C 40.601562 111.515625 40.683594 112.042969 40.824219 112.492188 C 41 113.046875 41.261719 113.503906 41.601562 113.863281 C 41.945312 114.222656 42.367188 114.484375 42.863281 114.65625 C 43.359375 114.820312 43.925781 114.90625 44.570312 114.90625 L 46.308594 114.90625 L 48.644531 114.886719 L 52.699219 114.882812 L 54.765625 114.878906 L 60.816406 114.878906 L 64.828125 114.875 L 71.082031 114.871094 L 71.503906 114.871094 L 72.957031 114.867188 L 72.960938 114.867188 C 74.253906 114.867188 75.246094 114.519531 75.9375 113.832031 C 76.609375 113.15625 76.953125 112.0625 76.96875 110.550781 C 76.96875 110.511719 76.972656 110.476562 76.972656 110.4375 L 76.96875 104.957031 C 76.96875 104.945312 76.964844 104.933594 76.964844 104.921875 L 76.964844 104.753906 C 76.964844 103.710938 76.117188 102.863281 75.066406 102.867188 L 74.851562 102.867188 C 73.804688 102.867188 72.953125 103.714844 72.957031 104.757812 L 72.957031 104.898438 C 72.953125 104.917969 72.949219 104.9375 72.949219 104.957031 L 72.953125 110.148438 C 72.90625 110.554688 72.574219 110.875 72.15625 110.875 L 70.773438 110.875 L 70.773438 110.878906 L 67.015625 110.882812 L 67.015625 110.878906 L 65.636719 110.878906 C 65.195312 110.878906 64.84375 110.53125 64.824219 110.097656 L 64.820312 107.832031 C 64.820312 107.828125 64.820312 107.828125 64.820312 107.824219 L 64.820312 104.710938 C 64.820312 103.667969 63.96875 102.820312 62.921875 102.824219 L 62.703125 102.824219 C 61.65625 102.824219 60.808594 103.671875 60.808594 104.714844 L 60.808594 104.863281 L 60.8125 106.863281 C 60.808594 106.859375 60.808594 106.859375 60.808594 106.859375 L 60.808594 106.984375 C 60.808594 107 60.804688 107.011719 60.804688 107.027344 L 60.808594 110.023438 C 60.777344 110.445312 60.425781 110.78125 59.984375 110.785156 L 60.011719 110.785156 L 59.601562 110.785156 C 59.152344 110.785156 58.785156 110.433594 58.773438 109.992188 L 58.773438 107.75 C 58.773438 107.742188 58.773438 107.734375 58.773438 107.726562 L 58.773438 106.863281 C 58.773438 106.863281 58.773438 106.863281 58.769531 106.863281 L 58.769531 106.109375 C 58.769531 105.0625 57.917969 104.21875 56.871094 104.21875 L 56.65625 104.21875 C 55.609375 104.21875 54.757812 105.066406 54.761719 106.109375 L 54.761719 106.867188 C 54.757812 106.867188 54.757812 106.867188 54.757812 106.863281 L 54.757812 107.730469 C 54.757812 107.738281 54.761719 107.746094 54.761719 107.757812 L 54.761719 109.992188 C 54.75 110.433594 54.394531 110.785156 53.949219 110.785156 L 53.914062 110.789062 L 53.515625 110.789062 C 53.066406 110.789062 52.707031 110.429688 52.699219 109.984375 L 52.695312 109.191406 C 52.695312 109.183594 52.695312 109.179688 52.695312 109.171875 L 52.695312 107.800781 C 52.695312 107.777344 52.699219 107.753906 52.703125 107.730469 L 52.699219 106.867188 C 52.699219 106.867188 52.695312 106.871094 52.691406 106.875 L 52.691406 104.730469 C 52.691406 103.675781 51.832031 102.820312 50.773438 102.820312 L 50.554688 102.820312 C 49.511719 102.820312 48.667969 103.652344 48.644531 104.6875 C 48.644531 104.703125 48.640625 104.714844 48.640625 104.734375 "/>
<path style=" stroke:none;fill-rule:nonzero;fill:rgb(90.196079%,0%,0%);fill-opacity:1;" d="M 76.226562 120.503906 C 76.453125 120.28125 76.632812 120.015625 76.765625 119.710938 C 76.902344 119.410156 76.96875 119.089844 76.96875 118.75 C 76.96875 118.398438 76.902344 118.070312 76.765625 117.769531 C 76.632812 117.464844 76.453125 117.199219 76.226562 116.964844 C 76 116.734375 75.730469 116.550781 75.421875 116.414062 C 75.109375 116.28125 74.785156 116.214844 74.445312 116.214844 C 74.105469 116.214844 73.78125 116.28125 73.46875 116.414062 C 73.160156 116.550781 72.890625 116.734375 72.664062 116.964844 C 72.4375 117.199219 72.257812 117.464844 72.125 117.769531 C 71.992188 118.070312 71.921875 118.398438 71.921875 118.75 C 71.921875 119.089844 71.992188 119.410156 72.125 119.710938 C 72.257812 120.015625 72.4375 120.28125 72.664062 120.503906 C 72.890625 120.730469 73.160156 120.910156 73.46875 121.042969 C 73.78125 121.179688 74.105469 121.246094 74.445312 121.246094 C 74.785156 121.246094 75.109375 121.179688 75.421875 121.042969 C 75.730469 120.910156 76 120.730469 76.226562 120.503906 Z M 76.226562 120.503906 "/>
<path style=" stroke:none;fill-rule:nonzero;fill:rgb(90.196079%,0%,0%);fill-opacity:1;" d="M 34.742188 109.628906 C 34.742188 110.3125 34.1875 110.867188 33.5 110.867188 L 27.976562 110.867188 C 27.289062 110.867188 26.734375 110.3125 26.734375 109.628906 L 26.734375 108.027344 C 26.734375 107.34375 27.289062 106.789062 27.976562 106.789062 L 33.5 106.789062 C 34.1875 106.789062 34.742188 107.34375 34.742188 108.027344 Z M 14.601562 110.316406 C 14.601562 110.976562 14.066406 111.515625 13.402344 111.515625 L 11.707031 111.515625 C 11.042969 111.515625 10.507812 110.976562 10.507812 110.316406 L 10.507812 105.910156 C 10.507812 105.25 11.042969 104.714844 11.707031 104.714844 L 13.402344 104.714844 C 14.066406 104.714844 14.601562 105.25 14.601562 105.910156 Z M 38.253906 105.242188 C 38.078125 104.683594 37.820312 104.226562 37.484375 103.871094 C 37.144531 103.519531 36.726562 103.261719 36.226562 103.097656 C 35.722656 102.933594 35.148438 102.855469 34.496094 102.855469 L 26.722656 102.855469 L 26.722656 99.835938 C 26.722656 98.785156 25.867188 97.929688 24.808594 97.929688 L 24.589844 97.929688 C 23.550781 97.929688 22.707031 98.757812 22.683594 99.789062 C 22.679688 99.804688 22.675781 99.820312 22.675781 99.835938 L 22.675781 101.03125 C 22.675781 101.035156 22.675781 101.039062 22.675781 101.042969 L 22.675781 108.433594 L 22.667969 108.433594 L 22.667969 110.136719 C 22.667969 110.523438 22.355469 110.832031 21.96875 110.832031 L 19.292969 110.832031 C 18.917969 110.832031 18.617188 110.535156 18.601562 110.167969 L 18.601562 108.226562 C 18.601562 108.226562 18.601562 108.226562 18.601562 108.222656 L 18.601562 105.785156 C 18.589844 104.226562 18.242188 103.101562 17.5625 102.410156 C 16.878906 101.71875 15.898438 101.375 14.613281 101.375 L 10.511719 101.375 C 9.226562 101.375 8.238281 101.71875 7.546875 102.410156 C 6.855469 103.101562 6.507812 104.226562 6.507812 105.785156 L 6.507812 110.480469 C 6.507812 111.265625 6.59375 111.9375 6.769531 112.492188 C 6.945312 113.046875 7.203125 113.503906 7.546875 113.867188 C 7.890625 114.226562 8.308594 114.488281 8.804688 114.65625 C 9.300781 114.824219 9.867188 114.910156 10.511719 114.910156 L 34.527344 114.910156 C 35.171875 114.910156 35.738281 114.824219 36.234375 114.65625 C 36.730469 114.488281 37.144531 114.226562 37.484375 113.867188 C 37.820312 113.503906 38.078125 113.046875 38.253906 112.492188 C 38.425781 111.9375 38.515625 111.265625 38.515625 110.480469 L 38.515625 107.265625 C 38.515625 106.476562 38.425781 105.804688 38.253906 105.242188 Z M 38.253906 105.242188 "/>
<path style=" stroke:none;fill-rule:nonzero;fill:rgb(90.196079%,0%,0%);fill-opacity:1;" d="M 38.046875 130.371094 C 37.378906 130.09375 36.585938 129.957031 35.664062 129.957031 L 33.488281 129.957031 C 33.257812 129.957031 33.066406 129.878906 32.910156 129.722656 C 32.75 129.566406 32.675781 129.382812 32.675781 129.167969 C 32.675781 128.941406 32.75 128.753906 32.910156 128.605469 C 33.066406 128.457031 33.257812 128.382812 33.488281 128.382812 L 37.480469 128.382812 C 38.316406 128.382812 39 127.707031 39 126.875 L 39 126.847656 C 39 126.015625 38.316406 125.339844 37.480469 125.339844 L 32.894531 125.339844 C 32.15625 125.339844 31.476562 125.519531 30.859375 125.878906 C 30.242188 126.242188 29.753906 126.714844 29.402344 127.304688 C 29.046875 127.890625 28.871094 128.546875 28.871094 129.265625 C 28.871094 130.199219 29.0625 130.957031 29.449219 131.539062 C 29.835938 132.117188 30.363281 132.542969 31.03125 132.816406 C 31.699219 133.082031 32.445312 133.21875 33.269531 133.21875 L 35.488281 133.21875 C 35.652344 133.21875 35.804688 133.253906 35.933594 133.332031 C 36.066406 133.402344 36.171875 133.503906 36.257812 133.636719 C 36.339844 133.769531 36.378906 133.914062 36.378906 134.078125 C 36.378906 134.226562 36.339844 134.363281 36.257812 134.496094 C 36.171875 134.625 36.066406 134.730469 35.933594 134.804688 C 35.804688 134.875 35.652344 134.910156 35.488281 134.910156 L 30.90625 134.910156 C 30.070312 134.910156 29.386719 135.589844 29.386719 136.421875 C 29.386719 137.257812 30.070312 137.933594 30.90625 137.933594 L 36.035156 137.933594 C 36.808594 137.933594 37.503906 137.753906 38.121094 137.390625 C 38.738281 137.03125 39.234375 136.550781 39.601562 135.941406 C 39.972656 135.335938 40.160156 134.675781 40.160156 133.953125 C 40.160156 133.007812 39.972656 132.242188 39.601562 131.660156 C 39.234375 131.082031 38.714844 130.648438 38.046875 130.371094 Z M 38.046875 130.371094 "/>
<path style=" stroke:none;fill-rule:nonzero;fill:rgb(90.196079%,0%,0%);fill-opacity:1;" d="M 21.714844 134.457031 C 20.070312 134.457031 18.742188 133.128906 18.742188 131.492188 C 18.742188 129.855469 20.070312 128.527344 21.714844 128.527344 C 23.355469 128.527344 24.6875 129.855469 24.6875 131.492188 C 24.6875 133.128906 23.355469 134.457031 21.714844 134.457031 Z M 27.34375 129.160156 C 27.019531 128.421875 26.582031 127.773438 26.035156 127.210938 C 25.488281 126.644531 24.835938 126.203125 24.082031 125.878906 C 23.324219 125.550781 22.535156 125.390625 21.714844 125.390625 C 20.890625 125.390625 20.101562 125.550781 19.347656 125.878906 C 18.59375 126.203125 17.941406 126.644531 17.394531 127.210938 C 16.84375 127.773438 16.410156 128.421875 16.082031 129.160156 C 15.757812 129.894531 15.59375 130.6875 15.59375 131.542969 C 15.59375 132.363281 15.757812 133.140625 16.082031 133.875 C 16.410156 134.613281 16.84375 135.253906 17.394531 135.796875 C 17.941406 136.34375 18.59375 136.78125 19.347656 137.105469 C 20.101562 137.429688 20.890625 137.59375 21.714844 137.59375 C 22.535156 137.59375 23.324219 137.429688 24.082031 137.105469 C 24.367188 136.984375 24.640625 136.84375 24.894531 136.6875 C 24.949219 137.402344 25.546875 137.96875 26.277344 137.964844 L 26.4375 137.964844 C 27.195312 137.964844 27.808594 137.359375 27.824219 136.609375 L 27.828125 136.609375 L 27.824219 131.855469 C 27.832031 131.753906 27.832031 131.648438 27.832031 131.542969 C 27.832031 130.6875 27.671875 129.894531 27.34375 129.160156 Z M 27.34375 129.160156 "/>
<path style=" stroke:none;fill-rule:nonzero;fill:rgb(90.196079%,0%,0%);fill-opacity:1;" d="M 47.84375 134.457031 C 46.203125 134.457031 44.871094 133.128906 44.871094 131.492188 C 44.871094 129.855469 46.203125 128.527344 47.84375 128.527344 C 49.484375 128.527344 50.816406 129.855469 50.816406 131.492188 C 50.816406 133.128906 49.484375 134.457031 47.84375 134.457031 Z M 53.472656 129.160156 C 53.148438 128.421875 52.710938 127.773438 52.164062 127.210938 C 51.617188 126.644531 50.964844 126.203125 50.210938 125.878906 C 49.453125 125.550781 48.667969 125.390625 47.84375 125.390625 C 47.019531 125.390625 46.230469 125.550781 45.476562 125.878906 C 44.722656 126.203125 44.074219 126.644531 43.523438 127.210938 C 42.972656 127.773438 42.539062 128.421875 42.210938 129.160156 C 41.886719 129.894531 41.722656 130.6875 41.722656 131.542969 C 41.722656 132.363281 41.886719 133.140625 42.210938 133.875 C 42.539062 134.613281 42.972656 135.253906 43.523438 135.796875 C 44.074219 136.34375 44.722656 136.78125 45.476562 137.105469 C 46.230469 137.429688 47.019531 137.59375 47.84375 137.59375 C 48.667969 137.59375 49.453125 137.429688 50.210938 137.105469 C 50.496094 136.984375 50.769531 136.84375 51.023438 136.6875 C 51.082031 137.402344 51.675781 137.96875 52.40625 137.964844 L 52.566406 137.964844 C 53.324219 137.964844 53.9375 137.359375 53.953125 136.609375 L 53.957031 136.609375 L 53.953125 131.855469 C 53.960938 131.753906 53.964844 131.648438 53.964844 131.542969 C 53.964844 130.6875 53.800781 129.894531 53.472656 129.160156 Z M 53.472656 129.160156 "/>
<path style=" stroke:none;fill-rule:nonzero;fill:rgb(90.196079%,0%,0%);fill-opacity:1;" d="M 70.882812 134.457031 C 69.238281 134.457031 67.90625 133.128906 67.90625 131.492188 C 67.90625 129.855469 69.238281 128.527344 70.882812 128.527344 C 72.523438 128.527344 73.855469 129.855469 73.855469 131.492188 C 73.855469 133.128906 72.523438 134.457031 70.882812 134.457031 Z M 77 131.542969 C 77 130.6875 76.839844 129.894531 76.511719 129.160156 C 76.1875 128.421875 75.75 127.773438 75.203125 127.210938 C 74.652344 126.644531 74.003906 126.203125 73.246094 125.878906 C 72.492188 125.550781 71.703125 125.390625 70.882812 125.390625 C 70.058594 125.390625 69.269531 125.550781 68.515625 125.878906 C 67.761719 126.203125 67.109375 126.644531 66.5625 127.210938 C 66.011719 127.773438 65.578125 128.421875 65.25 129.160156 C 64.925781 129.894531 64.761719 130.6875 64.761719 131.542969 C 64.761719 132.363281 64.925781 133.140625 65.25 133.875 C 65.578125 134.613281 66.011719 135.253906 66.5625 135.796875 C 67.109375 136.34375 67.761719 136.78125 68.515625 137.105469 C 69.269531 137.429688 70.058594 137.59375 70.882812 137.59375 C 71.703125 137.59375 72.492188 137.429688 73.246094 137.105469 C 73.535156 136.984375 73.808594 136.84375 74.0625 136.6875 C 74.117188 137.402344 74.714844 137.96875 75.445312 137.964844 L 75.605469 137.964844 C 76.363281 137.964844 76.976562 137.359375 76.992188 136.609375 L 76.996094 136.609375 L 76.992188 131.855469 C 77 131.753906 77 131.648438 77 131.542969 Z M 77 131.542969 "/>
<path style=" stroke:none;fill-rule:nonzero;fill:rgb(90.196079%,0%,0%);fill-opacity:1;" d="M 61.777344 128.574219 C 61.785156 128.574219 61.792969 128.570312 61.800781 128.570312 L 61.804688 128.570312 C 62.589844 128.550781 63.21875 127.917969 63.21875 127.136719 L 63.21875 126.972656 C 63.214844 126.1875 62.585938 125.554688 61.804688 125.539062 L 61.804688 125.535156 L 60.339844 125.535156 L 60.339844 124.128906 C 60.34375 124.128906 60.34375 124.128906 60.34375 124.128906 L 60.34375 123.492188 C 60.34375 123.484375 60.339844 123.476562 60.339844 123.46875 L 60.339844 123.464844 C 60.324219 122.683594 59.6875 122.058594 58.902344 122.058594 L 58.738281 122.058594 C 57.949219 122.058594 57.316406 122.6875 57.300781 123.464844 L 57.292969 123.464844 L 57.296875 125.535156 L 56.992188 125.535156 C 56.980469 125.535156 56.976562 125.535156 56.964844 125.539062 L 56.960938 125.539062 C 56.179688 125.554688 55.550781 126.1875 55.550781 126.972656 L 55.550781 127.136719 C 55.550781 127.921875 56.179688 128.554688 56.964844 128.570312 L 56.964844 128.574219 L 57.296875 128.574219 L 57.296875 136.109375 C 57.296875 137.136719 58.132812 137.96875 59.160156 137.96875 L 60.34375 137.96875 L 60.34375 137.964844 L 61.804688 137.964844 C 62.128906 137.964844 62.421875 137.84375 62.644531 137.644531 C 62.976562 137.382812 63.1875 136.980469 63.1875 136.527344 L 63.1875 136.363281 C 63.1875 135.578125 62.558594 134.945312 61.777344 134.929688 L 61.777344 134.925781 L 60.34375 134.925781 L 60.34375 128.570312 L 61.140625 128.570312 C 61.140625 128.570312 61.140625 128.574219 61.136719 128.574219 Z M 61.777344 128.574219 "/>
<path style=" stroke:none;fill-rule:nonzero;fill:rgb(90.196079%,0%,0%);fill-opacity:1;" d="M 10.03125 133.992188 C 9.878906 134.25 9.679688 134.453125 9.425781 134.605469 C 9.175781 134.757812 8.890625 134.832031 8.570312 134.832031 L 5.554688 134.832031 C 4.621094 134.832031 3.863281 134.078125 3.863281 133.148438 C 3.863281 132.21875 4.621094 131.460938 5.554688 131.460938 L 8.570312 131.460938 C 8.890625 131.460938 9.175781 131.539062 9.425781 131.691406 C 9.679688 131.84375 9.878906 132.042969 10.03125 132.296875 C 10.183594 132.546875 10.261719 132.832031 10.261719 133.148438 C 10.261719 133.453125 10.183594 133.734375 10.03125 133.992188 Z M 5.453125 125.246094 L 8.183594 125.246094 C 8.488281 125.246094 8.757812 125.320312 8.992188 125.460938 C 9.226562 125.605469 9.414062 125.796875 9.550781 126.03125 C 9.691406 126.269531 9.757812 126.535156 9.757812 126.839844 C 9.757812 127.128906 9.691406 127.390625 9.550781 127.625 C 9.414062 127.863281 9.226562 128.050781 8.992188 128.195312 C 8.757812 128.339844 8.488281 128.410156 8.183594 128.410156 L 5.453125 128.410156 C 4.574219 128.410156 3.863281 127.703125 3.863281 126.828125 C 3.863281 125.953125 4.574219 125.246094 5.453125 125.246094 Z M 12.71875 130.644531 C 12.3125 130.25 11.851562 129.945312 11.335938 129.734375 C 11.777344 129.519531 12.167969 129.238281 12.511719 128.890625 C 12.855469 128.542969 13.121094 128.136719 13.3125 127.683594 C 13.5 127.226562 13.597656 126.75 13.597656 126.25 C 13.597656 125.398438 13.402344 124.660156 13.011719 124.039062 C 12.625 123.417969 12.105469 122.929688 11.460938 122.582031 C 10.8125 122.230469 10.09375 122.058594 9.300781 122.058594 L 3.367188 122.058594 C 1.523438 122.058594 0.0273438 123.550781 0.0273438 125.386719 L 0.0273438 135.46875 C 0.0273438 136.863281 1.164062 138 2.566406 138 L 9.578125 138 C 10.398438 138 11.144531 137.820312 11.8125 137.464844 C 12.484375 137.109375 13.019531 136.605469 13.425781 135.949219 C 13.828125 135.296875 14.03125 134.539062 14.03125 133.671875 C 14.03125 133.082031 13.914062 132.527344 13.675781 132.007812 C 13.4375 131.492188 13.121094 131.039062 12.71875 130.644531 Z M 12.71875 130.644531 "/>
</g>
</svg>
