<svg width="29" height="52" viewBox="0 0 29 52" fill="none" xmlns="http://www.w3.org/2000/svg">
<path d="M21.31 21.8862L14.7827 28.397C14.2677 28.9103 13.4333 28.9103 12.9183 28.397L6.35399 21.8502C5.75778 21.2546 5.75778 20.2887 6.35399 19.6936C6.95191 19.098 7.9198 19.098 8.51645 19.6936L12.8141 23.9804C13.3865 24.5518 14.3145 24.5518 14.8869 23.9804L19.1854 19.6936C19.828 19.0522 20.9022 19.1019 21.478 19.8425C21.9547 20.4554 21.8595 21.3377 21.31 21.8862ZM28.9205 23.924C28.9188 22.5933 28.3881 21.3178 27.4448 20.377L25.7489 18.6857C25.7238 18.6632 25.6983 18.642 25.674 18.6179L21.3764 14.331C20.804 13.7601 19.8756 13.7601 19.3032 14.331L15.0051 18.6179C14.3566 19.2652 13.2687 19.2092 12.6968 18.4486C12.2358 17.8361 12.3374 16.9669 12.8805 16.4252L19.4074 9.91484C19.9228 9.40115 20.7572 9.40115 21.2722 9.91484L25.1557 13.7881L26.5437 12.3331C27.4937 11.3371 28.0245 10.0154 28.0262 8.64059C28.0262 6.88743 27.626 5.36927 26.8257 4.08526C26.0253 2.8021 24.9579 1.80017 23.6243 1.0799C22.2898 0.359634 20.8069 -7.62939e-05 19.1752 -7.62939e-05H5.73013C2.59893 -7.62939e-05 0.0605469 2.53147 0.0605469 5.65475V28.2698C0.0605469 30.8119 2.12647 32.8726 4.67506 32.8726H19.7399C21.435 32.8726 22.9724 32.5049 24.354 31.7689C25.7349 31.0338 26.8414 29.9924 27.6732 28.646C28.5046 27.3001 28.9205 25.7344 28.9205 23.9499V23.924Z" fill="#E60000"/>
<path d="M1.62067 40.3541C1.70572 40.2693 1.77377 40.1696 1.82437 40.0555C1.87498 39.9414 1.90007 39.8205 1.90007 39.6932C1.90007 39.5656 1.87498 39.4438 1.82437 39.3267C1.77377 39.2101 1.70572 39.1091 1.62067 39.0243C1.53562 38.9395 1.43441 38.8716 1.31746 38.8211C1.20009 38.7706 1.07804 38.7456 0.950034 38.7456C0.822456 38.7456 0.69998 38.7706 0.582608 38.8211C0.465661 38.8716 0.364874 38.9395 0.279397 39.0243C0.194345 39.1091 0.126728 39.2101 0.0756966 39.3267C0.0255158 39.4438 0 39.5656 0 39.6932C0 39.8205 0.0255158 39.9414 0.0756966 40.0555C0.126728 40.1696 0.194345 40.2693 0.279397 40.3541C0.364874 40.439 0.465661 40.5068 0.582608 40.5573C0.69998 40.6078 0.822456 40.6328 0.950034 40.6328C1.07804 40.6328 1.20009 40.6078 1.31746 40.5573C1.43441 40.5068 1.53562 40.439 1.62067 40.3541Z" fill="#E60000"/>
<path d="M1.62067 43.0162C1.70572 42.9313 1.77377 42.8317 1.82437 42.7175C1.87498 42.6034 1.90007 42.4825 1.90007 42.3553C1.90007 42.2225 1.87498 42.0991 1.82437 41.985C1.77377 41.8709 1.70572 41.7699 1.62067 41.6821C1.53562 41.5947 1.43441 41.5256 1.31746 41.4751C1.20009 41.4251 1.07804 41.3996 0.950034 41.3996C0.822456 41.3996 0.69998 41.4251 0.582608 41.4751C0.465661 41.5256 0.364874 41.5947 0.279397 41.6821C0.194345 41.7699 0.126728 41.8709 0.0756966 41.985C0.0255158 42.0991 0 42.2225 0 42.3553C0 42.4825 0.0255158 42.6034 0.0756966 42.7175C0.126728 42.8317 0.194345 42.9313 0.279397 43.0162C0.364874 43.101 0.465661 43.1689 0.582608 43.2194C0.69998 43.2698 0.822456 43.2949 0.950034 43.2949C1.07804 43.2949 1.20009 43.2698 1.31746 43.2194C1.43441 43.1689 1.53562 43.101 1.62067 43.0162Z" fill="#E60000"/>
<path d="M18.3131 41.4402C18.3131 41.6099 18.1757 41.7473 18.0056 41.7473L17.0888 41.7545C16.9246 41.755 16.7932 41.6256 16.7843 41.464V41.8046H16.7851L16.7826 37.9263C16.783 37.9271 16.7834 37.9275 16.7838 37.9284L16.7834 37.6119C16.7834 37.6077 16.7821 37.6039 16.7821 37.5996V37.5971C16.7736 37.2107 16.4581 36.8997 16.069 36.9002H15.9869C15.5974 36.9006 15.2827 37.2115 15.2746 37.5984H15.2725L15.2754 41.8054L15.2759 41.7953H15.2818C15.292 42.0209 15.3226 42.2194 15.3758 42.3883C15.4417 42.5974 15.5395 42.77 15.6688 42.9054C15.7981 43.0407 15.9563 43.1395 16.143 43.2031C16.3297 43.2663 16.5436 43.2981 16.7855 43.2977H16.7864L17.4149 43.2973H17.4404L18.3212 43.2901L19.8474 43.2897L20.6261 43.2884L22.1366 43.2875L22.9046 43.2871L24.4152 43.2863V43.2858L26.7711 43.2846L26.9297 43.2842L27.477 43.2837H27.4792C27.9657 43.2829 28.339 43.1527 28.5993 42.8926C28.8536 42.639 28.9829 42.2262 28.9884 41.6566C28.9888 41.6421 28.9897 41.629 28.9897 41.6141L28.9884 39.5483C28.9884 39.5441 28.9871 39.5403 28.9871 39.536V39.4728C28.9867 39.0796 28.6669 38.7606 28.2723 38.7611H28.1906C27.796 38.7615 27.4762 39.0805 27.4766 39.4741V39.5263C27.4762 39.5344 27.4745 39.5416 27.4745 39.5496L27.4758 41.5051C27.4588 41.6582 27.3329 41.7791 27.1751 41.7791L26.6546 41.7796V41.7808L25.2397 41.7817V41.7804L24.7196 41.7808C24.5538 41.7808 24.4211 41.6498 24.4139 41.486L24.4135 40.6321C24.4135 40.6313 24.4135 40.6304 24.4135 40.6292V40.3034L24.413 40.3038L24.4126 39.4567C24.4122 39.0631 24.0924 38.7445 23.6977 38.7449H23.6161C23.2214 38.7454 22.9021 39.0644 22.9021 39.458L22.9025 39.514L22.9029 40.2669C22.9025 40.2665 22.9025 40.2665 22.9025 40.2665V40.3136C22.9021 40.3187 22.9008 40.3238 22.9008 40.3293L22.9017 41.458C22.8906 41.6171 22.7579 41.7439 22.5921 41.7444H22.6014H22.527H22.4479C22.2778 41.7444 22.1404 41.612 22.1353 41.447L22.1349 40.6012C22.1349 40.5986 22.1353 40.5957 22.1353 40.5927V40.2669C22.1349 40.2669 22.1349 40.2673 22.1345 40.2678V39.9827C22.1341 39.5891 21.8138 39.2705 21.4196 39.2705H21.3375C20.9433 39.2709 20.6235 39.5903 20.624 39.9836V40.269C20.6235 40.2686 20.6235 40.2682 20.6231 40.2678V40.594C20.6235 40.5974 20.624 40.6003 20.6244 40.6037L20.6248 41.447C20.6201 41.6124 20.4862 41.7456 20.319 41.7456L20.3046 41.7461H20.2319H20.1545C19.9861 41.7461 19.85 41.6107 19.8474 41.4432L19.847 41.145C19.847 41.142 19.847 41.1395 19.8466 41.1365L19.8461 40.6211C19.8461 40.6122 19.8478 40.6033 19.8487 40.5944L19.8483 40.2686C19.8474 40.2695 19.8466 40.2707 19.8453 40.2716L19.8449 39.5293V39.4635C19.8444 39.0656 19.5212 38.7437 19.1228 38.7437H19.0399C18.6473 38.7441 18.3297 39.0576 18.3203 39.447C18.3203 39.4529 18.3186 39.4584 18.3186 39.4644" fill="#E60000"/>
<path d="M28.7086 45.4077C28.7936 45.3229 28.8617 45.2232 28.9123 45.1091C28.9629 44.995 28.988 44.8741 28.988 44.7468C28.988 44.6141 28.9629 44.4906 28.9123 44.3765C28.8617 44.2624 28.7936 44.1615 28.7086 44.0736C28.6235 43.9863 28.5223 43.9171 28.4054 43.8666C28.288 43.8166 28.1659 43.7911 28.0379 43.7911C27.9103 43.7911 27.7879 43.8166 27.6705 43.8666C27.5536 43.9171 27.4528 43.9863 27.3673 44.0736C27.2822 44.1615 27.2146 44.2624 27.1636 44.3765C27.1134 44.4906 27.0879 44.6141 27.0879 44.7468C27.0879 44.8741 27.1134 44.995 27.1636 45.1091C27.2146 45.2232 27.2822 45.3229 27.3673 45.4077C27.4528 45.4925 27.5536 45.5604 27.6705 45.6109C27.7879 45.6614 27.9103 45.6864 28.0379 45.6864C28.1659 45.6864 28.288 45.6614 28.4054 45.6109C28.5223 45.5604 28.6235 45.4925 28.7086 45.4077Z" fill="#E60000"/>
<path d="M13.0853 41.3096C13.0853 41.5675 12.8756 41.7767 12.6175 41.7767H10.5367C10.2781 41.7767 10.0689 41.5675 10.0689 41.3096V40.706C10.0689 40.4481 10.2781 40.239 10.5367 40.239H12.6175C12.8756 40.239 13.0853 40.4481 13.0853 40.706V41.3096ZM5.49945 41.5692C5.49945 41.8178 5.29745 42.0197 5.04824 42.0197H4.40865C4.15902 42.0197 3.95702 41.8178 3.95702 41.5692V39.9077C3.95702 39.6591 4.15902 39.4572 4.40865 39.4572H5.04824C5.29745 39.4572 5.49945 39.6591 5.49945 39.9077V41.5692ZM14.4066 39.657C14.3411 39.4458 14.2445 39.2731 14.1174 39.1404C13.9902 39.0067 13.832 38.9096 13.6436 38.8485C13.4544 38.787 13.2371 38.7565 12.9913 38.7565H10.0642V37.6854V37.6197C10.0642 37.223 9.74186 36.9011 9.34381 36.9011H9.26131C8.86922 36.9011 8.55197 37.2137 8.54262 37.6023C8.54219 37.6082 8.54049 37.6137 8.54049 37.6197V38.0697C8.54049 38.0718 8.53964 38.0731 8.53964 38.0748V40.8587H8.53666V41.5014C8.53666 41.646 8.41887 41.7635 8.27385 41.7635H7.26598C7.12437 41.7635 7.01125 41.6515 7.0053 41.512V40.7811C7.0053 40.7807 7.0053 40.7803 7.0053 40.7798V40.5016V39.861C7.00105 39.2736 6.87049 38.8494 6.61406 38.5893C6.35762 38.3289 5.98765 38.1991 5.50412 38.1991H3.95872C3.4752 38.1991 3.1031 38.3289 2.84199 38.5893C2.5813 38.8494 2.45117 39.2736 2.45117 39.861V41.6303C2.45117 41.9264 2.48392 42.1792 2.54941 42.3888C2.61532 42.5979 2.71271 42.7701 2.84199 42.9059C2.97127 43.0412 3.12946 43.1404 3.31615 43.2041C3.50284 43.2673 3.71675 43.2991 3.95872 43.2991H7.64064H7.69125H8.5188H10.0293H13.004C13.246 43.2991 13.4599 43.2673 13.6466 43.2041C13.8333 43.1404 13.9902 43.0412 14.1174 42.9059C14.2445 42.7701 14.3411 42.5979 14.4066 42.3888C14.4725 42.1792 14.5052 41.9264 14.5052 41.6303V40.4189C14.5052 40.1223 14.4725 39.8687 14.4066 39.657Z" fill="#E60000"/>
<path d="M14.3296 49.1257C14.0782 49.0209 13.7789 48.9687 13.4318 48.9687H12.6128C12.526 48.9687 12.4529 48.9394 12.3942 48.8805C12.3351 48.8219 12.3058 48.7524 12.3058 48.6726C12.3058 48.5861 12.3351 48.5153 12.3942 48.4597C12.4529 48.4041 12.526 48.3761 12.6128 48.3761H14.1157C14.4312 48.3761 14.6876 48.122 14.6876 47.8077V47.7984C14.6876 47.4841 14.4312 47.2295 14.1157 47.2295H12.3895C12.1106 47.2295 11.855 47.2974 11.6219 47.4327C11.3893 47.5689 11.2065 47.7475 11.0733 47.9693C10.9398 48.1912 10.873 48.4385 10.873 48.7095C10.873 49.0612 10.9462 49.3462 11.0916 49.5651C11.2371 49.784 11.4357 49.9443 11.687 50.0461C11.9383 50.1475 12.219 50.1984 12.5294 50.1984H13.3664C13.428 50.1984 13.4842 50.212 13.5339 50.2404C13.5832 50.268 13.6236 50.3062 13.6551 50.3558C13.6857 50.4054 13.7015 50.4606 13.7015 50.5221C13.7015 50.5776 13.6857 50.6298 13.6551 50.6794C13.6236 50.7287 13.5832 50.7673 13.5339 50.7953C13.4842 50.8228 13.428 50.8364 13.3664 50.8364H11.6406C11.3247 50.8364 11.0682 51.0913 11.0682 51.4057C11.0682 51.7196 11.3247 51.9745 11.6406 51.9745H13.5713C13.8626 51.9745 14.125 51.9066 14.3572 51.7709C14.5898 51.6356 14.7761 51.4536 14.9156 51.225C15.0551 50.9967 15.1248 50.7473 15.1248 50.4758C15.1248 50.1187 15.0551 49.8302 14.9156 49.6113C14.7761 49.3925 14.5805 49.2304 14.3296 49.1257Z" fill="#E60000"/>
<path d="M8.17796 50.6643C7.55963 50.6643 7.05825 50.1642 7.05825 49.5474C7.05825 48.9306 7.55963 48.4305 8.17796 48.4305C8.79629 48.4305 9.29768 48.9306 9.29768 49.5474C9.29768 50.1642 8.79629 50.6643 8.17796 50.6643ZM10.2987 48.6685C10.1763 48.3915 10.0117 48.1467 9.80502 47.9342C9.59876 47.7217 9.35339 47.5546 9.06931 47.432C8.78481 47.3094 8.48798 47.2483 8.17796 47.2483C7.86795 47.2483 7.57112 47.3094 7.28662 47.432C7.00297 47.5546 6.75759 47.7217 6.55091 47.9342C6.34424 48.1467 6.18009 48.3915 6.05719 48.6685C5.93428 48.9455 5.87305 49.2449 5.87305 49.5669C5.87305 49.8757 5.93428 50.1692 6.05719 50.4458C6.18009 50.7232 6.34424 50.9646 6.55091 51.1703C6.75759 51.3765 7.00297 51.5406 7.28662 51.6632C7.57112 51.7858 7.86795 51.8465 8.17796 51.8465C8.48798 51.8465 8.78481 51.7858 9.06931 51.6632C9.17733 51.6166 9.27982 51.564 9.37635 51.505C9.39719 51.7748 9.62173 51.9877 9.8973 51.9873H9.95726C10.2426 51.9873 10.4735 51.7591 10.4791 51.4757H10.4808L10.4799 49.6852C10.4816 49.6458 10.4825 49.6063 10.4825 49.5669C10.4825 49.2449 10.4216 48.9455 10.2987 48.6685Z" fill="#E60000"/>
<path d="M18.0188 50.6643C17.4005 50.6643 16.8991 50.1642 16.8991 49.5474C16.8991 48.9306 17.4005 48.4305 18.0188 48.4305C18.6371 48.4305 19.1385 48.9306 19.1385 49.5474C19.1385 50.1642 18.6371 50.6643 18.0188 50.6643ZM20.1396 48.6685C20.0171 48.3915 19.8525 48.1467 19.6458 47.9342C19.4396 47.7217 19.1942 47.5546 18.9101 47.432C18.6256 47.3094 18.3288 47.2483 18.0188 47.2483C17.7088 47.2483 17.4119 47.3094 17.1274 47.432C16.8438 47.5546 16.5988 47.7217 16.3917 47.9342C16.1851 48.1467 16.0205 48.3915 15.898 48.6685C15.7751 48.9455 15.7139 49.2449 15.7139 49.5669C15.7139 49.8757 15.7751 50.1692 15.898 50.4458C16.0205 50.7232 16.1851 50.9646 16.3917 51.1703C16.5988 51.3765 16.8438 51.5406 17.1274 51.6632C17.4119 51.7858 17.7088 51.8465 18.0188 51.8465C18.3288 51.8465 18.6256 51.7858 18.9101 51.6632C19.0181 51.6166 19.1206 51.564 19.2172 51.505C19.238 51.7748 19.4625 51.9877 19.7381 51.9873H19.7981C20.0834 51.9873 20.3143 51.7591 20.3199 51.4757H20.3216L20.3203 49.6852C20.3224 49.6458 20.3237 49.6063 20.3237 49.5669C20.3237 49.2449 20.2625 48.9455 20.1396 48.6685Z" fill="#E60000"/>
<path d="M26.6955 50.6643C26.0772 50.6643 25.5758 50.1642 25.5758 49.5474C25.5758 48.9306 26.0772 48.4305 26.6955 48.4305C27.3139 48.4305 27.8153 48.9306 27.8153 49.5474C27.8153 50.1642 27.3139 50.6643 26.6955 50.6643ZM29.0005 49.5669C29.0005 49.2449 28.9392 48.9455 28.8163 48.6685C28.6938 48.3915 28.5293 48.1467 28.3226 47.9342C28.1163 47.7217 27.871 47.5546 27.5869 47.432C27.3024 47.3094 27.0056 47.2483 26.6955 47.2483C26.3855 47.2483 26.0887 47.3094 25.8042 47.432C25.5205 47.5546 25.2756 47.7217 25.0685 47.9342C24.8618 48.1467 24.6977 48.3915 24.5748 48.6685C24.4519 48.9455 24.3906 49.2449 24.3906 49.5669C24.3906 49.8757 24.4519 50.1692 24.5748 50.4458C24.6977 50.7232 24.8618 50.9646 25.0685 51.1703C25.2756 51.3765 25.5205 51.5406 25.8042 51.6632C26.0887 51.7858 26.3855 51.8465 26.6955 51.8465C27.0056 51.8465 27.3024 51.7858 27.5869 51.6632C27.6949 51.6166 27.7974 51.564 27.8939 51.505C27.9148 51.7748 28.1393 51.9877 28.4149 51.9873H28.4748C28.7602 51.9873 28.9911 51.7591 28.9966 51.4757H28.9983L28.9975 49.6852C28.9996 49.6458 29.0005 49.6063 29.0005 49.5669Z" fill="#E60000"/>
<path d="M23.2668 48.4478C23.2702 48.4478 23.2727 48.4469 23.2761 48.4469H23.2778V48.4465C23.5721 48.4401 23.8094 48.2013 23.809 47.9061V47.8442C23.8086 47.5489 23.5717 47.3101 23.277 47.3042V47.3025L22.8079 47.3029H22.7258V46.7727C22.7263 46.7731 22.7263 46.7735 22.7267 46.7739V46.5339C22.7267 46.5305 22.7254 46.5275 22.7254 46.5241V46.5224C22.719 46.2289 22.4796 45.9926 22.1836 45.9926L22.1215 45.993C21.8256 45.993 21.5861 46.2297 21.5802 46.5233H21.5785L21.5789 47.3029H21.4641C21.4607 47.3029 21.4581 47.3038 21.4547 47.3042H21.453C21.1587 47.3105 20.9215 47.5494 20.9219 47.8446V47.9065C20.9223 48.2018 21.1592 48.4406 21.4539 48.4465V48.4482H21.5789L21.5793 51.2881C21.5798 51.6746 21.894 51.988 22.2814 51.988H22.7271V51.9872H23.2778C23.3994 51.9872 23.5096 51.9418 23.5938 51.8667C23.718 51.7679 23.7979 51.616 23.7979 51.4451V51.3831C23.7979 51.0879 23.5606 50.8491 23.2663 50.8432V50.8415L22.7267 50.8419L22.7263 48.4474L23.0273 48.4469C23.0269 48.4474 23.0265 48.4478 23.0256 48.4482L23.2668 48.4478Z" fill="#E60000"/>
<path d="M3.77843 50.4894C3.72102 50.587 3.6449 50.6642 3.55049 50.7214C3.45566 50.7783 3.34849 50.8067 3.22772 50.8067H2.09185C1.74015 50.8067 1.45523 50.5225 1.45523 50.1717C1.45523 49.8213 1.74015 49.5367 2.09185 49.5367H3.22772C3.34849 49.5367 3.45566 49.5655 3.55049 49.6228C3.6449 49.6801 3.72102 49.7556 3.77843 49.8506C3.83584 49.9448 3.86434 50.0521 3.86434 50.1721C3.86434 50.2867 3.83584 50.3923 3.77843 50.4894ZM2.05315 47.1943H3.08143C3.19625 47.1943 3.29789 47.2215 3.38719 47.2754C3.47565 47.3301 3.54624 47.4018 3.5977 47.49C3.64958 47.5791 3.67509 47.6805 3.67509 47.795C3.67509 47.9036 3.64958 48.0024 3.5977 48.0911C3.54624 48.1797 3.47565 48.251 3.38719 48.3053C3.29789 48.36 3.19625 48.3867 3.08143 48.3867H2.05315C1.72314 48.3867 1.45523 48.1199 1.45523 47.7907C1.45523 47.4612 1.72314 47.1943 2.05315 47.1943ZM4.78971 49.2279C4.63746 49.0794 4.46395 48.9649 4.26876 48.8847C4.43504 48.8045 4.5826 48.6989 4.71188 48.567C4.84116 48.4359 4.9411 48.2841 5.01339 48.1123C5.08484 47.9405 5.12056 47.7606 5.12056 47.5719C5.12056 47.2512 5.04741 46.9738 4.90112 46.7392C4.75483 46.5046 4.55964 46.3218 4.31596 46.1899C4.07229 46.0584 3.8014 45.9926 3.50286 45.9926H1.26854C0.573663 45.9926 0.00976562 46.5547 0.00976562 47.2478V51.0455C0.00976562 51.5724 0.438429 51.9999 0.96703 51.9999H3.60663C3.91579 51.9999 4.19689 51.9329 4.4495 51.7985C4.7021 51.664 4.9041 51.4739 5.05634 51.2275C5.20816 50.9815 5.28428 50.6956 5.28428 50.3694C5.28428 50.1462 5.23963 49.9375 5.15075 49.7428C5.06145 49.5481 4.9411 49.3768 4.78971 49.2279Z" fill="#E60000"/>
</svg>
