<svg xmlns="http://www.w3.org/2000/svg" width="77" height="16" viewBox="0 0 77 16"><defs><style>.a{fill:#fff;opacity:0;}.b{fill:#2a2a6c;}.c{fill:#ff5f00;}.d{fill:#eb001b;}.e{fill:#f79e1b;}</style></defs><g transform="translate(-523 -415)"><rect class="a" width="77" height="16" transform="translate(523 415)"/><path class="b" d="M70.75,432.369l-5.76,13.746H61.23L58.4,435.145a1.522,1.522,0,0,0-.847-1.21,15.018,15.018,0,0,0-3.509-1.167l.087-.4h6.049a1.657,1.657,0,0,1,1.64,1.4l1.5,7.955,3.7-9.357H70.75m14.727,9.256c.017-3.625-5.017-3.823-4.98-5.446.009-.494.479-1.019,1.507-1.151a6.719,6.719,0,0,1,3.507.612l.624-2.912a9.55,9.55,0,0,0-3.325-.609c-3.515,0-5.989,1.869-6.009,4.543-.023,1.978,1.765,3.082,3.113,3.741,1.385.674,1.847,1.1,1.842,1.708-.008.923-1.1,1.325-2.126,1.344a7.433,7.433,0,0,1-3.654-.869l-.644,3.014a10.87,10.87,0,0,0,3.956.731c3.735,0,6.178-1.849,6.19-4.707m9.28,4.49h3.29l-2.87-13.746H92.14a1.624,1.624,0,0,0-1.514,1.007l-5.332,12.739h3.732l.741-2.053H94.33Zm-3.967-4.87,1.872-5.161,1.077,5.161Zm-14.959-8.875L72.89,446.114H69.334l2.942-13.746Z" transform="translate(470.495 -16.119)"/><g transform="translate(1.466 -18.353)"><rect class="c" width="6.84" height="11.172" transform="translate(581.019 435.873)"/><path class="d" d="M16.226,14.558A7.093,7.093,0,0,1,18.94,8.973a7.1,7.1,0,1,0,0,11.172,7.093,7.093,0,0,1-2.714-5.587Z" transform="translate(565.497 426.902)"/><path class="e" d="M119.946,64.636v-.229h.1V64.36h-.235v.047h.093v.229Zm.456,0V64.36h-.071l-.083.2-.083-.2h-.071v.276h.051v-.209l.077.18h.053l.077-.18v.209Z" transform="translate(475.307 381.226)"/><path class="e" d="M77.186,14.547a7.1,7.1,0,0,1-11.5,5.585,7.1,7.1,0,0,0,0-11.172,7.1,7.1,0,0,1,11.5,5.585Z" transform="translate(518.747 426.913)"/></g></g></svg>