
<svg width="111" height="32" viewBox="0 0 111 32" fill="none" xmlns="http://www.w3.org/2000/svg">
<path fill-rule="evenodd" clip-rule="evenodd" d="M5.19349 18.078V31.6625H0V15.4355L5.19349 18.078Z" fill="black"/>
<path fill-rule="evenodd" clip-rule="evenodd" d="M15.1531 10.4519L7.58809 8.54809C5.93321 7.96484 5.19367 7.43535 5.19367 5.56874V0H0V5.74307C0 9.47107 0.703255 12.2153 6.18828 13.6393L13.7533 15.5431C13.778 15.5494 13.8017 15.5552 13.826 15.5611C15.4283 16.134 16.1475 16.6755 16.1477 18.5127V31.4939H21.3414V18.3483C21.3414 12.5905 18.7926 11.3678 15.1531 10.4519Z" fill="#1ED58C"/>
<path fill-rule="evenodd" clip-rule="evenodd" d="M78.7201 25.09C78.0926 25.691 77.3253 26.1695 76.4366 26.5112C75.5456 26.8528 74.5354 27.0257 73.4327 27.0257C71.5307 27.0257 69.9579 26.4627 68.7618 25.3537C67.5843 24.2634 66.8213 22.8549 66.4926 21.1639C66.265 19.9937 66.2714 18.8759 66.5112 17.8428C66.7473 16.8117 67.1837 15.9112 67.802 15.1648C68.4176 14.4268 69.199 13.8365 70.1236 13.4084C71.0542 12.9782 72.1229 12.7591 73.2974 12.7591C74.4213 12.7591 75.4423 12.9572 76.3363 13.3473C77.2395 13.7416 78.017 14.2813 78.6475 14.954C79.2706 15.6203 79.7649 16.4173 80.1162 17.3241C80.4634 18.2203 80.6338 19.1838 80.6248 20.1685C80.6509 21.17 80.4939 22.098 80.1621 22.9308C79.8321 23.7594 79.3473 24.4871 78.7201 25.09ZM81.3171 8.55441L80.9634 11.1058C80.2003 10.4015 79.4042 9.85338 78.6213 9.42734C77.8364 9.00148 77.0647 8.69785 76.3523 8.48278C75.9119 8.34362 75.463 8.23608 75.0109 8.1559C73.6611 7.90492 72.7406 7.96408 72.7406 7.96408L72.7452 7.96613C72.5045 7.96408 72.2648 7.96817 72.0308 7.97878C70.012 8.07162 68.2343 8.52706 66.7543 9.33041C65.2645 10.138 64.057 11.1944 63.1662 12.4701C62.2723 13.7499 61.6643 15.2324 61.3603 16.8792C61.0561 18.5259 61.0797 20.274 61.4297 22.0748C61.7486 23.7151 62.2706 25.1533 62.9821 26.3511C63.6868 27.536 64.537 28.525 65.5076 29.2882C66.4859 30.0578 67.5714 30.6524 68.7331 31.053C69.9041 31.4578 71.1205 31.6625 72.3519 31.6625C73.0583 31.6625 73.73 31.6245 74.37 31.555L74.3683 31.557C74.3683 31.557 74.7236 31.5297 75.2918 31.4262C75.8587 31.3272 76.3951 31.2007 76.8931 31.0404C76.9091 31.0363 76.9247 31.0299 76.9404 31.0236C78.1861 30.6392 79.6604 29.9849 80.823 28.8902L81.362 31.6625H86.3171L86.3173 31.6415L86.3778 8.55441H81.3171Z" fill="black"/>
<path fill-rule="evenodd" clip-rule="evenodd" d="M42.0033 25.09C41.3758 25.691 40.6085 26.1695 39.7198 26.5112C38.8288 26.8528 37.8186 27.0257 36.7159 27.0257C34.8139 27.0257 33.2411 26.4627 32.045 25.3537C30.8675 24.2634 30.1045 22.8549 29.7758 21.1639C29.5482 19.9937 29.5546 18.8759 29.7944 17.8428C30.0305 16.8117 30.4669 15.9112 31.0852 15.1648C31.7008 14.4268 32.4822 13.8365 33.4068 13.4084C34.3374 12.9782 35.4061 12.7591 36.5806 12.7591C37.7045 12.7591 38.7255 12.9572 39.6195 13.3473C40.5227 13.7416 41.3002 14.2813 41.9307 14.954C42.5538 15.6203 43.0481 16.4173 43.3994 17.3241C43.7464 18.2203 43.917 19.1838 43.908 20.1685C43.9341 21.17 43.7771 22.098 43.4453 22.9308C43.1153 23.7594 42.6305 24.4871 42.0033 25.09ZM44.6003 8.55441L44.2466 11.1058C43.4835 10.4015 42.6874 9.85338 41.9045 9.42734C41.1196 9.00148 40.3479 8.69785 39.6355 8.48278C39.1951 8.34362 38.7462 8.23608 38.2941 8.1559C36.9443 7.90492 36.0238 7.96408 36.0238 7.96408L36.0284 7.96613C35.7877 7.96408 35.548 7.96817 35.314 7.97878C33.2952 8.07162 31.5175 8.52706 30.0375 9.33041C28.5477 10.138 27.3402 11.1944 26.4494 12.4701C25.5555 13.7499 24.9475 15.2324 24.6435 16.8792C24.3393 18.5259 24.3629 20.274 24.7129 22.0748C25.0318 23.7151 25.5538 25.1533 26.2653 26.3511C26.97 27.536 27.8202 28.525 28.7908 29.2882C29.7691 30.0578 30.8546 30.6524 32.0163 31.053C33.1873 31.4578 34.4037 31.6625 35.6351 31.6625C36.3415 31.6625 37.0132 31.6245 37.6532 31.555L37.6515 31.557C37.6515 31.557 38.0068 31.5297 38.575 31.4262C39.1419 31.3272 39.6783 31.2007 40.1763 31.0404C40.1923 31.0363 40.2079 31.0299 40.2236 31.0236C41.4693 30.6392 42.9436 29.9849 44.1062 28.8902L44.6452 31.6625H49.6003L49.6005 31.6415L49.661 8.55441H44.6003Z" fill="black"/>
<path fill-rule="evenodd" clip-rule="evenodd" d="M52.7656 31.6561H57.9593V0.00683594H52.7656V31.6561Z" fill="black"/>
<path fill-rule="evenodd" clip-rule="evenodd" d="M110.467 14.5192C110.465 14.513 110.462 14.5069 110.46 14.501C110.25 13.945 109.985 13.4003 109.647 12.8792C108.714 11.4329 107.296 10.3797 105.767 9.67398C105.29 9.45444 104.803 9.26653 104.315 9.11342C102.913 8.6697 101.261 8.55937 100.265 8.56867C100.265 8.56867 97.0521 8.62728 94.5697 10.196L94.2884 8.56812H89.5684V17.996V31.6563V31.6567H94.7064H94.7617V31.6563H94.762V18.8368C94.8364 17.4613 95.0552 15.9854 96.2396 14.8909C97.3497 13.8677 98.8956 13.4319 100.23 13.4319H100.265H100.299C101.633 13.4319 103.179 13.8677 104.289 14.8909C105.475 15.9867 105.693 17.4647 105.767 18.8416V31.6567H105.823H110.961V17.3646C110.961 16.3947 110.808 15.4269 110.467 14.5192Z" fill="black"/>
</svg>
