<?xml version="1.0" encoding="UTF-8" standalone="no"?>
<svg
   width="89.992531"
   height="30.000002"
   viewBox="0 0 89.992528 30.000001"
   version="1.1"
   id="svg512"
   xmlns="http://www.w3.org/2000/svg"
   xmlns:svg="http://www.w3.org/2000/svg">
  <defs
     id="defs494">
    <style
       id="style492">.a{fill:#80bc00;}.b{fill:#00a0df;}</style>
  </defs>
  <g
     id="g530"
     transform="matrix(0.5750762,0,0,0.5750762,-8.1816808e-7,0.00114975)">
    <rect
       class="a"
       width="66.209999"
       height="22.066999"
       transform="translate(0,30.098)"
       id="rect496"
       x="0"
       y="0" />
    <rect
       class="b"
       width="66.209999"
       height="22.070999"
       transform="translate(0,0.002)"
       id="rect498"
       x="0"
       y="0" />
    <path
       d="m 194.024,999.231 -0.29,0.056 a 9.217,9.217 0 0 1 -2.154,0.271 c -1.72,0 -3.768,-0.879 -3.768,-5.059 0,-2.143 0.369,-4.989 3.57,-4.989 h 0.022 a 9.463,9.463 0 0 1 2.362,0.445 l 0.258,0.076 z m 0.532,-20.773 -0.532,0.092 v 7.705 l -0.46,-0.132 -0.141,-0.04 a 11.038,11.038 0 0 0 -2.933,-0.507 c -6.449,0 -7.8,4.871 -7.8,8.958 0,5.609 3.143,8.83 8.624,8.83 a 17.645,17.645 0 0 0 5.772,-0.813 c 1.6,-0.509 2.162,-1.241 2.162,-2.791 v -22.1 c -1.549,0.279 -3.145,0.547 -4.691,0.8"
       transform="translate(-61.612,-951.569)"
       id="path500" />
    <path
       d="m 217.111,1000.958 -0.272,0.071 -0.988,0.265 a 9.659,9.659 0 0 1 -2.377,0.375 c -1.51,0 -2.416,-0.753 -2.416,-2.016 0,-0.824 0.373,-2.215 2.847,-2.215 h 3.206 z m -2.248,-13.9 a 21.746,21.746 0 0 0 -6.572,1.142 l -1.652,0.5 0.552,3.726 1.607,-0.528 a 18.935,18.935 0 0 1 5.369,-0.909 c 0.713,0 2.876,0 2.876,2.346 v 1.025 h -3.007 c -5.479,0 -8.029,1.742 -8.029,5.488 0,3.21 2.343,5.121 6.277,5.121 a 19.508,19.508 0 0 0 4.375,-0.595 l 0.073,-0.015 0.077,0.011 0.485,0.088 c 1.543,0.272 3.131,0.553 4.674,0.853 v -12.267 c 0,-3.966 -2.39,-5.985 -7.105,-5.985"
       transform="translate(-65.536,-953.152)"
       id="path502" />
    <path
       d="m 171.2,1000.958 -0.274,0.071 -0.989,0.265 a 9.62,9.62 0 0 1 -2.376,0.375 c -1.509,0 -2.413,-0.753 -2.413,-2.013 0,-0.827 0.37,-2.218 2.843,-2.218 h 3.209 z m -2.251,-13.9 a 21.742,21.742 0 0 0 -6.57,1.142 l -1.648,0.5 0.551,3.726 1.607,-0.528 a 18.843,18.843 0 0 1 5.366,-0.906 c 0.709,0 2.875,0 2.875,2.343 v 1.025 h -3.007 c -5.48,0 -8.03,1.742 -8.03,5.488 0,3.207 2.346,5.125 6.279,5.125 a 19.785,19.785 0 0 0 4.376,-0.592 l 0.073,-0.021 0.076,0.011 0.482,0.085 c 1.541,0.271 3.131,0.556 4.676,0.855 v -12.267 c 0,-3.972 -2.393,-5.985 -7.107,-5.985"
       transform="translate(-57.809,-953.152)"
       id="path504" />
    <path
       d="m 144.81,987.1 a 13.262,13.262 0 0 0 -5.332,1.189 l -0.195,0.092 -0.173,-0.128 a 8.005,8.005 0 0 0 -4.776,-1.153 19.546,19.546 0 0 0 -5.641,0.84 c -1.675,0.519 -2.325,1.309 -2.325,2.827 v 14.017 h 5.226 v -12.955 l 0.25,-0.083 a 6.869,6.869 0 0 1 2.3,-0.413 2.066,2.066 0 0 1 2.28,2.375 v 11.078 h 5.153 v -11.3 a 3.166,3.166 0 0 0 -0.16,-1.128 l -0.17,-0.341 0.349,-0.156 a 6.273,6.273 0 0 1 2.562,-0.525 2.082,2.082 0 0 1 2.279,2.375 v 11.078 h 5.152 v -11.6 c 0,-4.091 -2.214,-6.082 -6.773,-6.082"
       transform="translate(-52.132,-953.159)"
       id="path506" />
    <path
       d="m 207.935,960.681 a 17.664,17.664 0 0 1 -3.045,-0.274 l -0.294,-0.055 v -7.571 a 3.084,3.084 0 0 0 -0.151,-1.077 l -0.162,-0.323 0.332,-0.149 c 0.079,-0.036 0.166,-0.057 0.25,-0.092 l 0.054,-0.033 c 0.116,-0.043 0.23,-0.075 0.345,-0.111 0.052,-0.015 0.1,-0.032 0.151,-0.049 a 11.389,11.389 0 0 1 2.7,-0.314 h 0.022 c 3.2,0 3.569,2.85 3.569,4.993 0,4.178 -2.048,5.055 -3.767,5.055 m -0.012,-14.388 c -0.045,0 -0.1,0 -0.136,0 -3.007,0 -6.1,0.821 -7.2,2.443 a 4.832,4.832 0 0 0 -0.945,2.929 v 0 7.8 a 2.082,2.082 0 0 1 -0.16,0.976 l -0.168,0.344 h -9.494 v -5.436 H 189.8 c -0.115,-5.721 -3.5,-8.856 -8.4,-8.856 h -4.783 c -0.208,1.4 -0.353,2.375 -0.553,3.765 h 4.759 c 2.5,0 3.807,2.127 3.807,5.391 v 5.466 l -0.339,-0.174 a 3.334,3.334 0 0 0 -1.129,-0.156 h -8.212 c -0.155,1.038 -0.354,2.4 -0.574,3.763 h 25.26 c 0.853,-0.168 1.868,-0.327 2.73,-0.482 a 14.3,14.3 0 0 0 5.3,0.955 c 5.491,0 9.035,-3.667 9.035,-9.344 0,-5.6 -3.438,-9.271 -8.782,-9.388"
       transform="translate(-60.213,-946.291)"
       id="path508" />
    <path
       d="m 155.549,966.868 h 0.232 c 5.478,0 8.032,-1.813 8.032,-6.273 0,-3.21 -2.349,-5.765 -6.279,-5.765 h -5.055 a 2.172,2.172 0 0 1 -2.414,-2.314 c 0,-0.985 0.372,-2.213 2.843,-2.213 h 11.036 c 0.229,-1.439 0.364,-2.346 0.577,-3.765 h -11.48 c -5.352,0 -8.032,2.236 -8.032,5.977 0,3.7 2.346,5.617 6.279,5.617 h 5.055 a 2.384,2.384 0 0 1 2.412,2.462 c 0,0.826 -0.369,2.535 -2.84,2.535 h -0.851 l -16.178,-0.036 v 0.008 h -2.944 c -2.493,0 -4.25,-1.427 -4.25,-4.692 v -2.267 c 0,-3.418 1.358,-5.543 4.25,-5.543 h 4.821 c 0.219,-1.462 0.354,-2.371 0.56,-3.765 h -6.549 c -4.9,0 -8.288,3.288 -8.4,9.009 h -0.011 v 0.211 l 0.011,2.343 c 0.116,5.721 3.5,8.446 8.4,8.446 h 4.783 l 8.76,0.018 v 0.007 h 5.223 z"
       transform="translate(-52.131,-946.333)"
       id="path510" />
  </g>
</svg>
