<svg xmlns="http://www.w3.org/2000/svg" width="156.492" height="52.165" viewBox="0 0 156.492 52.165"><defs><style>.a{fill:#80bc00;}.b{fill:#00a0df;}</style></defs><rect class="a" width="66.21" height="22.067" transform="translate(0 30.098)"/><rect class="b" width="66.21" height="22.071" transform="translate(0 0.002)"/><path d="M194.024,999.231l-.29.056a9.217,9.217,0,0,1-2.154.271c-1.72,0-3.768-.879-3.768-5.059,0-2.143.369-4.989,3.57-4.989h.022a9.463,9.463,0,0,1,2.362.445l.258.076Zm.532-20.773-.532.092v7.705l-.46-.132-.141-.04a11.038,11.038,0,0,0-2.933-.507c-6.449,0-7.8,4.871-7.8,8.958,0,5.609,3.143,8.83,8.624,8.83a17.645,17.645,0,0,0,5.772-.813c1.6-.509,2.162-1.241,2.162-2.791v-22.1c-1.549.279-3.145.547-4.691.8" transform="translate(-61.612 -951.569)"/><path d="M217.111,1000.958l-.272.071-.988.265a9.659,9.659,0,0,1-2.377.375c-1.51,0-2.416-.753-2.416-2.016,0-.824.373-2.215,2.847-2.215h3.206Zm-2.248-13.9a21.746,21.746,0,0,0-6.572,1.142l-1.652.5.552,3.726,1.607-.528a18.935,18.935,0,0,1,5.369-.909c.713,0,2.876,0,2.876,2.346v1.025h-3.007c-5.479,0-8.029,1.742-8.029,5.488,0,3.21,2.343,5.121,6.277,5.121a19.508,19.508,0,0,0,4.375-.595l.073-.015.077.011.485.088c1.543.272,3.131.553,4.674.853V993.044c0-3.966-2.39-5.985-7.105-5.985" transform="translate(-65.536 -953.152)"/><path d="M171.2,1000.958l-.274.071-.989.265a9.62,9.62,0,0,1-2.376.375c-1.509,0-2.413-.753-2.413-2.013,0-.827.37-2.218,2.843-2.218H171.2Zm-2.251-13.9a21.742,21.742,0,0,0-6.57,1.142l-1.648.5.551,3.726,1.607-.528a18.843,18.843,0,0,1,5.366-.906c.709,0,2.875,0,2.875,2.343v1.025h-3.007c-5.48,0-8.03,1.742-8.03,5.488,0,3.207,2.346,5.125,6.279,5.125a19.785,19.785,0,0,0,4.376-.592l.073-.021.076.011.482.085c1.541.271,3.131.556,4.676.855V993.044c0-3.972-2.393-5.985-7.107-5.985" transform="translate(-57.809 -953.152)"/><path d="M144.81,987.1a13.262,13.262,0,0,0-5.332,1.189l-.195.092-.173-.128a8.005,8.005,0,0,0-4.776-1.153,19.546,19.546,0,0,0-5.641.84c-1.675.519-2.325,1.309-2.325,2.827v14.017h5.226V991.829l.25-.083a6.869,6.869,0,0,1,2.3-.413,2.066,2.066,0,0,1,2.28,2.375v11.078h5.153v-11.3a3.166,3.166,0,0,0-.16-1.128l-.17-.341.349-.156a6.273,6.273,0,0,1,2.562-.525,2.082,2.082,0,0,1,2.279,2.375v11.078h5.152v-11.6c0-4.091-2.214-6.082-6.773-6.082" transform="translate(-52.132 -953.159)"/><path d="M207.935,960.681a17.664,17.664,0,0,1-3.045-.274l-.294-.055v-7.571a3.084,3.084,0,0,0-.151-1.077l-.162-.323.332-.149c.079-.036.166-.057.25-.092l.054-.033c.116-.043.23-.075.345-.111.052-.015.1-.032.151-.049a11.389,11.389,0,0,1,2.7-.314h.022c3.2,0,3.569,2.85,3.569,4.993,0,4.178-2.048,5.055-3.767,5.055m-.012-14.388c-.045,0-.1,0-.136,0-3.007,0-6.1.821-7.2,2.443a4.832,4.832,0,0,0-.945,2.929l0,0v7.8a2.082,2.082,0,0,1-.16.976l-.168.344h-9.494v-5.436H189.8c-.115-5.721-3.5-8.856-8.4-8.856h-4.783c-.208,1.4-.353,2.375-.553,3.765h4.759c2.5,0,3.807,2.127,3.807,5.391v5.466l-.339-.174a3.334,3.334,0,0,0-1.129-.156h-8.212c-.155,1.038-.354,2.4-.574,3.763h25.26c.853-.168,1.868-.327,2.73-.482a14.3,14.3,0,0,0,5.3.955c5.491,0,9.035-3.667,9.035-9.344,0-5.6-3.438-9.271-8.782-9.388" transform="translate(-60.213 -946.291)"/><path d="M155.549,966.868h.232c5.478,0,8.032-1.813,8.032-6.273,0-3.21-2.349-5.765-6.279-5.765h-5.055a2.172,2.172,0,0,1-2.414-2.314c0-.985.372-2.213,2.843-2.213h11.036c.229-1.439.364-2.346.577-3.765H153.041c-5.352,0-8.032,2.236-8.032,5.977,0,3.7,2.346,5.617,6.279,5.617h5.055a2.384,2.384,0,0,1,2.412,2.462c0,.826-.369,2.535-2.84,2.535h-.851l-16.178-.036v.008h-2.944c-2.493,0-4.25-1.427-4.25-4.692v-2.267c0-3.418,1.358-5.543,4.25-5.543h4.821c.219-1.462.354-2.371.56-3.765h-6.549c-4.9,0-8.288,3.288-8.4,9.009h-.011v.211l.011,2.343c.116,5.721,3.5,8.446,8.4,8.446h4.783l8.76.018v.007h5.223l2.009,0Z" transform="translate(-52.131 -946.333)"/></svg>