<?xml version="1.0" encoding="UTF-8" standalone="no"?>
<!-- Generator: Adobe Illustrator 21.1.0, SVG Export Plug-In . SVG Version: 6.00 Build 0)  -->

<svg
   version="1.1"
   id="Artwork"
   x="0px"
   y="0px"
   width="46.860905"
   height="29.999886"
   viewBox="0 0 46.860904 29.999885"
   enable-background="new 0 0 165.52107 105.9651"
   xml:space="preserve"
   xmlns="http://www.w3.org/2000/svg"
   xmlns:svg="http://www.w3.org/2000/svg"><defs
   id="defs147" />
<g
   id="g130"
   transform="matrix(0.28311208,0,0,0.28311208,-1.0062275e-6,-6.3759771e-7)">
	<path
   id="XMLID_4_"
   d="M 150.69807,0 H 14.82318 c -0.5659,0 -1.1328,0 -1.69769,0.0033 -0.47751,0.0034 -0.95391,0.0087 -1.43031,0.0217 -1.039,0.0281 -2.0869,0.0894 -3.1129,0.2738 -1.0424,0.1876 -2.0124,0.4936 -2.9587,0.9754 -0.9303,0.4731 -1.782,1.0919 -2.52009,1.8303 -0.73841,0.7384 -1.35721,1.5887 -1.83021,2.52 -0.4819,0.9463 -0.7881,1.9166 -0.9744,2.9598 -0.18539,1.0263 -0.2471,2.074 -0.2751,3.1119 -0.0128,0.4764 -0.01829,0.9528 -0.0214,1.4291 -0.0033,0.5661 -0.0022,1.1318 -0.0022,1.6989 V 91.142 c 0,0.5671 -0.0011,1.13181 0.0022,1.69901 0.00311,0.4763 0.0086,0.9527 0.0214,1.4291 0.028,1.03699 0.08971,2.08469 0.2751,3.11069 0.1863,1.0436 0.4925,2.0135 0.9744,2.9599 0.473,0.9313 1.0918,1.7827 1.83021,2.52 0.73809,0.7396 1.58979,1.3583 2.52009,1.8302 0.9463,0.4831 1.9163,0.7892 2.9587,0.9767 1.026,0.1832 2.0739,0.2456 3.1129,0.2737 0.4764,0.0108 0.9528,0.0172 1.43031,0.0194 0.56489,0.004 1.13179,0.004 1.69769,0.004 h 135.87489 c 0.5649,0 1.13181,0 1.69659,-0.004 0.47641,-0.002 0.95282,-0.009 1.4314,-0.0194 1.0368,-0.0281 2.0845,-0.0905 3.11301,-0.2737 1.041,-0.1875 2.0112,-0.4936 2.9576,-0.9767 0.9313,-0.4719 1.7805,-1.0906 2.52011,-1.8302 0.7372,-0.7373 1.35599,-1.5887 1.8302,-2.52 0.48299,-0.9464 0.78889,-1.9163 0.97429,-2.9599 0.1855,-1.026 0.2457,-2.0737 0.2738,-3.11069 0.013,-0.4764 0.0194,-0.9528 0.0216,-1.4291 0.004,-0.5672 0.004,-1.1319 0.004,-1.69901 V 14.8242 c 0,-0.5671 0,-1.1328 -0.004,-1.6989 -0.002,-0.4763 -0.009,-0.9527 -0.0216,-1.4291 -0.0281,-1.0379 -0.0883,-2.0856 -0.2738,-3.1119 -0.18539,-1.0432 -0.4913,-2.0135 -0.97429,-2.9598 -0.47421,-0.9313 -1.093,-1.7816 -1.8302,-2.52 -0.73961,-0.7384 -1.58881,-1.3572 -2.52011,-1.8303 -0.9464,-0.4818 -1.9166,-0.7878 -2.9576,-0.9754 -1.0285,-0.1844 -2.0762,-0.2457 -3.11301,-0.2738 -0.47858,-0.013 -0.95499,-0.0183 -1.4314,-0.0217 C 151.82988,0 151.26297,0 150.69807,0 Z" />
	<path
   id="XMLID_3_"
   fill="#ffffff"
   d="m 150.69807,3.532 1.67149,0.0032 c 0.4528,0.0032 0.90561,0.0081 1.36092,0.0205 0.79201,0.0214 1.71849,0.0643 2.58209,0.2191 0.7507,0.1352 1.38029,0.3408 1.9845,0.6484 0.5965,0.3031 1.14301,0.7003 1.62019,1.1768 0.479,0.4797 0.87671,1.0271 1.18381,1.6302 0.30589,0.5995 0.51019,1.2261 0.64459,1.9823 0.1544,0.8542 0.1971,1.7832 0.21881,2.5801 0.0122,0.4498 0.0182,0.8996 0.0204,1.3601 0.004,0.5569 0.004,1.1135 0.004,1.6715 V 91.142 c 0,0.558 9e-5,1.1136 -0.004,1.6824 -0.002,0.4497 -0.008,0.8995 -0.0204,1.3501 -0.0216,0.7957 -0.0643,1.7242 -0.2206,2.5885 -0.13251,0.7458 -0.3367,1.3725 -0.64429,1.975 -0.30621,0.6016 -0.70331,1.1484 -1.18022,1.6251 -0.47989,0.48 -1.0246,0.876 -1.62819,1.1819 -0.5997,0.3061 -1.22821,0.51151 -1.97151,0.6453 -0.88109,0.157 -1.84639,0.2002 -2.57339,0.2199 -0.4574,0.0103 -0.9126,0.0165 -1.37889,0.0187 -0.55571,0.004 -1.1134,0.004 -1.6692,0.004 h -135.875 c -0.0074,0 -0.0146,0 -0.0221,0 -0.5494,0 -1.0999,0 -1.6593,-0.004 -0.4561,-0.002 -0.9112,-0.008 -1.3512,-0.0182 -0.7436,-0.0201 -1.7095,-0.0632 -2.5834,-0.2193 -0.74969,-0.1348 -1.3782,-0.3402 -1.9858,-0.6503 -0.59789,-0.3032 -1.1422,-0.6988 -1.6223,-1.1797 C 5.12268,99.8857 4.72678,99.3406 4.42068,98.7381 4.11428,98.1362 3.90928,97.5076 3.77449,96.7529 3.61868,95.8903 3.57588,94.9655 3.55449,94.1752 3.54228,93.7227 3.53718,93.2703 3.53428,92.8205 l -0.0022,-1.3279 10e-5,-0.3506 V 14.8242 l -10e-5,-0.3506 0.0021,-1.3251 c 0.003,-0.4525 0.0081,-0.9049 0.02031,-1.357 C 3.57588,11.0004 3.61868,10.0752 3.77578,9.2054 3.90938,8.4575 4.11428,7.8289 4.42228,7.224 4.72598,6.6261 5.12258,6.0803 5.60149,5.6015 6.07849,5.1243 6.62458,4.7276 7.22628,4.4216 7.82738,4.1155 8.45708,3.91 9.20678,3.7751 c 0.8638,-0.1552 1.7909,-0.198 2.5849,-0.2195 0.4526,-0.0123 0.9052,-0.0172 1.3544,-0.0203 l 1.6771,-0.0033 h 135.87489" />
	<g
   id="g128">
		<g
   id="g118">
			<path
   d="m 45.1862,35.64053 c 1.41724,-1.77266 2.37897,-4.15282 2.12532,-6.58506 -2.07464,0.10316 -4.60634,1.36871 -6.07207,3.14276 -1.31607,1.5192 -2.4809,3.99902 -2.17723,6.3293 2.32889,0.20201 4.65563,-1.16408 6.12398,-2.887"
   id="path114" />
			<path
   d="m 47.28506,38.98252 c -3.38211,-0.20146 -6.25773,1.91951 -7.87286,1.91951 -1.61602,0 -4.08931,-1.81799 -6.76438,-1.76899 -3.48177,0.05114 -6.71245,2.01976 -8.4793,5.15079 -3.63411,6.2636 -0.95904,15.55471 2.57494,20.65606 1.71618,2.5238 3.78447,5.30269 6.50976,5.20287 2.57494,-0.10104 3.58421,-1.66732 6.71416,-1.66732 3.12765,0 4.03679,1.66732 6.76252,1.61681 2.82665,-0.05054 4.59381,-2.52506 6.30997,-5.05132 1.96878,-2.877 2.77473,-5.65498 2.82542,-5.80748 -0.0507,-0.05051 -5.45058,-2.12204 -5.50065,-8.33358 -0.05098,-5.20101 4.23951,-7.6749 4.44144,-7.82832 C 52.3832,39.4881 48.5975,39.08404 47.28506,38.98252"
   id="path116" />
		</g>
		<g
   id="g126">
			<path
   d="m 76.73385,31.94381 c 7.35096,0 12.4697,5.06708 12.4697,12.44437 0,7.40363 -5.22407,12.49704 -12.65403,12.49704 H 68.4106 V 69.8284 H 62.53023 V 31.9438 H 76.73385 Z M 68.41059,51.9493 h 6.74732 c 5.11975,0 8.0336,-2.75636 8.0336,-7.53479 0,-4.77792 -2.91385,-7.50845 -8.00727,-7.50845 h -6.77365 z"
   id="path120" />
			<path
   d="m 90.73997,61.97864 c 0,-4.8311 3.70182,-7.79761 10.26583,-8.16526 l 7.56061,-0.44614 v -2.12639 c 0,-3.07185 -2.07423,-4.90959 -5.53905,-4.90959 -3.28251,0 -5.33041,1.57492 -5.82871,4.04313 h -5.35574 c 0.31499,-4.98859 4.56777,-8.66407 11.3941,-8.66407 6.69466,0 10.97377,3.54432 10.97377,9.08388 v 19.03421 h -5.43472 v -4.54194 h -0.13065 c -1.60125,3.07185 -5.09341,5.01441 -8.71623,5.01441 -5.4084,0 -9.18921,-3.3605 -9.18921,-8.32224 z m 17.82644,-2.49404 v -2.17905 l -6.8,0.41981 c -3.38683,0.23649 -5.30306,1.73291 -5.30306,4.09579 0,2.41504 1.99523,3.99046 5.04075,3.99046 3.96413,0 7.06231,-2.73053 7.06231,-6.32701 z"
   id="path122" />
			<path
   d="m 119.34167,79.9889 v -4.5946 c 0.4193,0.10483 1.36425,0.10483 1.83723,0.10483 2.6252,0 4.04313,-1.10245 4.90908,-3.9378 0,-0.05267 0.49931,-1.68025 0.49931,-1.70658 l -9.97616,-27.64562 h 6.14268 l 6.98432,22.47371 h 0.10432 l 6.98433,-22.47371 h 5.9857 l -10.34483,29.06304 c -2.36186,6.69517 -5.0924,8.84789 -10.81577,8.84789 -0.47297,0 -1.8909,-0.05267 -2.31021,-0.13116 z"
   id="path124" />
		</g>
	</g>
</g>






</svg>
