<?xml version="1.0" encoding="UTF-8"?>
<svg xmlns="http://www.w3.org/2000/svg" xmlns:xlink="http://www.w3.org/1999/xlink" width="91px" height="36px" viewBox="0 0 90 36" version="1.1">
<g id="surface1">
<path style=" stroke:none;fill-rule:nonzero;fill:rgb(16.078432%,16.078432%,16.078432%);fill-opacity:1;" d="M 78.023438 10.847656 L 72.734375 31.195312 L 72.71875 31.242188 L 76.84375 31.242188 L 82.152344 10.847656 Z M 78.023438 10.847656 "/>
<path style=" stroke:none;fill-rule:nonzero;fill:rgb(16.078432%,16.078432%,16.078432%);fill-opacity:1;" d="M 12.539062 22.429688 C 11.921875 22.734375 11.238281 22.894531 10.550781 22.890625 C 9.066406 22.890625 8.222656 22.652344 8.132812 21.441406 L 8.132812 21.363281 C 8.132812 21.3125 8.128906 21.273438 8.128906 21.214844 L 8.128906 17.695312 L 8.132812 17.28125 L 8.132812 14.800781 L 8.128906 14.800781 L 8.128906 13.746094 L 8.132812 13.328125 L 8.132812 10.933594 L 4.449219 11.421875 C 6.941406 10.9375 8.371094 8.953125 8.371094 6.976562 L 8.371094 5.757812 L 4.234375 5.757812 L 4.234375 11.453125 L 4 11.519531 L 4 22.070312 C 4.136719 25.035156 6.074219 26.796875 9.257812 26.796875 C 10.382812 26.796875 11.621094 26.539062 12.570312 26.105469 L 12.589844 26.097656 L 12.589844 22.398438 Z M 12.539062 22.429688 "/>
<path style=" stroke:none;fill-rule:nonzero;fill:rgb(16.078432%,16.078432%,16.078432%);fill-opacity:1;" d="M 13.191406 10.078125 L 1.582031 11.882812 L 1.582031 14.847656 L 13.191406 13.042969 Z M 13.191406 10.078125 "/>
<path style=" stroke:none;fill-rule:nonzero;fill:rgb(16.078432%,16.078432%,16.078432%);fill-opacity:1;" d="M 13.191406 14.417969 L 1.582031 16.21875 L 1.582031 19.050781 L 13.191406 17.25 Z M 13.191406 14.417969 "/>
<path style=" stroke:none;fill-rule:nonzero;fill:rgb(16.078432%,16.078432%,16.078432%);fill-opacity:1;" d="M 26.21875 15.78125 C 26.054688 12.488281 24.011719 10.535156 20.683594 10.535156 C 18.769531 10.535156 17.191406 11.28125 16.117188 12.691406 C 15.046875 14.101562 14.488281 16.160156 14.488281 18.667969 C 14.488281 21.171875 15.050781 23.238281 16.117188 24.644531 C 17.1875 26.046875 18.769531 26.796875 20.683594 26.796875 C 24.011719 26.796875 26.054688 24.835938 26.21875 21.523438 L 26.21875 26.488281 L 30.351562 26.488281 L 30.351562 10.882812 L 26.21875 11.523438 Z M 26.4375 18.667969 C 26.4375 21.585938 24.914062 23.472656 22.5625 23.472656 C 20.136719 23.472656 18.6875 21.675781 18.6875 18.667969 C 18.683594 15.644531 20.132812 13.835938 22.558594 13.835938 C 23.738281 13.835938 24.722656 14.300781 25.410156 15.175781 C 26.078125 16.03125 26.433594 17.238281 26.433594 18.667969 Z M 26.4375 18.667969 "/>
<path style=" stroke:none;fill-rule:nonzero;fill:rgb(16.078432%,16.078432%,16.078432%);fill-opacity:1;" d="M 42.421875 10.535156 C 39.089844 10.535156 37.042969 12.488281 36.882812 15.785156 L 36.882812 6.339844 L 32.746094 6.984375 L 32.746094 26.488281 L 36.882812 26.488281 L 36.882812 21.523438 C 37.042969 24.839844 39.089844 26.800781 42.421875 26.800781 C 46.316406 26.800781 48.644531 23.761719 48.644531 18.671875 C 48.644531 13.578125 46.316406 10.535156 42.421875 10.535156 Z M 40.542969 23.46875 C 38.1875 23.46875 36.667969 21.585938 36.667969 18.667969 C 36.667969 17.238281 37.019531 16.03125 37.691406 15.171875 C 38.375 14.296875 39.363281 13.835938 40.542969 13.835938 C 42.964844 13.835938 44.417969 15.644531 44.417969 18.667969 C 44.417969 21.675781 42.96875 23.46875 40.542969 23.46875 Z M 40.542969 23.46875 "/>
<path style=" stroke:none;fill-rule:nonzero;fill:rgb(16.078432%,16.078432%,16.078432%);fill-opacity:1;" d="M 59.910156 10.535156 C 56.578125 10.535156 54.535156 12.488281 54.371094 15.785156 L 54.371094 6.339844 L 50.234375 6.984375 L 50.234375 26.488281 L 54.371094 26.488281 L 54.371094 21.523438 C 54.535156 24.839844 56.578125 26.800781 59.910156 26.800781 C 63.808594 26.800781 66.136719 23.761719 66.136719 18.671875 C 66.136719 13.578125 63.808594 10.535156 59.910156 10.535156 Z M 58.03125 23.46875 C 55.679688 23.46875 54.15625 21.585938 54.15625 18.667969 C 54.15625 17.238281 54.511719 16.03125 55.179688 15.171875 C 55.867188 14.296875 56.851562 13.835938 58.03125 13.835938 C 60.457031 13.835938 61.90625 15.644531 61.90625 18.667969 C 61.90625 21.675781 60.457031 23.46875 58.03125 23.46875 Z M 58.03125 23.46875 "/>
<path style=" stroke:none;fill-rule:nonzero;fill:rgb(16.078432%,16.078432%,16.078432%);fill-opacity:1;" d="M 66.144531 10.847656 L 70.5625 10.847656 L 74.152344 26.457031 L 70.191406 26.457031 Z M 66.144531 10.847656 "/>
</g>
</svg>
