<svg xmlns="http://www.w3.org/2000/svg" viewBox="0 0 185 26" fill="currentColor"
   class="h-[26px] mb-[22px]">
   <path
      d="M90.59 5.778c-2.23-.854-4.46-1.248-7.15-.657-2.165.46-3.87 1.313-4.985 3.48.525.394.918.788 1.377 1.182.722.656 1.444 1.247 2.427 2.035.788-1.116 2.165-2.364 3.674-2.43 1.705-.065 3.345.92 3.608 2.299.13.59.197 2.954.197 2.954l-.919.197c-.066 0-.262.066-.525 0-.065 0-.065-.065-.13-.065-.066 0-.066 0-.132-.066-2.034-.722-3.936-1.116-5.773-1.116-.656 0-1.311.065-1.968.131-2.033.328-4.394 1.444-4.394 5.121 0 1.379.328 2.43.918 3.283 1.115 1.51 2.69 2.43 4.788 2.43 2.296 0 4.33-.592 6.298-2.167.065 0 .459-.394.59-.46l1.246-.985v3.611h5.183V11.818c-.132-2.823-1.706-5.056-4.33-6.04Zm-1.64 11.818c-1.115 1.97-2.886 3.086-4.985 3.086h-.263c-.393 0-.852-.066-1.311-.132-1.575-.394-2.428-1.641-2.362-3.348l.066-.722h9.511l-.656 1.116Zm55.56-11.818c-2.23-.854-4.46-1.248-7.15-.657-2.165.46-3.87 1.313-4.985 3.48.524.394.918.788 1.377 1.182.722.656 1.443 1.247 2.427 2.035.787-1.116 2.165-2.364 3.674-2.43 1.705-.065 3.345.92 3.608 2.299.131.59.196 2.954.196 2.954l-.918.197c-.066 0-.262.066-.525 0-.065 0-.065-.065-.131-.065s-.066 0-.131-.066c-2.034-.722-3.936-1.116-5.773-1.116-.656 0-1.312.065-1.968.131-2.033.328-4.395 1.444-4.395 5.121 0 1.379.328 2.43.919 3.283 1.115 1.51 2.689 2.43 4.788 2.43 2.296 0 4.33-.592 6.298-2.167.065 0 .459-.394.59-.46l1.246-.985v3.611h5.183V11.818c-.132-2.823-1.64-5.056-4.33-6.04Zm-1.64 11.818c-1.115 1.97-2.886 3.086-4.985 3.086h-.263c-.393 0-.852-.066-1.311-.132-1.575-.394-2.428-1.641-2.362-3.348l.066-.722h9.511l-.656 1.116Zm36.931-11.818c-2.23-.854-4.46-1.248-7.15-.657-2.165.46-3.87 1.313-4.985 3.48.524.394.918.788 1.377 1.182.722.656 1.443 1.247 2.427 2.035.788-1.116 2.165-2.364 3.674-2.43 1.705-.065 3.345.92 3.608 2.299.131.59.196 2.954.196 2.954l-.918.197c-.066 0-.262.066-.525 0-.065 0-.065-.065-.131-.065s-.065 0-.131-.066c-2.034-.722-3.936-1.116-5.773-1.116-.656 0-1.312.065-1.968.131-2.033.328-4.395 1.444-4.395 5.121 0 1.379.328 2.43.919 3.283 1.115 1.51 2.689 2.43 4.788 2.43 2.296 0 4.33-.592 6.298-2.167.065 0 .459-.394.59-.46l1.246-.985v3.611h5.183V11.818c-.132-2.823-1.706-5.056-4.33-6.04Zm-1.64 11.818c-1.115 1.97-2.886 3.086-4.985 3.086h-.263c-.393 0-.852-.066-1.311-.132-1.575-.394-2.428-1.641-2.362-3.348l.066-.722h9.511l-.656 1.116ZM162.878 6.435c-1.64.065-2.887.787-3.674 2.232-.065.131-.656 1.247-.656 1.247l-1.246-.262V6.697h-4.986V24.49h4.986v-6.96c0-.59-.066-1.181 0-1.838.131-2.298 1.902-4.005 4.067-4.268a57.041 57.041 0 0 1 2.624-.13v-4.86h-1.115ZM71.96 20.354c-.394 0-.853 0-1.313-.132-1.311-.197-2.164-.853-2.492-1.904-.131-.46-.263-.919-.263-1.379V8.995h.788c1.64-.066 3.41-.197 5.116-.657l-1.05-3.61-4.788.721V0h-5.641v5.318H58.38v3.677h3.804v9.52c0 1.248.328 2.364.984 3.349.788 1.181 1.837 1.904 3.477 2.298 1.771.46 3.477.394 5.38.394h.458v-4.203h-.525Zm43.36-5.91c0-1.772 1.181-3.217 2.821-3.348 1.968-.197 3.345.788 3.739 2.626.065.328.065.657.065.985v9.783h4.986V12.475c0-.723-.066-1.248-.131-1.707-.394-2.233-1.575-3.546-3.608-4.137-2.165-.59-5.773-.131-7.478 2.823l-.788 1.51c-.393-2.232-1.705-3.808-3.673-4.398-2.165-.591-5.445-.066-7.084 2.823l-.722 1.313V6.697h-5.248V24.49h5.182v-9.652c0-.328 0-.656.066-.984.197-1.314 1.05-2.298 2.296-2.627 1.443-.394 2.886.066 3.673 1.116.591.788.656 1.642.656 2.298v9.849h5.248M2.361 6.894C1.311 8.076.525 9.324 0 10.702l16.53 13.722c.788-.525 1.575-1.05 2.23-1.772l.329-.329c6.297-6.565 2.165-13.656-.328-16.02-4.526-4.399-11.742-4.267-16.072.263l-.328.328Zm45.657 7.616c0 6.369-5.117 11.49-11.48 11.49a11.455 11.455 0 0 1-11.48-11.49c0-6.303 5.117-11.49 11.48-11.49 6.363.066 11.48 5.187 11.48 11.49Z">
   </path>
</svg>