<?xml version="1.0" encoding="UTF-8"?>
<svg xmlns="http://www.w3.org/2000/svg" xmlns:xlink="http://www.w3.org/1999/xlink" width="257px" height="36px" viewBox="0 0 256 36" version="1.1">
<g id="surface1">
<path style=" stroke:none;fill-rule:nonzero;fill:rgb(0%,0%,0%);fill-opacity:1;" d="M 125.355469 8 C 122.269531 6.816406 119.183594 6.273438 115.464844 7.089844 C 112.46875 7.726562 110.109375 8.910156 108.566406 11.910156 C 109.292969 12.453125 109.835938 13 110.46875 13.546875 C 111.46875 14.453125 112.46875 15.273438 113.828125 16.363281 C 114.917969 14.816406 116.824219 13.089844 118.914062 13 C 121.273438 12.910156 123.542969 14.273438 123.90625 16.183594 C 124.085938 17 124.179688 20.273438 124.179688 20.273438 L 122.90625 20.546875 C 122.816406 20.546875 122.542969 20.636719 122.179688 20.546875 C 122.089844 20.546875 122.089844 20.453125 122 20.453125 C 121.910156 20.453125 121.910156 20.453125 121.816406 20.363281 C 119.003906 19.363281 116.371094 18.816406 113.828125 18.816406 C 112.921875 18.816406 112.015625 18.910156 111.105469 19 C 108.292969 19.453125 105.023438 21 105.023438 26.089844 C 105.023438 28 105.480469 29.453125 106.296875 30.636719 C 107.839844 32.726562 110.019531 34 112.921875 34 C 116.097656 34 118.914062 33.179688 121.636719 31 C 121.726562 31 122.269531 30.453125 122.453125 30.363281 L 124.175781 29 L 124.175781 34 L 131.347656 34 L 131.347656 16.363281 C 131.167969 12.453125 128.988281 9.363281 125.355469 8 Z M 123.085938 24.363281 C 121.542969 27.089844 119.09375 28.636719 116.1875 28.636719 L 115.824219 28.636719 C 115.28125 28.636719 114.648438 28.546875 114.011719 28.453125 C 111.832031 27.910156 110.652344 26.183594 110.742188 23.816406 L 110.835938 22.820312 L 123.996094 22.820312 Z M 199.96875 8 C 196.882812 6.816406 193.800781 6.273438 190.078125 7.089844 C 187.082031 7.726562 184.722656 8.910156 183.179688 11.910156 C 183.902344 12.453125 184.449219 13 185.082031 13.546875 C 186.082031 14.453125 187.082031 15.273438 188.441406 16.363281 C 189.53125 14.816406 191.4375 13.089844 193.527344 13 C 195.886719 12.910156 198.15625 14.273438 198.519531 16.183594 C 198.699219 17 198.789062 20.273438 198.789062 20.273438 L 197.519531 20.546875 C 197.429688 20.546875 197.15625 20.636719 196.792969 20.546875 C 196.703125 20.546875 196.703125 20.453125 196.613281 20.453125 C 196.519531 20.453125 196.519531 20.453125 196.429688 20.363281 C 193.617188 19.363281 190.984375 18.816406 188.441406 18.816406 C 187.535156 18.816406 186.625 18.910156 185.71875 19 C 182.90625 19.453125 179.636719 21 179.636719 26.089844 C 179.636719 28 180.089844 29.453125 180.910156 30.636719 C 182.453125 32.726562 184.628906 34 187.535156 34 C 190.710938 34 193.527344 33.179688 196.25 31 C 196.339844 31 196.882812 30.453125 197.066406 30.363281 L 198.789062 29 L 198.789062 34 L 205.960938 34 L 205.960938 16.363281 C 205.78125 12.453125 203.691406 9.363281 199.96875 8 Z M 197.703125 24.363281 C 196.160156 27.089844 193.707031 28.636719 190.804688 28.636719 L 190.4375 28.636719 C 189.894531 28.636719 189.261719 28.546875 188.625 28.453125 C 186.445312 27.910156 185.265625 26.183594 185.355469 23.816406 L 185.449219 22.820312 L 198.609375 22.820312 Z M 248.804688 8 C 245.71875 6.816406 242.632812 6.273438 238.910156 7.089844 C 235.914062 7.726562 233.554688 8.910156 232.011719 11.910156 C 232.738281 12.453125 233.285156 13 233.917969 13.546875 C 234.917969 14.453125 235.914062 15.273438 237.277344 16.363281 C 238.367188 14.816406 240.273438 13.089844 242.363281 13 C 244.722656 12.910156 246.988281 14.273438 247.355469 16.183594 C 247.535156 17 247.625 20.273438 247.625 20.273438 L 246.355469 20.546875 C 246.265625 20.546875 245.992188 20.636719 245.628906 20.546875 C 245.539062 20.546875 245.539062 20.453125 245.445312 20.453125 C 245.355469 20.453125 245.355469 20.453125 245.265625 20.363281 C 242.453125 19.363281 239.820312 18.816406 237.277344 18.816406 C 236.371094 18.816406 235.460938 18.910156 234.554688 19 C 231.742188 19.453125 228.472656 21 228.472656 26.089844 C 228.472656 28 228.925781 29.453125 229.742188 30.636719 C 231.285156 32.726562 233.464844 34 236.371094 34 C 239.546875 34 242.363281 33.179688 245.085938 31 C 245.175781 31 245.71875 30.453125 245.902344 30.363281 L 247.625 29 L 247.625 34 L 254.796875 34 L 254.796875 16.363281 C 254.613281 12.453125 252.4375 9.363281 248.804688 8 Z M 246.535156 24.363281 C 244.992188 27.089844 242.542969 28.636719 239.636719 28.636719 L 239.273438 28.636719 C 238.730469 28.636719 238.09375 28.546875 237.460938 28.453125 C 235.28125 27.910156 234.101562 26.183594 234.191406 23.816406 L 234.28125 22.820312 L 247.445312 22.820312 Z M 225.386719 8.910156 C 223.117188 9 221.394531 10 220.304688 12 C 220.214844 12.183594 219.394531 13.726562 219.394531 13.726562 L 217.671875 13.363281 L 217.671875 9.273438 L 210.773438 9.273438 L 210.773438 33.910156 L 217.671875 33.910156 L 217.671875 24.273438 C 217.671875 23.457031 217.582031 22.636719 217.671875 21.726562 C 217.851562 18.546875 220.304688 16.183594 223.300781 15.816406 C 224.507812 15.730469 225.71875 15.671875 226.929688 15.636719 L 226.929688 8.910156 Z M 99.578125 28.183594 C 99.03125 28.183594 98.398438 28.183594 97.761719 28 C 95.945312 27.726562 94.765625 26.820312 94.3125 25.363281 C 94.128906 24.726562 93.949219 24.089844 93.949219 23.453125 L 93.949219 12.453125 L 95.039062 12.453125 C 97.308594 12.363281 99.757812 12.183594 102.117188 11.546875 L 100.664062 6.546875 L 94.039062 7.542969 L 94.039062 0 L 86.234375 0 L 86.234375 7.363281 L 80.785156 7.363281 L 80.785156 12.453125 L 86.050781 12.453125 L 86.050781 25.636719 C 86.050781 27.363281 86.503906 28.910156 87.410156 30.273438 C 88.5 31.910156 89.953125 32.910156 92.222656 33.453125 C 94.671875 34.09375 97.035156 34 99.667969 34 L 100.300781 34 L 100.300781 28.179688 L 99.574219 28.179688 Z M 159.578125 20 C 159.578125 17.546875 161.210938 15.546875 163.480469 15.363281 C 166.203125 15.089844 168.109375 16.453125 168.65625 19 C 168.746094 19.453125 168.746094 19.910156 168.746094 20.363281 L 168.746094 33.910156 L 175.644531 33.910156 L 175.644531 17.273438 C 175.644531 16.273438 175.554688 15.546875 175.464844 14.910156 C 174.917969 11.816406 173.285156 10 170.472656 9.179688 C 167.476562 8.363281 162.484375 9 160.125 13.089844 L 159.03125 15.179688 C 158.488281 12.089844 156.671875 9.910156 153.949219 9.089844 C 150.953125 8.273438 146.414062 9 144.148438 13 L 143.148438 14.816406 L 143.148438 9.273438 L 135.886719 9.273438 L 135.886719 33.910156 L 143.058594 33.910156 L 143.058594 20.546875 C 143.058594 20.089844 143.058594 19.636719 143.148438 19.183594 C 143.421875 17.363281 144.601562 16 146.324219 15.546875 C 148.320312 15 150.320312 15.636719 151.40625 17.089844 C 152.226562 18.179688 152.316406 19.363281 152.316406 20.273438 L 152.316406 33.910156 L 159.578125 33.910156 M 3.265625 9.546875 C 1.8125 11.183594 0.726562 12.910156 0 14.816406 L 22.875 33.816406 C 23.964844 33.089844 25.054688 32.363281 25.960938 31.363281 L 26.414062 30.910156 C 35.128906 21.820312 29.410156 12 25.960938 8.726562 C 19.699219 2.636719 9.710938 2.820312 3.722656 9.089844 Z M 66.445312 20.089844 C 66.445312 28.910156 59.367188 36 50.5625 36 C 46.34375 36.007812 42.292969 34.335938 39.3125 31.351562 C 36.332031 28.363281 34.660156 24.3125 34.675781 20.089844 C 34.675781 11.363281 41.753906 4.179688 50.5625 4.179688 C 59.367188 4.273438 66.445312 11.363281 66.445312 20.089844 Z M 66.445312 20.089844 "/>
</g>
</svg>
