<?xml version="1.0" encoding="UTF-8"?>
<!-- Generator: Adobe Illustrator 25.2.3, SVG Export Plug-In . SVG Version: 6.00 Build 0)  -->
<svg version="1.1" id="Layer_1" xmlns="http://www.w3.org/2000/svg" xmlns:xlink="http://www.w3.org/1999/xlink" x="0px" y="0px" viewBox="0 0 1120.68 160.96" style="enable-background:new 0 0 1120.68 160.96;" xml:space="preserve">
<style type="text/css">
	.st0{fill:#293841;}
	.st1{fill:#AB2A25;}
	.st2{fill:#DA3832;}
</style>
<g>
	<g>
		<path class="st0" d="M620.78,156.12c-0.69,0-1.25-0.56-1.25-1.25V6.09c0-0.69,0.56-1.25,1.25-1.25c0.69,0,1.25,0.56,1.25,1.25    v148.77C622.03,155.56,621.47,156.12,620.78,156.12z"/>
	</g>
	<g>
		<g>
			<path class="st1" d="M1112.78,83.42c0-7.79-5.61-11.6-14.09-17.94c-8.27-6.18-22.33-15.27-30.71-20.26     c-8.37-4.99-21.99-12.68-31.4-17.18c-9.48-4.54-17.06-7.54-21.64-7.54c-4.58,0-7.76,1.44-10.01,4.44     c-2.25,2.99-3.59,7.38-4.49,12.93c-0.9,5.54-1.37,12.26-1.62,19.92c-0.24,7.67-0.26,25.64-0.26,25.64l0,0     c0,0,0.02,17.97,0.26,25.63c0.25,7.66,0.72,14.38,1.62,19.92c0.9,5.55,2.24,9.94,4.49,12.93c2.25,3,5.43,4.44,10.01,4.44     c4.58,0,12.16-3.01,21.64-7.54c9.41-4.5,23.02-12.19,31.4-17.18c8.38-4.99,22.44-14.08,30.71-20.26     C1107.16,95.02,1112.78,91.21,1112.78,83.42L1112.78,83.42L1112.78,83.42z"/>
		</g>
		<g>
			<g>
				<path class="st2" d="M1100.25,73.92h-1.76c-0.82,0-1.49,0.67-1.49,1.5v16.02c0,0.82,0.67,1.5,1.49,1.5h1.76      c0.82,0,1.5-0.67,1.5-1.5V75.42C1101.75,74.59,1101.07,73.92,1100.25,73.92z"/>
				<path class="st2" d="M1046.22,69.17h1.76c0.82,0,1.5-0.67,1.5-1.5V42.15c0-0.83-0.67-1.5-1.5-1.5h-1.76      c-0.82,0-1.5,0.67-1.5,1.5v25.52C1044.72,68.5,1045.39,69.17,1046.22,69.17z"/>
				<path class="st2" d="M1062.23,111.94h-1.75c-0.84,0-1.5,0.67-1.5,1.5v1.76c0,0.82,0.67,1.5,1.5,1.5h1.75      c0.83,0,1.5-0.67,1.5-1.5v-1.76C1063.73,112.62,1063.06,111.94,1062.23,111.94z"/>
				<path class="st2" d="M1008.2,59.66h20.77c0.82,0,1.49-0.67,1.49-1.5v-8.01h8.01c0.83,0,1.5-0.67,1.5-1.49V37.4      c0-0.83-0.67-1.5-1.5-1.5h-1.76c-0.82,0-1.5,0.67-1.5,1.5v8h-4.75V32.64c0-0.82-0.67-1.49-1.49-1.49h-11.28      c-0.82,0-1.49,0.67-1.49,1.5v16.03c0,0.82,0.67,1.49,1.5,1.49h8v4.75h-14.25V37.4c0-0.83-0.67-1.5-1.5-1.5h-1.76      c-0.82,0-1.5,0.67-1.5,1.5v17.54v3.22C1006.7,58.99,1007.38,59.66,1008.2,59.66z M1025.71,45.41h-4.75l0-9.5h4.75V45.41z"/>
				<path class="st2" d="M1090.75,69.17h-1.76c-0.82,0-1.49,0.67-1.49,1.5v22.27h-8.01c-0.82,0-1.5,0.68-1.5,1.49v8.01h-4.75l0-8.01      c0-0.82-0.67-1.5-1.49-1.5h-16.02c-0.82,0-1.49,0.68-1.49,1.5v1.76c0,0.83,0.67,1.5,1.49,1.5h12.76v4.76h-19.01V88.18h12.75      c0.83,0,1.5-0.68,1.5-1.49v-1.76c0-0.82-0.67-1.5-1.5-1.5h-16.01c-0.82,0-1.5,0.67-1.5,1.5v20.76c0,0.82,0.68,1.5,1.5,1.5h22.27      v3.25c0,0.82,0.67,1.5,1.5,1.5h1.76c0.82,0,1.49-0.67,1.49-1.5v-3.25h8c0.82,0,1.5-0.69,1.5-1.52v-7.99h8.02      c0.83,0,1.5-0.67,1.5-1.5V70.67C1092.25,69.84,1091.58,69.17,1090.75,69.17z"/>
				<path class="st2" d="M1052.73,111.94h-11.28c-0.82,0-1.49,0.67-1.49,1.5v8.01h-28.51v-4.76h22.27c0.82,0,1.49-0.67,1.49-1.5      v-1.75c0-0.83-0.67-1.5-1.49-1.5h-25.54c-0.82,0-1.49,0.67-1.49,1.49v11.28c0,0.82,0.69,1.49,1.5,1.49h35.02      c0.83,0,1.5-0.67,1.5-1.49v-8.01h4.76v3.26c0,0.82,0.66,1.49,1.48,1.49h1.78c0.82,0,1.49-0.67,1.49-1.49v-6.52      C1054.22,112.62,1053.55,111.94,1052.73,111.94z"/>
				<path class="st2" d="M1014.67,130.95h-1.68c-0.85,0-1.54,0.69-1.54,1.54v1.69c0,0.84,0.69,1.53,1.54,1.53h1.68      c0.85,0,1.54-0.69,1.54-1.53v-1.69C1016.2,131.64,1015.52,130.95,1014.67,130.95z"/>
				<path class="st2" d="M1024.18,130.95h-1.69c-0.84,0-1.54,0.69-1.54,1.54v1.69c0,0.84,0.7,1.53,1.54,1.53h1.69      c0.85,0,1.53-0.69,1.53-1.53v-1.69C1025.71,131.64,1025.03,130.95,1024.18,130.95z"/>
				<path class="st2" d="M1008.24,102.44c-0.85,0-1.54,0.69-1.54,1.54v1.67c0,0.85,0.69,1.54,1.54,1.54h1.68      c0.85,0,1.53-0.69,1.53-1.54v-1.67c0-0.84-0.68-1.54-1.53-1.54H1008.24z"/>
				<path class="st2" d="M1017.74,102.44c-0.84,0-1.53,0.69-1.53,1.53v1.68c0,0.85,0.69,1.54,1.53,1.54h1.68      c0.85,0,1.54-0.69,1.54-1.54v-1.68c0-0.84-0.69-1.53-1.54-1.53H1017.74z"/>
				<path class="st2" d="M1025.71,103.97v1.68c0,0.85,0.69,1.54,1.54,1.54h9.5h1.69h0.04c0.83,0,1.5-0.68,1.5-1.5V84.93      c0-0.83-0.66-1.5-1.5-1.5h-1.76c-0.82,0-1.5,0.67-1.5,1.5v17.52h-7.97C1026.4,102.44,1025.71,103.13,1025.71,103.97z"/>
				<path class="st2" d="M1070.01,83.42c-0.84,0-1.53,0.69-1.53,1.54v1.69c0,0.84,0.69,1.53,1.53,1.53h1.68      c0.85,0,1.54-0.69,1.54-1.53v-1.69c0-0.85-0.69-1.54-1.54-1.54H1070.01z"/>
				<path class="st2" d="M1065.26,54.91h1.68c0.85,0,1.54-0.68,1.54-1.53V51.7c0-0.85-0.69-1.54-1.54-1.54h-1.68      c-0.84,0-1.53,0.7-1.53,1.54v1.68C1063.73,54.22,1064.42,54.91,1065.26,54.91z"/>
				<path class="st2" d="M1038.43,54.91h-1.68c-0.85,0-1.54,0.7-1.54,1.54v1.68c0,0.85,0.69,1.53,1.54,1.53h1.68      c0.85,0,1.54-0.68,1.54-1.53v-1.68C1039.97,55.6,1039.28,54.91,1038.43,54.91z"/>
				<path class="st2" d="M1028.93,73.93h-1.68c-0.84,0-1.54,0.69-1.54,1.53v1.69c0,0.84,0.7,1.53,1.54,1.53h1.68      c0.85,0,1.54-0.69,1.54-1.53v-1.69C1030.46,74.62,1029.78,73.93,1028.93,73.93z"/>
				<path class="st2" d="M1081.2,83.42h-1.68c-0.84,0-1.54,0.69-1.54,1.54v1.68c0,0.85,0.7,1.54,1.54,1.54h1.68      c0.86,0,1.54-0.69,1.54-1.54v-1.68C1082.74,84.12,1082.06,83.42,1081.2,83.42z"/>
				<path class="st2" d="M1008.2,97.69h20.77c0.82,0,1.49-0.67,1.49-1.5V84.93c0-0.82-0.67-1.5-1.49-1.5h-8.01V69.17h14.25v7.97      c0,0.84,0.69,1.53,1.54,1.53h44.49c0.82,0,1.49-0.68,1.49-1.5V61.16c0-0.82-0.66-1.49-1.49-1.49h-11.25      c-0.82,0-1.51,0.67-1.51,1.49v3.26h-9.51V46.9c0-0.82-0.67-1.5-1.5-1.5h-1.76c-0.82,0-1.49,0.67-1.49,1.5v27.02h-14.26v-8.01      c0-0.82-0.67-1.49-1.5-1.49h-20.77c-0.83,0-1.49,0.67-1.49,1.49v20.78c0,0.82,0.67,1.49,1.49,1.49h8.01v4.75h-14.25l0-27.01      c0-0.82-0.67-1.5-1.5-1.5h-1.76c-0.82,0-1.5,0.66-1.5,1.49v30.28C1006.7,97.01,1007.38,97.69,1008.2,97.69z M1058.98,69.17      h14.26v-4.75h4.75v9.5h-19.01V69.17z"/>
			</g>
			<path class="st0" d="M961.92,47.16c-0.55,0-1.22-0.15-1.22-0.44v-3.86c0-0.26,0.67-0.45,1.22-0.45h3.45     c1.19,0,1.48-0.04,1.48-1.23v-5.9c0-1.52-0.04-3.19-0.07-4.97c0-0.41,0.3-0.71,0.74-0.71h3.12c0.56,0,0.78,0.3,0.82,0.71     c0.04,1.6,0.07,2.75,0.07,3.82v4.94c0,3.15,0,5.27-0.15,6.61c-0.11,0.48-0.26,0.82-0.85,1.08c-1.04,0.29-3.98,0.41-5.98,0.41     H961.92z M964.07,51.24c0-0.48,0.41-0.85,0.85-0.85h2.86c0.48,0,0.93,0.37,0.93,0.85v2.97c0,0.41-0.45,0.78-0.93,0.78h-2.86     c-0.44,0-0.85-0.37-0.85-0.78V51.24z M948.29,47.16c-0.55,0-1.22-0.15-1.22-0.44v-3.86c0-0.26,0.67-0.45,1.22-0.45h3.49     c0.85,0,2.15-0.12,2.15-1.27V30.42c0-0.41,0.29-0.71,0.75-0.71h3.23c0.41,0,0.71,0.3,0.71,0.71v11.36     c0.29,0.52,1.75,0.63,2.41,0.63h0.89v4.75h-0.44c-1.9,0-3.97-0.22-5.27-1.26c-1.37,0.96-3.53,1.26-5.12,1.26H948.29z      M953.9,23.41c0-0.49,0.41-0.86,0.89-0.86h2.93c0.44,0,0.82,0.37,0.82,0.86v2.89c0,0.44-0.37,0.82-0.85,0.82h-2.89     c-0.56,0-0.89-0.37-0.89-0.82V23.41z M921.72,35.43c0.41,0,0.63,0.22,0.63,0.7c-0.04,0.56-0.04,1.41-0.04,1.67     c0,3.56,1.78,4.61,6.72,4.61h8.98c0.89,0,2.12-0.12,2.12-1.27V19.69c0-0.44,0.34-0.78,0.74-0.78h3.34c0.41,0,0.75,0.33,0.75,0.78     v22.09c0.3,0.52,1.63,0.63,2.33,0.63h0.96v4.75h-0.44c-1.49,0-3.64-0.19-5.12-1.04c-1.34,0.85-3.45,1.04-5.12,1.04h-9.35     c-7.94,0-10.28-2.93-10.28-8.09c0-0.48,0.04-2.15,0.23-2.9c0.15-0.56,0.3-0.74,0.78-0.74H921.72z M927.03,32.43     c0-0.3,0.22-0.45,0.67-0.45h0.55c-0.3-0.48-0.48-1.37-0.48-2.08c0-2.41,1.52-3.71,4.2-3.71c0.44,0,1.15,0.04,1.85,0.22     c0.34,0.07,0.48,0.3,0.48,0.63v1.34c0,0.34-0.15,0.48-0.48,0.48c-0.29,0-1.19-0.07-1.48-0.07c-1.15,0-1.67,0.63-1.67,1.56     c0,0.78,0.33,1.37,0.59,1.52h2.78c0.44,0,0.67,0.18,0.67,0.51v1.52c0,0.33-0.23,0.52-0.67,0.52h-6.35     c-0.45,0-0.67-0.18-0.67-0.52V32.43z M900.82,21.73c-0.41,0-0.59-0.15-0.59-0.44v-1.08c0-0.26,0.18-0.37,0.59-0.37h0.7     c-0.41-0.59-0.59-1.37-0.59-2.12c0-2.08,1.22-3.12,3.71-3.12c0.41,0,1.15,0.04,1.75,0.22c0.26,0.04,0.41,0.19,0.41,0.37v1     c0,0.26-0.15,0.37-0.48,0.37h-1.3c-1.3,0-1.86,0.41-1.86,1.49c0,0.85,0.33,1.48,0.78,1.75h2.6c0.41,0,0.59,0.11,0.59,0.37v1.11     c0,0.3-0.18,0.44-0.59,0.44H900.82z M901.48,24.82c0-0.41,0.3-0.74,0.74-0.74h3.34c0.45,0,0.74,0.33,0.74,0.74v21.56     c0,0.41-0.3,0.78-0.74,0.78h-3.34c-0.45,0-0.74-0.37-0.74-0.78V24.82z M884.97,47.16c-0.56,0-1.22-0.15-1.22-0.44v-3.86     c0-0.26,0.67-0.45,1.22-0.45h3.82c1.19,0,1.49-0.04,1.49-1.23v-5.79c0-1.52-0.04-3.19-0.08-4.97c0-0.41,0.3-0.71,0.75-0.71h3.12     c0.55,0,0.78,0.3,0.82,0.71c0.04,1.59,0.08,2.75,0.08,3.82v4.83c0,3.15,0,5.27-0.15,6.61c-0.11,0.48-0.26,0.82-0.85,1.08     c-1.04,0.29-3.97,0.41-5.98,0.41H884.97z M887.49,51.24c0-0.48,0.41-0.85,0.85-0.85h2.86c0.48,0,0.93,0.37,0.93,0.85v2.97     c0,0.41-0.45,0.78-0.93,0.78h-2.86c-0.44,0-0.85-0.37-0.85-0.78V51.24z M867.15,52.4c0-0.41,0.22-0.63,0.67-0.63h3.38     c3.86,0,5.9-0.67,5.9-3.49v-1.11h-2.71c-5.38,0-8.61-2.79-8.61-8.17v-0.74c0-5.83,3.56-9.17,9.95-9.17     c1.89,0,4.41,0.26,5.45,0.63c0.48,0.19,0.63,0.3,0.63,0.71v11.99h3.27v4.75h-3.34v1.26c-0.48,6.09-4.46,7.57-9.54,7.57     c-0.85,0-3.9,0-4.46-0.19c-0.48-0.11-0.59-0.3-0.59-0.7V52.4z M870.45,38.4c0,2.82,1.15,4.15,3.94,4.15h2.79V33.5     c-0.71-0.08-1.48-0.11-2.27-0.11c-2.82,0-4.46,1.67-4.46,4.53V38.4z M846.14,21.55c0-0.48,0.41-0.85,0.89-0.85h2.94     c0.44,0,0.82,0.37,0.82,0.85v2.9c0,0.44-0.37,0.82-0.85,0.82h-2.9c-0.55,0-0.89-0.37-0.89-0.82V21.55z M830.29,43.08     c0-0.4,0.33-0.66,0.74-0.66h4.83V19.69c0-0.44,0.29-0.78,0.74-0.78h3.38c0.41,0,0.71,0.33,0.71,0.78v11.32     c2.6-1.78,6.43-2,8.17-2c6.35,0,10.43,2.6,10.43,9.95v1.52c0,1.64-0.15,3.94-0.48,5.42c-0.11,0.48-0.41,0.96-1.19,1.07     c-1.38,0.19-6.91,0.19-9.02,0.19h-17.56c-0.41,0-0.74-0.26-0.74-0.67V43.08z M853.86,42.52c0.63,0,0.74-0.41,0.74-2.45v-0.56     c0-4.53-2.11-5.98-6.98-5.98c-1.67,0-5.09,0.22-6.94,1.6v7.31c1.15,0.04,2.56,0.08,4.46,0.08H853.86z M796.58,39.37     c0-1.08,0.19-3.31,0.48-4.9c0.07-0.48,0.34-0.74,0.74-0.74h2.86c0.48,0,0.67,0.22,0.63,0.7c-0.11,1.08-0.19,2.3-0.19,3.01     c0,5.16,0.85,9.02,7.5,9.02c1.33,0,2.41-0.07,3.45-0.22c0.11-2.48,0.11-3.64,0.11-5.64v-3.26c0-5.65,3.41-8.24,9.54-8.24     c1.97,0,4.05,0.22,5.35,0.48c0.41,0.11,0.63,0.26,0.63,0.74v10.8c0,1.08,0.41,1.3,1.71,1.3h1.71v4.75h-2.93     c-3.42,0-5.19-0.82-5.19-4.68v-8.91c-0.74-0.11-1.11-0.15-1.82-0.15c-2.82,0-4.27,1.08-4.27,4.34v6.12     c0,1.78-0.04,4.08-0.14,5.83c0,0.44-0.26,0.7-0.82,0.82c-2.08,0.33-4.71,0.55-7.42,0.55C800,51.1,796.58,47.05,796.58,39.37     L796.58,39.37z M802.56,54.44c0-0.48,0.41-0.78,0.85-0.78h2.48c0.44,0,0.85,0.3,0.85,0.78v2.64c0,0.41-0.45,0.74-0.85,0.74h-2.48     c-0.45,0-0.85-0.34-0.85-0.74V54.44z M809.46,54.44c0-0.48,0.41-0.78,0.82-0.78h2.52c0.41,0,0.82,0.3,0.82,0.78v2.64     c0,0.41-0.41,0.74-0.82,0.74h-2.52c-0.41,0-0.82-0.34-0.82-0.74V54.44z M780.21,19.66c0-0.41,0.3-0.74,0.74-0.74h3.34     c0.45,0,0.74,0.33,0.74,0.74v26.72c0,0.41-0.3,0.78-0.74,0.78h-3.34c-0.44,0-0.74-0.37-0.74-0.78V19.66z M764.7,42.86     c0-0.26,0.67-0.45,1.23-0.45h3.27c1.19,0,1.45-0.04,1.45-1.23V19.69c0-0.44,0.33-0.78,0.74-0.78h3.38c0.41,0,0.71,0.33,0.71,0.78     v21.57c0,1.34-0.04,3.08-0.18,4.42c-0.11,0.48-0.26,0.82-0.86,1.08c-1.07,0.29-4.12,0.41-6.12,0.41h-2.38     c-0.56,0-1.23-0.15-1.23-0.44V42.86z M751.11,42.86c0-0.26,0.67-0.45,1.22-0.45h3.45c0.85,0,2.16-0.12,2.16-1.27V30.42     c0-0.41,0.3-0.71,0.74-0.71h3.23c0.41,0,0.7,0.3,0.7,0.71v11.36c0.3,0.52,1.75,0.63,2.42,0.63h0.89v4.75h-0.45     c-1.89,0-3.97-0.22-5.27-1.26c-1.37,0.96-3.53,1.26-5.12,1.26h-2.75c-0.55,0-1.22-0.15-1.22-0.44V42.86z M754.6,23.37     c0-0.48,0.41-0.85,0.89-0.85h2.56c0.49,0,0.93,0.38,0.93,0.85v2.9c0,0.45-0.48,0.82-0.93,0.82h-2.56c-0.48,0-0.89-0.37-0.89-0.82     V23.37z M761.47,23.37c0-0.48,0.45-0.85,0.89-0.85h2.6c0.48,0,0.85,0.38,0.85,0.85v2.9c0,0.45-0.37,0.82-0.85,0.82h-2.6     c-0.44,0-0.89-0.37-0.89-0.82V23.37z M729.84,47.16c-0.6,0-1.22-0.26-1.22-0.44v-3.86c0-0.26,0.66-0.45,1.22-0.45h16.14     l-1.74-3.86c-1.45-3.16-3.97-5.16-8.69-5.16c-0.33,0-1.45,0.04-2,0.08c-0.52,0.04-0.78-0.15-0.78-0.6v-2.74     c0-0.37,0.26-0.59,0.74-0.71c1.23-0.26,2.34-0.33,3.64-0.33c5.42,0,9.32,2.15,12.29,8.87c0.78,1.78,1.49,3.56,1.75,3.93     c0.26,0.41,0.45,0.52,0.85,0.52h0.37v4.75H729.84z M737.63,51.24c0-0.48,0.41-0.85,0.85-0.85h2.86c0.48,0,0.93,0.37,0.93,0.85     v2.97c0,0.41-0.44,0.78-0.93,0.78h-2.86c-0.44,0-0.85-0.37-0.85-0.78V51.24z M721.71,19.66c0-0.41,0.33-0.74,0.78-0.74h3.3     c0.48,0,0.74,0.33,0.74,0.74v20.86c0,1.67,0.71,1.9,2.08,1.9h1.22v4.75h-2.6c-3.38,0-5.53-0.89-5.53-5.23V19.66z M706.38,52.44     c0-0.38,0.22-0.56,0.63-0.56h0.78c2.78,0,3.79-0.26,3.79-3.3V30.42c0-0.41,0.3-0.71,0.74-0.71h3.23c0.41,0,0.7,0.3,0.7,0.71v17.6     c0,1.89-0.11,3.63-0.85,5.08c-1.15,2.11-3.05,2.89-6.16,2.89c-0.41,0-1.71,0-2.34-0.11c-0.33-0.07-0.52-0.3-0.52-0.7V52.44z      M673.71,39.37c0-1.11,0.22-3.31,0.52-4.9c0.11-0.56,0.22-0.74,0.78-0.74h2.86c0.41,0,0.63,0.22,0.63,0.7     c-0.11,1.08-0.22,2.3-0.22,3.01c0,5.16,0.85,9.02,7.5,9.02c1.34,0,2.41-0.07,3.45-0.22c0.11-2.48,0.11-3.64,0.11-5.64v-3.26     c0-5.68,3.38-8.24,9.76-8.24c1.75,0,3.9,0.18,5.28,0.48c0.41,0.11,0.63,0.26,0.63,0.74v16.07c0,0.45-0.3,0.78-0.74,0.78H701     c-0.41,0-0.7-0.34-0.7-0.78v-12.8c-0.89-0.11-1.26-0.15-1.97-0.15c-2.82,0-4.26,1.08-4.26,4.34v6.12c0,1.78-0.04,4.08-0.15,5.83     c0,0.44-0.26,0.7-0.82,0.82c-2.08,0.33-4.75,0.55-7.42,0.55C677.17,51.1,673.71,47.05,673.71,39.37L673.71,39.37z M679.73,54.44     c0-0.48,0.37-0.78,0.85-0.78h2.45c0.48,0,0.85,0.3,0.85,0.78v2.64c0,0.41-0.41,0.74-0.85,0.74h-2.45c-0.48,0-0.85-0.34-0.85-0.74     V54.44z M686.6,54.44c0-0.48,0.41-0.78,0.85-0.78h2.53c0.41,0,0.82,0.3,0.82,0.78v2.64c0,0.41-0.41,0.74-0.82,0.74h-2.53     c-0.44,0-0.85-0.34-0.85-0.74V54.44z M784.22,66.76c0,0-21.91,0-23.24,0c-0.7,0-2.67,0.67-2.67,3.71v71.5     c0,3.34,2.67,3.34,2.67,3.34h23.24c23.46,0,39.68-14.66,39.68-39.08C823.91,81.35,807.68,66.76,784.22,66.76L784.22,66.76z      M782.85,135.7h-13.96V76.34h13.96c17.93,0,29.17,10.69,29.17,29.89C812.02,125,800.78,135.7,782.85,135.7L782.85,135.7z      M903.97,128.31c-0.89-1.6-2.3-0.93-3.19,0c-3.34,3.01-11.25,7.98-21.9,7.98c-17.26,0-29.18-13.84-29.18-30.8     c0-16.19,11.25-29.66,28.51-29.66c9.24,0,15.85,3.56,19.75,6.2c2.82,1.71,3.45,1.71,5.12,0c0.89-1.67,2.27-3.97,2.27-3.97     s1.63-2.23,0-3.38c-3.93-2.52-12.99-8.87-27.13-8.87c-22.87,0-39.76,17.19-39.76,39.68c0,22.83,16.15,40.72,39.76,40.72     c15.26,0,24.87-7.24,28.77-10.5c1.71-1.08,1-2.08,0.33-3.42C906.98,131.72,905.35,129.72,903.97,128.31L903.97,128.31z      M962.95,103.81c6.35-2.56,10.29-8.87,10.29-16.78c0-13.03-9.62-20.27-23.16-20.27c0,0-20.49,0-23.91,0     c-2.9,0-3.56,3.04-3.56,3.71v71.5c0,1,0,3.34,3.56,3.34c3.41,0,24.54,0,24.54,0c13.92,0,25.17-7.31,25.17-22.57     C975.88,114.54,971.16,106.55,962.95,103.81L962.95,103.81z M933.85,76.34h16.22c7.28,0,11.92,5.01,11.92,12.03     c0,6.57-4.64,11.47-11.92,11.47h-16.22V76.34z M951.38,135.7h-17.52v-26.84h17.52c8.28,0,13.25,5.68,13.25,13.59     C964.63,130.65,959.66,135.7,951.38,135.7L951.38,135.7z M716.7,70.47c-1.11-2.38-1.63-3.71-5.05-3.71h-6.57     c-3.01,0-4.05,1.34-4.94,3.71c-0.71,1.89-28.18,72.5-28.18,72.5s0,2.34,2.64,2.34h7.02c1.56,0,2.26-1.67,2.26-1.67l7.61-20.9     h33.85l7.53,20.9c0,0,0.67,1.67,2.3,1.67h6.68c2.86,0,2.86-2.34,2.86-2.34S717.44,72.37,716.7,70.47L716.7,70.47z M694.87,113.87     l7.87-21.9l5.68-14.25l5.53,14.25l7.68,21.9H694.87z M823.57,51.24c0-0.48,0.41-0.85,0.85-0.85h2.86c0.48,0,0.93,0.37,0.93,0.85     v2.97c0,0.41-0.45,0.78-0.93,0.78h-2.86c-0.44,0-0.85-0.37-0.85-0.78V51.24z"/>
		</g>
	</g>
	<g>
		<path class="st0" d="M27.47,62.41H7.91v-7.36h47.63v7.36H35.88v59.66h-8.4V62.41z"/>
		<path class="st0" d="M113.19,87.87c0,23.07-13.46,35.3-29.88,35.3c-16.99,0-28.92-13.72-28.92-34c0-21.28,12.7-35.2,29.88-35.2    C101.83,53.96,113.19,67.98,113.19,87.87z M63.27,88.96c0,14.32,7.45,27.14,20.52,27.14c13.17,0,20.62-12.63,20.62-27.84    c0-13.32-6.68-27.24-20.52-27.24C70.14,61.02,63.27,74.24,63.27,88.96z"/>
		<path class="st0" d="M130.37,55.06v39.67c0,15.01,6.4,21.38,14.99,21.38c9.55,0,15.66-6.56,15.66-21.38V55.06h8.4v39.07    c0,20.58-10.4,29.03-24.34,29.03c-13.17,0-23.1-7.85-23.1-28.63V55.06H130.37z"/>
		<path class="st0" d="M226.88,119.88c-3.05,1.59-9.16,3.18-16.99,3.18c-18.14,0-31.79-11.93-31.79-33.9    c0-20.98,13.65-35.2,33.6-35.2c8.02,0,13.08,1.79,15.27,2.98l-2,7.06c-3.15-1.59-7.64-2.78-12.98-2.78    c-15.08,0-25.11,10.04-25.11,27.64c0,16.41,9.07,26.94,24.72,26.94c5.06,0,10.21-1.09,13.55-2.78L226.88,119.88z"/>
		<path class="st0" d="M243.67,55.06v28.04h31.12V55.06h8.4v67.01h-8.4V90.65h-31.12v31.42h-8.3V55.06H243.67z"/>
		<path class="st0" d="M295.69,55.85c4.01-0.7,9.26-1.29,15.94-1.29c8.21,0,14.22,1.99,18.04,5.57c3.53,3.18,5.63,8.05,5.63,14.02    c0,6.06-1.72,10.84-4.96,14.32c-4.39,4.87-11.55,7.36-19.66,7.36c-2.48,0-4.77-0.1-6.68-0.6v26.84h-8.3V55.85z M304,88.16    c1.81,0.5,4.1,0.7,6.87,0.7c10.02,0,16.13-5.07,16.13-14.32c0-8.85-6.01-13.12-15.18-13.12c-3.63,0-6.4,0.3-7.83,0.7V88.16z"/>
		<path class="st0" d="M399.55,87.87c0,23.07-13.46,35.3-29.88,35.3c-16.99,0-28.92-13.72-28.92-34c0-21.28,12.7-35.2,29.88-35.2    C388.19,53.96,399.55,67.98,399.55,87.87z M349.62,88.96c0,14.32,7.45,27.14,20.52,27.14c13.17,0,20.62-12.63,20.62-27.84    c0-13.32-6.68-27.24-20.52-27.24C356.49,61.02,349.62,74.24,349.62,88.96z"/>
		<path class="st0" d="M416.72,55.06v67.01h-8.3V55.06H416.72z"/>
		<path class="st0" d="M429.32,122.07V55.06h9.07l20.62,33.9c4.77,7.86,8.5,14.91,11.55,21.77l0.19-0.1    c-0.76-8.95-0.95-17.1-0.95-27.54V55.06h7.83v67.01h-8.4l-20.43-34c-4.49-7.46-8.78-15.11-12.03-22.37l-0.29,0.1    c0.48,8.45,0.67,16.5,0.67,27.64v28.63H429.32z"/>
		<path class="st0" d="M502.44,62.41h-19.57v-7.36h47.63v7.36h-19.66v59.66h-8.4V62.41z"/>
		<path class="st0" d="M534.03,111.53c3.72,2.39,9.16,4.38,14.89,4.38c8.5,0,13.46-4.67,13.46-11.43c0-6.26-3.44-9.84-12.12-13.32    c-10.5-3.88-16.99-9.54-16.99-18.99c0-10.44,8.3-18.19,20.81-18.19c6.59,0,11.36,1.59,14.22,3.28l-2.29,7.06    c-2.1-1.19-6.4-3.18-12.22-3.18c-8.78,0-12.12,5.47-12.12,10.04c0,6.26,3.91,9.35,12.79,12.93c10.88,4.37,16.42,9.84,16.42,19.69    c0,10.34-7.35,19.29-22.53,19.29c-6.2,0-12.98-1.89-16.42-4.28L534.03,111.53z"/>
	</g>
</g>
</svg>