<?xml version="1.0" encoding="UTF-8"?>
<svg xmlns="http://www.w3.org/2000/svg" xmlns:xlink="http://www.w3.org/1999/xlink" width="90px" height="13px" viewBox="0 0 90 13" version="1.1">
<g id="surface1">
<path style=" stroke:none;fill-rule:nonzero;fill:rgb(16.078431%,21.960784%,25.490196%);fill-opacity:1;" d="M 49.855469 12.609375 C 49.796875 12.609375 49.753906 12.5625 49.753906 12.507812 L 49.753906 0.492188 C 49.753906 0.4375 49.796875 0.390625 49.855469 0.390625 C 49.910156 0.390625 49.953125 0.4375 49.953125 0.492188 L 49.953125 12.507812 C 49.953125 12.5625 49.910156 12.609375 49.855469 12.609375 Z M 49.855469 12.609375 "/>
<path style=" stroke:none;fill-rule:nonzero;fill:rgb(67.058824%,16.470588%,14.509804%);fill-opacity:1;" d="M 89.363281 6.738281 C 89.363281 6.109375 88.914062 5.800781 88.230469 5.289062 C 87.566406 4.789062 86.4375 4.054688 85.765625 3.652344 C 85.09375 3.25 84 2.628906 83.246094 2.265625 C 82.484375 1.898438 81.875 1.65625 81.507812 1.65625 C 81.140625 1.65625 80.882812 1.773438 80.703125 2.015625 C 80.523438 2.253906 80.414062 2.609375 80.34375 3.058594 C 80.269531 3.507812 80.230469 4.046875 80.210938 4.667969 C 80.191406 5.285156 80.191406 6.738281 80.191406 6.738281 C 80.191406 6.738281 80.191406 8.191406 80.210938 8.808594 C 80.230469 9.425781 80.269531 9.96875 80.34375 10.417969 C 80.414062 10.867188 80.523438 11.21875 80.703125 11.460938 C 80.882812 11.703125 81.140625 11.820312 81.507812 11.820312 C 81.875 11.820312 82.484375 11.578125 83.246094 11.210938 C 84 10.847656 85.09375 10.226562 85.765625 9.824219 C 86.4375 9.421875 87.566406 8.6875 88.230469 8.1875 C 88.914062 7.675781 89.363281 7.367188 89.363281 6.738281 Z M 89.363281 6.738281 "/>
<path style=" stroke:none;fill-rule:nonzero;fill:rgb(85.490196%,21.960784%,19.607843%);fill-opacity:1;" d="M 88.359375 5.96875 L 88.214844 5.96875 C 88.152344 5.96875 88.097656 6.023438 88.097656 6.089844 L 88.097656 7.386719 C 88.097656 7.453125 88.152344 7.507812 88.214844 7.507812 L 88.359375 7.507812 C 88.421875 7.507812 88.476562 7.453125 88.476562 7.386719 L 88.476562 6.089844 C 88.476562 6.023438 88.421875 5.96875 88.359375 5.96875 Z M 88.359375 5.96875 "/>
<path style=" stroke:none;fill-rule:nonzero;fill:rgb(85.490196%,21.960784%,19.607843%);fill-opacity:1;" d="M 84.019531 5.585938 L 84.160156 5.585938 C 84.226562 5.585938 84.28125 5.53125 84.28125 5.464844 L 84.28125 3.402344 C 84.28125 3.335938 84.226562 3.28125 84.160156 3.28125 L 84.019531 3.28125 C 83.953125 3.28125 83.898438 3.335938 83.898438 3.402344 L 83.898438 5.464844 C 83.898438 5.53125 83.953125 5.585938 84.019531 5.585938 Z M 84.019531 5.585938 "/>
<path style=" stroke:none;fill-rule:nonzero;fill:rgb(85.490196%,21.960784%,19.607843%);fill-opacity:1;" d="M 85.304688 9.039062 L 85.164062 9.039062 C 85.097656 9.039062 85.042969 9.09375 85.042969 9.160156 L 85.042969 9.304688 C 85.042969 9.371094 85.097656 9.425781 85.164062 9.425781 L 85.304688 9.425781 C 85.371094 9.425781 85.425781 9.371094 85.425781 9.304688 L 85.425781 9.160156 C 85.425781 9.097656 85.371094 9.039062 85.304688 9.039062 Z M 85.304688 9.039062 "/>
<path style=" stroke:none;fill-rule:nonzero;fill:rgb(85.490196%,21.960784%,19.607843%);fill-opacity:1;" d="M 80.964844 4.820312 L 82.632812 4.820312 C 82.699219 4.820312 82.753906 4.765625 82.753906 4.699219 L 82.753906 4.050781 L 83.394531 4.050781 C 83.464844 4.050781 83.515625 3.996094 83.515625 3.929688 L 83.515625 3.019531 C 83.515625 2.953125 83.464844 2.898438 83.394531 2.898438 L 83.253906 2.898438 C 83.1875 2.898438 83.132812 2.953125 83.132812 3.019531 L 83.132812 3.667969 L 82.753906 3.667969 L 82.753906 2.636719 C 82.753906 2.570312 82.699219 2.515625 82.632812 2.515625 L 81.726562 2.515625 C 81.660156 2.515625 81.609375 2.570312 81.609375 2.636719 L 81.609375 3.933594 C 81.609375 3.996094 81.660156 4.050781 81.726562 4.050781 L 82.371094 4.050781 L 82.371094 4.4375 L 81.226562 4.4375 L 81.226562 3.019531 C 81.226562 2.953125 81.171875 2.898438 81.105469 2.898438 L 80.964844 2.898438 C 80.898438 2.898438 80.84375 2.953125 80.84375 3.019531 L 80.84375 4.699219 C 80.84375 4.765625 80.898438 4.820312 80.964844 4.820312 Z M 82.371094 3.667969 L 81.992188 3.667969 L 81.992188 2.898438 L 82.371094 2.898438 Z M 82.371094 3.667969 "/>
<path style=" stroke:none;fill-rule:nonzero;fill:rgb(85.490196%,21.960784%,19.607843%);fill-opacity:1;" d="M 87.59375 5.585938 L 87.453125 5.585938 C 87.386719 5.585938 87.332031 5.640625 87.332031 5.707031 L 87.332031 7.507812 L 86.691406 7.507812 C 86.625 7.507812 86.570312 7.5625 86.570312 7.625 L 86.570312 8.273438 L 86.1875 8.273438 L 86.1875 7.625 C 86.1875 7.558594 86.136719 7.503906 86.070312 7.503906 L 84.78125 7.503906 C 84.714844 7.503906 84.664062 7.558594 84.664062 7.625 L 84.664062 7.769531 C 84.664062 7.835938 84.714844 7.890625 84.78125 7.890625 L 85.808594 7.890625 L 85.808594 8.273438 L 84.28125 8.273438 L 84.28125 7.121094 L 85.304688 7.121094 C 85.371094 7.121094 85.425781 7.066406 85.425781 7 L 85.425781 6.859375 C 85.425781 6.792969 85.371094 6.738281 85.304688 6.738281 L 84.019531 6.738281 C 83.953125 6.738281 83.898438 6.792969 83.898438 6.859375 L 83.898438 8.535156 C 83.898438 8.601562 83.953125 8.65625 84.019531 8.65625 L 85.808594 8.65625 L 85.808594 8.917969 C 85.808594 8.984375 85.859375 9.039062 85.925781 9.039062 L 86.070312 9.039062 C 86.136719 9.039062 86.1875 8.988281 86.1875 8.917969 L 86.1875 8.65625 L 86.832031 8.65625 C 86.898438 8.65625 86.953125 8.601562 86.953125 8.535156 L 86.953125 7.890625 L 87.59375 7.890625 C 87.664062 7.890625 87.714844 7.835938 87.714844 7.769531 L 87.714844 5.707031 C 87.714844 5.640625 87.660156 5.585938 87.59375 5.585938 Z M 87.59375 5.585938 "/>
<path style=" stroke:none;fill-rule:nonzero;fill:rgb(85.490196%,21.960784%,19.607843%);fill-opacity:1;" d="M 84.542969 9.039062 L 83.636719 9.039062 C 83.570312 9.039062 83.515625 9.09375 83.515625 9.160156 L 83.515625 9.808594 L 81.226562 9.808594 L 81.226562 9.425781 L 83.015625 9.425781 C 83.082031 9.425781 83.132812 9.371094 83.132812 9.304688 L 83.132812 9.160156 C 83.132812 9.09375 83.082031 9.039062 83.015625 9.039062 L 80.964844 9.039062 C 80.898438 9.039062 80.84375 9.09375 80.84375 9.160156 L 80.84375 10.070312 C 80.84375 10.136719 80.898438 10.191406 80.964844 10.191406 L 83.777344 10.191406 C 83.84375 10.191406 83.898438 10.136719 83.898438 10.070312 L 83.898438 9.425781 L 84.28125 9.425781 L 84.28125 9.6875 C 84.28125 9.753906 84.332031 9.808594 84.398438 9.808594 L 84.542969 9.808594 C 84.609375 9.808594 84.660156 9.753906 84.660156 9.6875 L 84.660156 9.160156 C 84.660156 9.097656 84.609375 9.039062 84.542969 9.039062 Z M 84.542969 9.039062 "/>
<path style=" stroke:none;fill-rule:nonzero;fill:rgb(85.490196%,21.960784%,19.607843%);fill-opacity:1;" d="M 81.484375 10.578125 L 81.351562 10.578125 C 81.28125 10.578125 81.226562 10.632812 81.226562 10.699219 L 81.226562 10.835938 C 81.226562 10.90625 81.28125 10.960938 81.351562 10.960938 L 81.484375 10.960938 C 81.554688 10.960938 81.609375 10.90625 81.609375 10.835938 L 81.609375 10.699219 C 81.609375 10.632812 81.554688 10.578125 81.484375 10.578125 Z M 81.484375 10.578125 "/>
<path style=" stroke:none;fill-rule:nonzero;fill:rgb(85.490196%,21.960784%,19.607843%);fill-opacity:1;" d="M 82.25 10.578125 L 82.113281 10.578125 C 82.046875 10.578125 81.988281 10.632812 81.988281 10.699219 L 81.988281 10.835938 C 81.988281 10.90625 82.046875 10.960938 82.113281 10.960938 L 82.25 10.960938 C 82.316406 10.960938 82.371094 10.90625 82.371094 10.835938 L 82.371094 10.699219 C 82.371094 10.632812 82.316406 10.578125 82.25 10.578125 Z M 82.25 10.578125 "/>
<path style=" stroke:none;fill-rule:nonzero;fill:rgb(85.490196%,21.960784%,19.607843%);fill-opacity:1;" d="M 80.96875 8.273438 C 80.902344 8.273438 80.84375 8.328125 80.84375 8.398438 L 80.84375 8.53125 C 80.84375 8.601562 80.902344 8.65625 80.96875 8.65625 L 81.105469 8.65625 C 81.171875 8.65625 81.226562 8.601562 81.226562 8.53125 L 81.226562 8.398438 C 81.226562 8.332031 81.171875 8.273438 81.105469 8.273438 Z M 80.96875 8.273438 "/>
<path style=" stroke:none;fill-rule:nonzero;fill:rgb(85.490196%,21.960784%,19.607843%);fill-opacity:1;" d="M 81.730469 8.273438 C 81.664062 8.273438 81.609375 8.328125 81.609375 8.398438 L 81.609375 8.53125 C 81.609375 8.601562 81.664062 8.65625 81.730469 8.65625 L 81.867188 8.65625 C 81.933594 8.65625 81.992188 8.601562 81.992188 8.53125 L 81.992188 8.398438 C 81.992188 8.328125 81.933594 8.273438 81.867188 8.273438 Z M 81.730469 8.273438 "/>
<path style=" stroke:none;fill-rule:nonzero;fill:rgb(85.490196%,21.960784%,19.607843%);fill-opacity:1;" d="M 82.371094 8.398438 L 82.371094 8.53125 C 82.371094 8.601562 82.425781 8.65625 82.496094 8.65625 L 83.398438 8.65625 C 83.464844 8.65625 83.519531 8.601562 83.519531 8.535156 L 83.519531 6.859375 C 83.519531 6.792969 83.464844 6.738281 83.398438 6.738281 L 83.257812 6.738281 C 83.191406 6.738281 83.136719 6.792969 83.136719 6.859375 L 83.136719 8.273438 L 82.496094 8.273438 C 82.425781 8.273438 82.371094 8.328125 82.371094 8.398438 Z M 82.371094 8.398438 "/>
<path style=" stroke:none;fill-rule:nonzero;fill:rgb(85.490196%,21.960784%,19.607843%);fill-opacity:1;" d="M 85.929688 6.738281 C 85.863281 6.738281 85.804688 6.792969 85.804688 6.863281 L 85.804688 7 C 85.804688 7.066406 85.863281 7.121094 85.929688 7.121094 L 86.0625 7.121094 C 86.132812 7.121094 86.1875 7.066406 86.1875 7 L 86.1875 6.863281 C 86.1875 6.792969 86.132812 6.738281 86.0625 6.738281 Z M 85.929688 6.738281 "/>
<path style=" stroke:none;fill-rule:nonzero;fill:rgb(85.490196%,21.960784%,19.607843%);fill-opacity:1;" d="M 85.546875 4.433594 L 85.683594 4.433594 C 85.75 4.433594 85.804688 4.378906 85.804688 4.3125 L 85.804688 4.175781 C 85.804688 4.105469 85.75 4.050781 85.683594 4.050781 L 85.546875 4.050781 C 85.480469 4.050781 85.425781 4.109375 85.425781 4.175781 L 85.425781 4.3125 C 85.425781 4.378906 85.480469 4.433594 85.546875 4.433594 Z M 85.546875 4.433594 "/>
<path style=" stroke:none;fill-rule:nonzero;fill:rgb(85.490196%,21.960784%,19.607843%);fill-opacity:1;" d="M 83.394531 4.433594 L 83.257812 4.433594 C 83.191406 4.433594 83.132812 4.492188 83.132812 4.558594 L 83.132812 4.695312 C 83.132812 4.761719 83.191406 4.820312 83.257812 4.820312 L 83.394531 4.820312 C 83.460938 4.820312 83.515625 4.761719 83.515625 4.695312 L 83.515625 4.558594 C 83.515625 4.492188 83.460938 4.433594 83.394531 4.433594 Z M 83.394531 4.433594 "/>
<path style=" stroke:none;fill-rule:nonzero;fill:rgb(85.490196%,21.960784%,19.607843%);fill-opacity:1;" d="M 82.628906 5.972656 L 82.496094 5.972656 C 82.429688 5.972656 82.371094 6.027344 82.371094 6.09375 L 82.371094 6.230469 C 82.371094 6.300781 82.429688 6.355469 82.496094 6.355469 L 82.628906 6.355469 C 82.699219 6.355469 82.753906 6.300781 82.753906 6.230469 L 82.753906 6.09375 C 82.753906 6.027344 82.699219 5.972656 82.628906 5.972656 Z M 82.628906 5.972656 "/>
<path style=" stroke:none;fill-rule:nonzero;fill:rgb(85.490196%,21.960784%,19.607843%);fill-opacity:1;" d="M 86.828125 6.738281 L 86.691406 6.738281 C 86.625 6.738281 86.570312 6.792969 86.570312 6.863281 L 86.570312 6.996094 C 86.570312 7.066406 86.625 7.121094 86.691406 7.121094 L 86.828125 7.121094 C 86.898438 7.121094 86.953125 7.066406 86.953125 6.996094 L 86.953125 6.863281 C 86.953125 6.792969 86.898438 6.738281 86.828125 6.738281 Z M 86.828125 6.738281 "/>
<path style=" stroke:none;fill-rule:nonzero;fill:rgb(85.490196%,21.960784%,19.607843%);fill-opacity:1;" d="M 80.964844 7.890625 L 82.632812 7.890625 C 82.699219 7.890625 82.753906 7.835938 82.753906 7.769531 L 82.753906 6.859375 C 82.753906 6.792969 82.699219 6.738281 82.632812 6.738281 L 81.992188 6.738281 L 81.992188 5.585938 L 83.132812 5.585938 L 83.132812 6.230469 C 83.132812 6.296875 83.191406 6.355469 83.257812 6.355469 L 86.832031 6.355469 C 86.898438 6.355469 86.949219 6.300781 86.949219 6.234375 L 86.949219 4.941406 C 86.949219 4.875 86.898438 4.820312 86.832031 4.820312 L 85.925781 4.820312 C 85.863281 4.820312 85.804688 4.875 85.804688 4.941406 L 85.804688 5.203125 L 85.042969 5.203125 L 85.042969 3.789062 C 85.042969 3.722656 84.988281 3.667969 84.921875 3.667969 L 84.78125 3.667969 C 84.714844 3.667969 84.660156 3.722656 84.660156 3.789062 L 84.660156 5.96875 L 83.515625 5.96875 L 83.515625 5.324219 C 83.515625 5.257812 83.460938 5.203125 83.394531 5.203125 L 81.726562 5.203125 C 81.660156 5.203125 81.609375 5.257812 81.609375 5.324219 L 81.609375 7 C 81.609375 7.066406 81.660156 7.121094 81.726562 7.121094 L 82.371094 7.121094 L 82.371094 7.503906 L 81.226562 7.503906 L 81.226562 5.324219 C 81.226562 5.257812 81.171875 5.203125 81.105469 5.203125 L 80.964844 5.203125 C 80.898438 5.203125 80.84375 5.257812 80.84375 5.324219 L 80.84375 7.769531 C 80.84375 7.835938 80.898438 7.890625 80.964844 7.890625 Z M 85.042969 5.585938 L 86.1875 5.585938 L 86.1875 5.203125 L 86.570312 5.203125 L 86.570312 5.96875 L 85.042969 5.96875 Z M 85.042969 5.585938 "/>
<path style=" stroke:none;fill-rule:nonzero;fill:rgb(16.078431%,21.960784%,25.490196%);fill-opacity:1;" d="M 77.25 3.808594 C 77.203125 3.808594 77.152344 3.796875 77.152344 3.773438 L 77.152344 3.460938 C 77.152344 3.441406 77.203125 3.425781 77.25 3.425781 L 77.527344 3.425781 C 77.621094 3.425781 77.644531 3.421875 77.644531 3.324219 L 77.644531 2.847656 C 77.644531 2.726562 77.640625 2.589844 77.640625 2.449219 C 77.640625 2.414062 77.664062 2.390625 77.699219 2.390625 L 77.949219 2.390625 C 77.996094 2.390625 78.011719 2.414062 78.015625 2.449219 C 78.019531 2.578125 78.019531 2.671875 78.019531 2.757812 L 78.019531 3.15625 C 78.019531 3.410156 78.019531 3.582031 78.007812 3.6875 C 78 3.726562 77.988281 3.753906 77.941406 3.777344 C 77.855469 3.800781 77.621094 3.808594 77.460938 3.808594 Z M 77.421875 4.136719 C 77.421875 4.101562 77.453125 4.070312 77.488281 4.070312 L 77.71875 4.070312 C 77.757812 4.070312 77.792969 4.101562 77.792969 4.136719 L 77.792969 4.378906 C 77.792969 4.410156 77.757812 4.441406 77.71875 4.441406 L 77.488281 4.441406 C 77.453125 4.441406 77.421875 4.410156 77.421875 4.378906 Z M 76.15625 3.808594 C 76.109375 3.808594 76.054688 3.796875 76.054688 3.773438 L 76.054688 3.460938 C 76.054688 3.441406 76.109375 3.425781 76.15625 3.425781 L 76.433594 3.425781 C 76.503906 3.425781 76.605469 3.414062 76.605469 3.324219 L 76.605469 2.457031 C 76.605469 2.421875 76.628906 2.398438 76.667969 2.398438 L 76.925781 2.398438 C 76.960938 2.398438 76.984375 2.421875 76.984375 2.457031 L 76.984375 3.375 C 77.007812 3.417969 77.125 3.425781 77.175781 3.425781 L 77.25 3.425781 L 77.25 3.808594 L 77.214844 3.808594 C 77.0625 3.808594 76.894531 3.792969 76.789062 3.707031 C 76.679688 3.785156 76.507812 3.808594 76.378906 3.808594 Z M 76.605469 1.890625 C 76.605469 1.851562 76.636719 1.820312 76.675781 1.820312 L 76.910156 1.820312 C 76.945312 1.820312 76.976562 1.851562 76.976562 1.890625 L 76.976562 2.125 C 76.976562 2.160156 76.949219 2.191406 76.910156 2.191406 L 76.675781 2.191406 C 76.632812 2.191406 76.605469 2.160156 76.605469 2.125 Z M 74.019531 2.863281 C 74.054688 2.863281 74.070312 2.878906 74.070312 2.917969 C 74.066406 2.964844 74.066406 3.03125 74.066406 3.054688 C 74.066406 3.339844 74.210938 3.425781 74.609375 3.425781 L 75.328125 3.425781 C 75.402344 3.425781 75.5 3.414062 75.5 3.324219 L 75.5 1.589844 C 75.5 1.554688 75.527344 1.527344 75.558594 1.527344 L 75.828125 1.527344 C 75.859375 1.527344 75.886719 1.554688 75.886719 1.589844 L 75.886719 3.375 C 75.910156 3.417969 76.019531 3.425781 76.074219 3.425781 L 76.152344 3.425781 L 76.152344 3.808594 L 76.117188 3.808594 C 75.996094 3.808594 75.824219 3.792969 75.703125 3.726562 C 75.597656 3.792969 75.425781 3.808594 75.292969 3.808594 L 74.542969 3.808594 C 73.90625 3.808594 73.71875 3.570312 73.71875 3.15625 C 73.71875 3.117188 73.71875 2.980469 73.734375 2.921875 C 73.746094 2.875 73.761719 2.863281 73.796875 2.863281 Z M 74.445312 2.621094 C 74.445312 2.59375 74.464844 2.582031 74.5 2.582031 L 74.546875 2.582031 C 74.519531 2.542969 74.507812 2.472656 74.507812 2.414062 C 74.507812 2.21875 74.628906 2.117188 74.84375 2.117188 C 74.878906 2.117188 74.9375 2.117188 74.992188 2.132812 C 75.019531 2.136719 75.03125 2.15625 75.03125 2.183594 L 75.03125 2.292969 C 75.03125 2.320312 75.019531 2.332031 74.992188 2.332031 C 74.96875 2.332031 74.898438 2.324219 74.875 2.324219 C 74.78125 2.324219 74.738281 2.375 74.738281 2.453125 C 74.738281 2.515625 74.765625 2.5625 74.785156 2.574219 L 75.011719 2.574219 C 75.046875 2.574219 75.0625 2.589844 75.0625 2.613281 L 75.0625 2.738281 C 75.0625 2.765625 75.046875 2.78125 75.011719 2.78125 L 74.5 2.78125 C 74.464844 2.78125 74.445312 2.765625 74.445312 2.738281 Z M 72.34375 1.753906 C 72.308594 1.753906 72.296875 1.742188 72.296875 1.71875 L 72.296875 1.632812 C 72.296875 1.609375 72.308594 1.601562 72.34375 1.601562 L 72.398438 1.601562 C 72.367188 1.554688 72.351562 1.492188 72.351562 1.429688 C 72.351562 1.261719 72.449219 1.179688 72.648438 1.179688 C 72.683594 1.179688 72.742188 1.183594 72.789062 1.195312 C 72.8125 1.199219 72.824219 1.210938 72.824219 1.226562 L 72.824219 1.308594 C 72.824219 1.328125 72.8125 1.335938 72.785156 1.335938 L 72.679688 1.335938 C 72.574219 1.335938 72.53125 1.371094 72.53125 1.457031 C 72.53125 1.527344 72.558594 1.578125 72.59375 1.597656 L 72.800781 1.597656 C 72.835938 1.597656 72.847656 1.609375 72.847656 1.628906 L 72.847656 1.71875 C 72.847656 1.742188 72.835938 1.753906 72.800781 1.753906 Z M 72.394531 2.003906 C 72.394531 1.972656 72.417969 1.945312 72.453125 1.945312 L 72.722656 1.945312 C 72.757812 1.945312 72.78125 1.972656 72.78125 2.003906 L 72.78125 3.746094 C 72.78125 3.777344 72.757812 3.808594 72.722656 3.808594 L 72.453125 3.808594 C 72.417969 3.808594 72.394531 3.777344 72.394531 3.746094 Z M 71.070312 3.808594 C 71.023438 3.808594 70.972656 3.796875 70.972656 3.773438 L 70.972656 3.460938 C 70.972656 3.441406 71.023438 3.425781 71.070312 3.425781 L 71.375 3.425781 C 71.472656 3.425781 71.496094 3.421875 71.496094 3.324219 L 71.496094 2.859375 C 71.496094 2.734375 71.492188 2.601562 71.488281 2.457031 C 71.488281 2.421875 71.511719 2.398438 71.550781 2.398438 L 71.800781 2.398438 C 71.84375 2.398438 71.863281 2.421875 71.867188 2.457031 C 71.871094 2.585938 71.871094 2.679688 71.871094 2.765625 L 71.871094 3.15625 C 71.871094 3.410156 71.871094 3.582031 71.859375 3.6875 C 71.851562 3.726562 71.839844 3.753906 71.792969 3.777344 C 71.707031 3.800781 71.472656 3.808594 71.3125 3.808594 Z M 71.273438 4.136719 C 71.273438 4.101562 71.304688 4.070312 71.339844 4.070312 L 71.570312 4.070312 C 71.609375 4.070312 71.644531 4.101562 71.644531 4.136719 L 71.644531 4.378906 C 71.644531 4.410156 71.609375 4.441406 71.570312 4.441406 L 71.339844 4.441406 C 71.304688 4.441406 71.273438 4.410156 71.273438 4.378906 Z M 69.636719 4.230469 C 69.636719 4.199219 69.65625 4.179688 69.691406 4.179688 L 69.964844 4.179688 C 70.273438 4.179688 70.4375 4.128906 70.4375 3.898438 L 70.4375 3.808594 L 70.21875 3.808594 C 69.789062 3.808594 69.527344 3.585938 69.527344 3.148438 L 69.527344 3.089844 C 69.527344 2.621094 69.8125 2.347656 70.328125 2.347656 C 70.480469 2.347656 70.683594 2.371094 70.765625 2.398438 C 70.804688 2.414062 70.816406 2.425781 70.816406 2.457031 L 70.816406 3.425781 L 71.078125 3.425781 L 71.078125 3.808594 L 70.808594 3.808594 L 70.808594 3.910156 C 70.773438 4.402344 70.453125 4.523438 70.042969 4.523438 C 69.976562 4.523438 69.730469 4.523438 69.6875 4.507812 C 69.648438 4.5 69.636719 4.484375 69.636719 4.449219 Z M 69.902344 3.101562 C 69.902344 3.328125 69.996094 3.4375 70.21875 3.4375 L 70.445312 3.4375 L 70.445312 2.707031 C 70.386719 2.699219 70.324219 2.695312 70.261719 2.695312 C 70.035156 2.695312 69.902344 2.832031 69.902344 3.0625 Z M 67.953125 1.742188 C 67.953125 1.703125 67.984375 1.671875 68.023438 1.671875 L 68.257812 1.671875 C 68.292969 1.671875 68.324219 1.703125 68.324219 1.742188 L 68.324219 1.976562 C 68.324219 2.011719 68.296875 2.039062 68.257812 2.039062 L 68.023438 2.039062 C 67.980469 2.039062 67.953125 2.011719 67.953125 1.976562 Z M 66.679688 3.480469 C 66.679688 3.445312 66.703125 3.425781 66.738281 3.425781 L 67.125 3.425781 L 67.125 1.589844 C 67.125 1.554688 67.148438 1.527344 67.183594 1.527344 L 67.457031 1.527344 C 67.488281 1.527344 67.511719 1.554688 67.511719 1.589844 L 67.511719 2.503906 C 67.722656 2.359375 68.03125 2.34375 68.167969 2.34375 C 68.679688 2.34375 69.007812 2.554688 69.007812 3.148438 L 69.007812 3.269531 C 69.007812 3.402344 68.996094 3.585938 68.96875 3.707031 C 68.960938 3.746094 68.9375 3.785156 68.875 3.792969 C 68.761719 3.808594 68.316406 3.808594 68.148438 3.808594 L 66.738281 3.808594 C 66.707031 3.808594 66.679688 3.789062 66.679688 3.753906 Z M 68.570312 3.433594 C 68.621094 3.433594 68.628906 3.402344 68.628906 3.234375 L 68.628906 3.191406 C 68.628906 2.824219 68.460938 2.707031 68.070312 2.707031 C 67.9375 2.707031 67.660156 2.726562 67.511719 2.835938 L 67.511719 3.425781 C 67.605469 3.429688 67.71875 3.433594 67.871094 3.433594 Z M 63.972656 3.179688 C 63.972656 3.09375 63.988281 2.914062 64.011719 2.785156 C 64.015625 2.746094 64.039062 2.722656 64.070312 2.722656 L 64.300781 2.722656 C 64.335938 2.722656 64.351562 2.742188 64.347656 2.78125 C 64.339844 2.867188 64.335938 2.964844 64.335938 3.023438 C 64.335938 3.441406 64.402344 3.753906 64.9375 3.753906 C 65.042969 3.753906 65.128906 3.746094 65.214844 3.734375 C 65.222656 3.535156 65.222656 3.441406 65.222656 3.277344 L 65.222656 3.015625 C 65.222656 2.558594 65.496094 2.351562 65.988281 2.351562 C 66.148438 2.351562 66.3125 2.367188 66.417969 2.390625 C 66.453125 2.398438 66.46875 2.410156 66.46875 2.449219 L 66.46875 3.320312 C 66.46875 3.410156 66.5 3.425781 66.605469 3.425781 L 66.742188 3.425781 L 66.742188 3.808594 L 66.507812 3.808594 C 66.234375 3.808594 66.089844 3.742188 66.089844 3.433594 L 66.089844 2.710938 C 66.03125 2.703125 66.003906 2.699219 65.945312 2.699219 C 65.71875 2.699219 65.601562 2.789062 65.601562 3.050781 L 65.601562 3.542969 C 65.601562 3.6875 65.597656 3.875 65.589844 4.015625 C 65.589844 4.050781 65.570312 4.070312 65.523438 4.082031 C 65.359375 4.109375 65.148438 4.125 64.929688 4.125 C 64.246094 4.128906 63.972656 3.800781 63.972656 3.179688 Z M 64.453125 4.398438 C 64.453125 4.359375 64.484375 4.332031 64.519531 4.332031 L 64.71875 4.332031 C 64.753906 4.332031 64.789062 4.359375 64.789062 4.398438 L 64.789062 4.609375 C 64.789062 4.644531 64.75 4.667969 64.71875 4.667969 L 64.519531 4.667969 C 64.484375 4.667969 64.453125 4.640625 64.453125 4.609375 Z M 65.003906 4.398438 C 65.003906 4.359375 65.039062 4.332031 65.070312 4.332031 L 65.273438 4.332031 C 65.308594 4.332031 65.339844 4.359375 65.339844 4.398438 L 65.339844 4.609375 C 65.339844 4.644531 65.308594 4.667969 65.273438 4.667969 L 65.070312 4.667969 C 65.039062 4.667969 65.003906 4.640625 65.003906 4.609375 Z M 62.65625 1.585938 C 62.65625 1.554688 62.679688 1.527344 62.714844 1.527344 L 62.984375 1.527344 C 63.019531 1.527344 63.042969 1.554688 63.042969 1.585938 L 63.042969 3.746094 C 63.042969 3.777344 63.019531 3.808594 62.984375 3.808594 L 62.714844 3.808594 C 62.679688 3.808594 62.65625 3.777344 62.65625 3.746094 Z M 61.410156 3.460938 C 61.410156 3.441406 61.464844 3.425781 61.511719 3.425781 L 61.773438 3.425781 C 61.867188 3.425781 61.890625 3.421875 61.890625 3.324219 L 61.890625 1.589844 C 61.890625 1.554688 61.914062 1.527344 61.949219 1.527344 L 62.21875 1.527344 C 62.253906 1.527344 62.277344 1.554688 62.277344 1.589844 L 62.277344 3.332031 C 62.277344 3.441406 62.273438 3.582031 62.261719 3.6875 C 62.253906 3.726562 62.242188 3.753906 62.195312 3.777344 C 62.109375 3.800781 61.863281 3.808594 61.703125 3.808594 L 61.511719 3.808594 C 61.464844 3.808594 61.410156 3.796875 61.410156 3.773438 Z M 60.320312 3.460938 C 60.320312 3.441406 60.375 3.425781 60.417969 3.425781 L 60.695312 3.425781 C 60.761719 3.425781 60.867188 3.414062 60.867188 3.324219 L 60.867188 2.457031 C 60.867188 2.421875 60.890625 2.398438 60.929688 2.398438 L 61.1875 2.398438 C 61.21875 2.398438 61.242188 2.421875 61.242188 2.457031 L 61.242188 3.375 C 61.265625 3.417969 61.382812 3.425781 61.4375 3.425781 L 61.507812 3.425781 L 61.507812 3.808594 L 61.472656 3.808594 C 61.320312 3.808594 61.152344 3.792969 61.050781 3.707031 C 60.941406 3.785156 60.765625 3.808594 60.640625 3.808594 L 60.417969 3.808594 C 60.375 3.808594 60.320312 3.796875 60.320312 3.773438 Z M 60.601562 1.886719 C 60.601562 1.847656 60.632812 1.820312 60.671875 1.820312 L 60.878906 1.820312 C 60.917969 1.820312 60.953125 1.847656 60.953125 1.886719 L 60.953125 2.121094 C 60.953125 2.15625 60.914062 2.1875 60.878906 2.1875 L 60.671875 2.1875 C 60.632812 2.1875 60.601562 2.15625 60.601562 2.121094 Z M 61.152344 1.886719 C 61.152344 1.847656 61.1875 1.820312 61.222656 1.820312 L 61.433594 1.820312 C 61.46875 1.820312 61.5 1.847656 61.5 1.886719 L 61.5 2.121094 C 61.5 2.15625 61.46875 2.1875 61.433594 2.1875 L 61.222656 2.1875 C 61.1875 2.1875 61.152344 2.15625 61.152344 2.121094 Z M 58.613281 3.808594 C 58.5625 3.808594 58.515625 3.789062 58.515625 3.773438 L 58.515625 3.460938 C 58.515625 3.441406 58.566406 3.425781 58.613281 3.425781 L 59.90625 3.425781 L 59.769531 3.113281 C 59.652344 2.859375 59.449219 2.695312 59.070312 2.695312 C 59.042969 2.695312 58.953125 2.699219 58.910156 2.703125 C 58.867188 2.707031 58.847656 2.691406 58.847656 2.65625 L 58.847656 2.433594 C 58.847656 2.402344 58.867188 2.386719 58.90625 2.375 C 59.003906 2.355469 59.09375 2.347656 59.199219 2.347656 C 59.632812 2.347656 59.945312 2.523438 60.1875 3.066406 C 60.25 3.210938 60.304688 3.351562 60.328125 3.382812 C 60.347656 3.417969 60.363281 3.425781 60.394531 3.425781 L 60.425781 3.425781 L 60.425781 3.808594 Z M 59.238281 4.136719 C 59.238281 4.101562 59.269531 4.070312 59.304688 4.070312 L 59.535156 4.070312 C 59.574219 4.070312 59.609375 4.101562 59.609375 4.136719 L 59.609375 4.378906 C 59.609375 4.410156 59.574219 4.441406 59.535156 4.441406 L 59.304688 4.441406 C 59.269531 4.441406 59.238281 4.410156 59.238281 4.378906 Z M 57.957031 1.585938 C 57.957031 1.554688 57.984375 1.527344 58.023438 1.527344 L 58.285156 1.527344 C 58.324219 1.527344 58.347656 1.554688 58.347656 1.585938 L 58.347656 3.273438 C 58.347656 3.40625 58.402344 3.425781 58.511719 3.425781 L 58.609375 3.425781 L 58.609375 3.808594 L 58.402344 3.808594 C 58.128906 3.808594 57.957031 3.738281 57.957031 3.386719 Z M 56.726562 4.234375 C 56.726562 4.203125 56.746094 4.191406 56.777344 4.191406 L 56.839844 4.191406 C 57.0625 4.191406 57.144531 4.167969 57.144531 3.921875 L 57.144531 2.457031 C 57.144531 2.421875 57.167969 2.398438 57.203125 2.398438 L 57.464844 2.398438 C 57.496094 2.398438 57.519531 2.421875 57.519531 2.457031 L 57.519531 3.878906 C 57.519531 4.03125 57.511719 4.171875 57.453125 4.289062 C 57.359375 4.460938 57.207031 4.523438 56.957031 4.523438 C 56.925781 4.523438 56.820312 4.523438 56.769531 4.511719 C 56.742188 4.507812 56.726562 4.488281 56.726562 4.457031 Z M 54.105469 3.179688 C 54.105469 3.089844 54.121094 2.914062 54.144531 2.785156 C 54.15625 2.738281 54.164062 2.722656 54.207031 2.722656 L 54.4375 2.722656 C 54.472656 2.722656 54.488281 2.742188 54.488281 2.78125 C 54.480469 2.867188 54.472656 2.964844 54.472656 3.023438 C 54.472656 3.441406 54.539062 3.753906 55.074219 3.753906 C 55.179688 3.753906 55.265625 3.746094 55.351562 3.734375 C 55.359375 3.535156 55.359375 3.441406 55.359375 3.277344 L 55.359375 3.015625 C 55.359375 2.558594 55.628906 2.351562 56.144531 2.351562 C 56.285156 2.351562 56.457031 2.363281 56.566406 2.390625 C 56.601562 2.398438 56.617188 2.410156 56.617188 2.449219 L 56.617188 3.746094 C 56.617188 3.78125 56.59375 3.808594 56.558594 3.808594 L 56.296875 3.808594 C 56.261719 3.808594 56.238281 3.78125 56.238281 3.746094 L 56.238281 2.714844 C 56.167969 2.703125 56.136719 2.699219 56.082031 2.699219 C 55.855469 2.699219 55.738281 2.789062 55.738281 3.050781 L 55.738281 3.546875 C 55.738281 3.6875 55.734375 3.875 55.726562 4.015625 C 55.726562 4.050781 55.707031 4.074219 55.660156 4.082031 C 55.496094 4.109375 55.28125 4.128906 55.066406 4.128906 C 54.382812 4.128906 54.105469 3.800781 54.105469 3.179688 Z M 54.585938 4.398438 C 54.585938 4.359375 54.617188 4.332031 54.65625 4.332031 L 54.851562 4.332031 C 54.890625 4.332031 54.921875 4.359375 54.921875 4.398438 L 54.921875 4.609375 C 54.921875 4.644531 54.886719 4.667969 54.851562 4.667969 L 54.65625 4.667969 C 54.617188 4.667969 54.585938 4.640625 54.585938 4.609375 Z M 55.140625 4.398438 C 55.140625 4.359375 55.171875 4.332031 55.207031 4.332031 L 55.410156 4.332031 C 55.445312 4.332031 55.476562 4.359375 55.476562 4.398438 L 55.476562 4.609375 C 55.476562 4.644531 55.445312 4.667969 55.410156 4.667969 L 55.207031 4.667969 C 55.171875 4.667969 55.140625 4.640625 55.140625 4.609375 Z M 62.980469 5.390625 C 62.980469 5.390625 61.21875 5.390625 61.113281 5.390625 C 61.054688 5.390625 60.898438 5.445312 60.898438 5.691406 L 60.898438 11.464844 C 60.898438 11.734375 61.113281 11.734375 61.113281 11.734375 L 62.980469 11.734375 C 64.863281 11.734375 66.164062 10.550781 66.164062 8.578125 C 66.167969 6.570312 64.863281 5.390625 62.980469 5.390625 Z M 62.867188 10.960938 L 61.746094 10.960938 L 61.746094 6.164062 L 62.867188 6.164062 C 64.308594 6.164062 65.210938 7.027344 65.210938 8.578125 C 65.210938 10.09375 64.308594 10.960938 62.867188 10.960938 Z M 72.59375 10.363281 C 72.523438 10.234375 72.410156 10.289062 72.339844 10.363281 C 72.070312 10.605469 71.4375 11.007812 70.582031 11.007812 C 69.195312 11.007812 68.238281 9.890625 68.238281 8.519531 C 68.238281 7.210938 69.140625 6.125 70.527344 6.125 C 71.269531 6.125 71.800781 6.410156 72.113281 6.625 C 72.339844 6.761719 72.390625 6.761719 72.523438 6.625 C 72.59375 6.492188 72.707031 6.304688 72.707031 6.304688 C 72.707031 6.304688 72.835938 6.125 72.707031 6.03125 C 72.390625 5.828125 71.664062 5.316406 70.527344 5.316406 C 68.691406 5.316406 67.335938 6.703125 67.335938 8.519531 C 67.335938 10.363281 68.632812 11.808594 70.527344 11.808594 C 71.753906 11.808594 72.523438 11.222656 72.835938 10.960938 C 72.976562 10.875 72.917969 10.792969 72.863281 10.683594 C 72.835938 10.636719 72.707031 10.476562 72.59375 10.363281 Z M 77.332031 8.382812 C 77.839844 8.175781 78.15625 7.667969 78.15625 7.027344 C 78.15625 5.976562 77.386719 5.390625 76.296875 5.390625 C 76.296875 5.390625 74.652344 5.390625 74.378906 5.390625 C 74.144531 5.390625 74.09375 5.636719 74.09375 5.691406 L 74.09375 11.464844 C 74.09375 11.546875 74.09375 11.734375 74.378906 11.734375 C 74.652344 11.734375 76.347656 11.734375 76.347656 11.734375 C 77.464844 11.734375 78.371094 11.144531 78.371094 9.914062 C 78.371094 9.25 77.992188 8.605469 77.332031 8.382812 Z M 74.996094 6.164062 L 76.296875 6.164062 C 76.882812 6.164062 77.253906 6.570312 77.253906 7.136719 C 77.253906 7.667969 76.882812 8.0625 76.296875 8.0625 L 74.996094 8.0625 Z M 76.402344 10.960938 L 74.996094 10.960938 L 74.996094 8.792969 L 76.402344 8.792969 C 77.066406 8.792969 77.464844 9.25 77.464844 9.890625 C 77.464844 10.550781 77.066406 10.960938 76.402344 10.960938 Z M 57.554688 5.691406 C 57.46875 5.5 57.425781 5.390625 57.152344 5.390625 L 56.625 5.390625 C 56.382812 5.390625 56.296875 5.5 56.226562 5.691406 C 56.167969 5.84375 53.964844 11.546875 53.964844 11.546875 C 53.964844 11.546875 53.964844 11.734375 54.175781 11.734375 L 54.738281 11.734375 C 54.863281 11.734375 54.921875 11.601562 54.921875 11.601562 L 55.53125 9.914062 L 58.25 9.914062 L 58.855469 11.601562 C 58.855469 11.601562 58.910156 11.734375 59.039062 11.734375 L 59.578125 11.734375 C 59.804688 11.734375 59.804688 11.546875 59.804688 11.546875 C 59.804688 11.546875 57.617188 5.84375 57.554688 5.691406 Z M 55.804688 9.195312 L 56.433594 7.429688 L 56.890625 6.277344 L 57.335938 7.429688 L 57.953125 9.195312 Z M 66.140625 4.136719 C 66.140625 4.101562 66.171875 4.070312 66.207031 4.070312 L 66.4375 4.070312 C 66.476562 4.070312 66.511719 4.101562 66.511719 4.136719 L 66.511719 4.378906 C 66.511719 4.410156 66.476562 4.441406 66.4375 4.441406 L 66.207031 4.441406 C 66.171875 4.441406 66.140625 4.410156 66.140625 4.378906 Z M 66.140625 4.136719 "/>
<path style=" stroke:none;fill-rule:nonzero;fill:rgb(16.078431%,21.960784%,25.490196%);fill-opacity:1;" d="M 2.207031 5.039062 L 0.636719 5.039062 L 0.636719 4.445312 L 4.460938 4.445312 L 4.460938 5.039062 L 2.882812 5.039062 L 2.882812 9.859375 L 2.207031 9.859375 Z M 2.207031 5.039062 "/>
<path style=" stroke:none;fill-rule:nonzero;fill:rgb(16.078431%,21.960784%,25.490196%);fill-opacity:1;" d="M 9.089844 7.097656 C 9.089844 8.960938 8.011719 9.949219 6.691406 9.949219 C 5.328125 9.949219 4.371094 8.839844 4.371094 7.203125 C 4.371094 5.484375 5.390625 4.359375 6.769531 4.359375 C 8.179688 4.359375 9.089844 5.492188 9.089844 7.097656 Z M 5.082031 7.183594 C 5.082031 8.339844 5.679688 9.375 6.730469 9.375 C 7.789062 9.375 8.386719 8.355469 8.386719 7.128906 C 8.386719 6.050781 7.851562 4.929688 6.738281 4.929688 C 5.632812 4.929688 5.082031 5.996094 5.082031 7.183594 Z M 5.082031 7.183594 "/>
<path style=" stroke:none;fill-rule:nonzero;fill:rgb(16.078431%,21.960784%,25.490196%);fill-opacity:1;" d="M 10.472656 4.445312 L 10.472656 7.652344 C 10.472656 8.863281 10.984375 9.378906 11.675781 9.378906 C 12.441406 9.378906 12.933594 8.847656 12.933594 7.652344 L 12.933594 4.445312 L 13.605469 4.445312 L 13.605469 7.601562 C 13.605469 9.265625 12.773438 9.945312 11.652344 9.945312 C 10.59375 9.945312 9.796875 9.3125 9.796875 7.632812 L 9.796875 4.445312 Z M 10.472656 4.445312 "/>
<path style=" stroke:none;fill-rule:nonzero;fill:rgb(16.078431%,21.960784%,25.490196%);fill-opacity:1;" d="M 18.222656 9.683594 C 17.976562 9.8125 17.484375 9.9375 16.855469 9.9375 C 15.398438 9.9375 14.304688 8.976562 14.304688 7.199219 C 14.304688 5.507812 15.398438 4.359375 17.003906 4.359375 C 17.644531 4.359375 18.050781 4.503906 18.230469 4.597656 L 18.066406 5.167969 C 17.816406 5.039062 17.453125 4.945312 17.027344 4.945312 C 15.816406 4.945312 15.007812 5.753906 15.007812 7.175781 C 15.007812 8.503906 15.738281 9.351562 16.996094 9.351562 C 17.402344 9.351562 17.8125 9.265625 18.082031 9.128906 Z M 18.222656 9.683594 "/>
<path style=" stroke:none;fill-rule:nonzero;fill:rgb(16.078431%,21.960784%,25.490196%);fill-opacity:1;" d="M 19.570312 4.445312 L 19.570312 6.710938 L 22.070312 6.710938 L 22.070312 4.445312 L 22.742188 4.445312 L 22.742188 9.859375 L 22.070312 9.859375 L 22.070312 7.320312 L 19.570312 7.320312 L 19.570312 9.859375 L 18.902344 9.859375 L 18.902344 4.445312 Z M 19.570312 4.445312 "/>
<path style=" stroke:none;fill-rule:nonzero;fill:rgb(16.078431%,21.960784%,25.490196%);fill-opacity:1;" d="M 23.746094 4.511719 C 24.070312 4.453125 24.492188 4.40625 25.027344 4.40625 C 25.6875 4.40625 26.167969 4.566406 26.476562 4.855469 C 26.757812 5.113281 26.929688 5.507812 26.929688 5.988281 C 26.929688 6.476562 26.789062 6.863281 26.53125 7.144531 C 26.175781 7.539062 25.601562 7.738281 24.949219 7.738281 C 24.75 7.738281 24.566406 7.730469 24.414062 7.691406 L 24.414062 9.859375 L 23.746094 9.859375 Z M 24.414062 7.121094 C 24.558594 7.160156 24.742188 7.175781 24.964844 7.175781 C 25.769531 7.175781 26.261719 6.765625 26.261719 6.019531 C 26.261719 5.304688 25.777344 4.960938 25.042969 4.960938 C 24.75 4.960938 24.527344 4.984375 24.414062 5.015625 Z M 24.414062 7.121094 "/>
<path style=" stroke:none;fill-rule:nonzero;fill:rgb(16.078431%,21.960784%,25.490196%);fill-opacity:1;" d="M 32.085938 7.097656 C 32.085938 8.960938 31.007812 9.949219 29.6875 9.949219 C 28.324219 9.949219 27.367188 8.839844 27.367188 7.203125 C 27.367188 5.484375 28.386719 4.359375 29.765625 4.359375 C 31.175781 4.359375 32.085938 5.492188 32.085938 7.097656 Z M 28.078125 7.183594 C 28.078125 8.339844 28.675781 9.375 29.726562 9.375 C 30.785156 9.375 31.382812 8.355469 31.382812 7.128906 C 31.382812 6.050781 30.84375 4.929688 29.734375 4.929688 C 28.628906 4.929688 28.078125 5.996094 28.078125 7.183594 Z M 28.078125 7.183594 "/>
<path style=" stroke:none;fill-rule:nonzero;fill:rgb(16.078431%,21.960784%,25.490196%);fill-opacity:1;" d="M 33.464844 4.445312 L 33.464844 9.859375 L 32.800781 9.859375 L 32.800781 4.445312 Z M 33.464844 4.445312 "/>
<path style=" stroke:none;fill-rule:nonzero;fill:rgb(16.078431%,21.960784%,25.490196%);fill-opacity:1;" d="M 34.476562 9.859375 L 34.476562 4.445312 L 35.207031 4.445312 L 36.863281 7.183594 C 37.246094 7.820312 37.546875 8.390625 37.789062 8.941406 L 37.804688 8.933594 C 37.746094 8.210938 37.730469 7.554688 37.730469 6.710938 L 37.730469 4.445312 L 38.359375 4.445312 L 38.359375 9.859375 L 37.683594 9.859375 L 36.042969 7.113281 C 35.683594 6.511719 35.335938 5.894531 35.078125 5.304688 L 35.054688 5.3125 C 35.09375 5.996094 35.105469 6.648438 35.105469 7.546875 L 35.105469 9.859375 Z M 34.476562 9.859375 "/>
<path style=" stroke:none;fill-rule:nonzero;fill:rgb(16.078431%,21.960784%,25.490196%);fill-opacity:1;" d="M 40.351562 5.039062 L 38.777344 5.039062 L 38.777344 4.445312 L 42.605469 4.445312 L 42.605469 5.039062 L 41.023438 5.039062 L 41.023438 9.859375 L 40.351562 9.859375 Z M 40.351562 5.039062 "/>
<path style=" stroke:none;fill-rule:nonzero;fill:rgb(16.078431%,21.960784%,25.490196%);fill-opacity:1;" d="M 42.886719 9.007812 C 43.1875 9.199219 43.621094 9.363281 44.082031 9.363281 C 44.765625 9.363281 45.164062 8.984375 45.164062 8.4375 C 45.164062 7.933594 44.886719 7.644531 44.191406 7.363281 C 43.347656 7.050781 42.824219 6.59375 42.824219 5.828125 C 42.824219 4.984375 43.492188 4.359375 44.496094 4.359375 C 45.027344 4.359375 45.410156 4.488281 45.640625 4.625 L 45.457031 5.195312 C 45.285156 5.097656 44.941406 4.9375 44.472656 4.9375 C 43.769531 4.9375 43.5 5.378906 43.5 5.75 C 43.5 6.253906 43.816406 6.503906 44.527344 6.792969 C 45.402344 7.144531 45.847656 7.589844 45.847656 8.382812 C 45.847656 9.21875 45.257812 9.941406 44.039062 9.941406 C 43.539062 9.941406 42.996094 9.789062 42.71875 9.597656 Z M 42.886719 9.007812 "/>
</g>
</svg>
