<?xml version="1.0" encoding="UTF-8"?>
<svg xmlns="http://www.w3.org/2000/svg" xmlns:xlink="http://www.w3.org/1999/xlink" width="77px" height="21px" viewBox="0 0 77 21" version="1.1">
<g id="surface1">
<path style=" stroke:none;fill-rule:evenodd;fill:rgb(16.862746%,20.392157%,59.215689%);fill-opacity:1;" d="M 32.136719 10.828125 L 32.136719 4.710938 L 39.886719 4.710938 C 43.699219 4.710938 44.257812 10.828125 39.132812 10.828125 Z M 38.929688 13.929688 C 38.929688 13.929688 44.386719 15.046875 47.085938 11.269531 C 49.710938 7.597656 47.65625 0 40.726562 0 L 27.0625 0 L 27.0625 20.550781 L 32.136719 20.550781 L 32.136719 13.929688 C 32.136719 13.929688 37.894531 19.539062 45.777344 20.261719 C 46 20.285156 46.226562 20.304688 46.445312 20.324219 C 47.695312 20.441406 48.855469 20.550781 49.9375 20.550781 L 49.9375 15.109375 L 49.933594 15.109375 C 49.824219 15.152344 45.132812 16.882812 38.929688 13.929688 Z M 0 0 L 0 5.179688 L 8.898438 5.179688 L 8.898438 20.550781 L 13.972656 20.550781 L 13.972656 5.179688 L 22.871094 5.179688 L 22.871094 0 Z M 72.234375 15.402344 L 72.234375 0 L 77 0 L 77 20.550781 L 72.234375 20.550781 L 72.234375 17.550781 C 65.867188 23.738281 56.621094 21.039062 54.582031 13.902344 C 54.28125 12.84375 54.128906 11.636719 54.128906 10.277344 L 54.128906 0 L 59.132812 0 L 59.132812 9.699219 C 59.132812 11.730469 59.601562 13.191406 60.53125 14.074219 C 62.167969 15.625 65.222656 15.398438 65.222656 15.398438 C 67.023438 15.285156 69.878906 13.207031 69.878906 13.207031 C 69.878906 13.207031 71.339844 14.632812 72.234375 15.402344 Z M 72.234375 15.402344 "/>
</g>
</svg>
