<?xml version="1.0" encoding="UTF-8" standalone="no"?>
<!DOCTYPE svg PUBLIC "-//W3C//DTD SVG 20010904//EN" "http://www.w3.org/TR/2001/REC-SVG-20010904/DTD/svg10.dtd">
<svg version="1.0" xmlns="http://www.w3.org/2000/svg" width="150.000000pt" height="181.000000pt" viewBox="0 0 150.000000 181.000000" preserveAspectRatio="xMidYMid meet"><g transform="translate(0.000000,181.000000) scale(0.100000,-0.100000)" fill="#253f8b" stroke="none"><path d="M703 1755 c-168 -46 -289 -186 -301 -348 l-5 -68 69 3 69 3 6 52 c13 100 88 190 183 218 33 10 94 15 178 15 l128 0 0 70 0 70 -137 -1 c-86 0 -158 -6 -190 -14z"/><path d="M816 1460 c-57 -29 -85 -58 -112 -115 -23 -48 -24 -59 -24 -278 l0 -228 68 3 67 3 5 223 5 224 28 24 c26 22 36 24 138 24 l109 0 0 70 0 70 -122 0 c-102 -1 -130 -4 -162 -20z"/><path d="M400 1021 c0 -157 3 -187 20 -235 23 -61 85 -136 140 -171 174 -110 412 -42 506 142 29 57 29 60 32 251 l4 192 -71 0 -71 0 0 -170 c0 -148 -3 -176 -19 -208 -80 -155 -281 -163 -379 -15 -14 22 -18 58 -22 208 l-5 180 -67 3 -68 3 0 -180z"/><path d="M180 252 c0 -100 0 -100 31 -126 24 -20 41 -26 81 -26 41 0 54 5 79 29 28 28 29 33 29 126 0 86 -2 96 -17 93 -15 -3 -18 -17 -21 -93 -2 -49 -8 -95 -14 -102 -14 -17 -102 -17 -116 0 -6 7 -12 53 -14 102 -3 76 -6 90 -20 93 -16 3 -18 -7 -18 -96z"/><path d="M482 334 c-20 -14 -22 -23 -22 -125 0 -90 3 -109 15 -109 12 0 15 17 15 93 0 106 6 117 62 117 31 0 38 4 38 20 0 17 -7 20 -43 20 -23 0 -53 -7 -65 -16z"/><path d="M651 331 c-19 -19 -21 -32 -21 -156 0 -128 1 -135 20 -135 18 0 20 8 22 133 l3 132 42 3 c32 2 46 -2 62 -19 45 -48 9 -139 -54 -139 -20 0 -26 -4 -23 -18 5 -22 58 -21 93 2 33 21 49 84 35 134 -14 54 -41 75 -104 80 -45 4 -57 1 -75 -17z"/><path d="M912 343 c-15 -3 -22 -10 -20 -21 3 -14 13 -16 59 -14 78 5 91 -9 87 -97 l-3 -66 -62 -3 -63 -3 0 34 c0 38 12 47 61 47 19 0 29 5 29 15 0 11 -12 15 -48 15 -60 0 -82 -20 -82 -77 0 -58 21 -73 103 -73 60 0 67 2 87 28 19 23 21 37 18 99 -4 91 -23 114 -95 119 -26 1 -58 0 -71 -3z"/><path d="M1120 257 c0 -85 2 -95 24 -116 28 -26 85 -37 115 -22 17 9 21 9 21 -2 0 -27 -28 -39 -84 -35 -45 2 -56 0 -59 -14 -6 -22 12 -28 79 -28 45 0 59 4 79 25 24 23 25 29 25 155 0 123 -1 130 -20 130 -18 0 -20 -7 -20 -83 0 -91 -13 -117 -59 -117 -53 0 -61 14 -61 110 0 83 -1 90 -20 90 -19 0 -20 -7 -20-93z"/></g></svg>